<svg viewBox="0 0 48 48" xmlns="http://www.w3.org/2000/svg"><g fill="none" stroke="#000" stroke-linecap="round" stroke-linejoin="round"><path d="m13.1747 17.75v12.5l10.8253 6.25 10.8253-6.25v-12.5l-10.8253-6.25z"/><path d="m6.2465 13.75v20.5l17.7535 10.25 17.7535-10.25v-20.5l-17.7535-10.25z"/><path d="m19.6699 21.5v5l4.3301 2.5 4.3301-2.5v-5l-4.3301-2.5z"/><path d="m16.6388 19.75v8.5l7.3612 4.25 7.3612-4.25v-8.5l-7.3612-4.25z"/><path d="m34.8253 30.25v8"/><path d="m28.3301 26.5v3.5"/><path d="m24 11.5 6.9282-4"/><path d="m13.1747 30.25-6.9282-4"/><path d="m27.0311 17.25-3.0311 1.75"/><path d="m16.6388 24.75 3.0311 1.75"/></g></svg>