<?xml version="1.0" encoding="UTF-8"?>
<svg id="Layer_2" data-name="Layer 2" xmlns="http://www.w3.org/2000/svg" viewBox="0 0 36.82 35.85">
  <defs>
    <style>
      .cls-1 {
        fill: #1d1c57;
      }

      .cls-1, .cls-2 {
        stroke-width: 0px;
      }

      .cls-2 {
        fill: #9696ca;
      }
    </style>
  </defs>
  <g id="Layer_2-2" data-name="Layer 2">
    <g>
      <rect class="cls-1" width="36.82" height="35.85" rx="6.6" ry="6.6"/>
      <g>
        <path class="cls-2" d="m12.1,9.57c.6,0,1.2,0,1.8,0,.28,0,.28,0,.37.25,1.81,5.08,3.63,10.15,5.44,15.23.01.04.03.08.04.11.03.16-.01.21-.17.21-.36,0-.73,0-1.09,0-.65,0-1.29,0-1.94,0-.28,0-.3-.02-.39-.27-.38-1.11-.76-2.22-1.14-3.34-.05-.14-.1-.19-.25-.19-1.76,0-3.51,0-5.27,0-.14,0-.2.04-.24.18-.35,1.1-.71,2.19-1.06,3.29-.09.28-.13.31-.43.31-.86,0-1.72,0-2.57,0-.36,0-.39-.05-.28-.38,1.14-3.25,2.28-6.5,3.41-9.76.51-1.45,1.02-2.9,1.51-4.36.11-.33.12-.7.15-1.05.03-.24.02-.25.26-.25.62,0,1.23,0,1.85,0Zm-1.87,9.02h3.81c-.65-2.1-1.3-4.18-1.93-6.21-.61,2.03-1.24,4.12-1.88,6.21Z"/>
        <path class="cls-2" d="m30.72,19.79c.14,0,.66,0,.66,0,0,0,0-1.26-.02-1.68-.04-.71-.15-1.41-.38-2.07-.36-1.03-1.03-1.91-1.98-2.46-.51-.3-1.07-.49-1.65-.59-2.06-.37-4.32.12-5.62,1.86-1.03,1.39-1.34,3.22-1.33,4.91,0,0,.01,5.19,5.52,5.6,0,0,2.41.18,4.39-.68v-2.62s-6.13,1.86-6.53-2.3c.94,0,1.88,0,2.82,0,1.37,0,2.75,0,4.12.01Zm-4.7-4.49c1.24,0,2.25,1,2.25,2.24h-4.5c0-1.24,1.01-2.24,2.25-2.24Z"/>
      </g>
    </g>
  </g>
</svg>