<?xml version="1.0" encoding="UTF-8"?>
<svg id="Layer_2" data-name="Layer 2" xmlns="http://www.w3.org/2000/svg" viewBox="0 0 36.82 35.95">
  <defs>
    <style>
      .cls-1 {
        opacity: .45;
      }

      .cls-2 {
        fill: #265888;
      }

      .cls-2, .cls-3 {
        stroke-width: 0px;
      }

      .cls-3 {
        fill: #e87e24;
      }
    </style>
  </defs>
  <g id="Layer_2-2" data-name="Layer 2">
    <g>
      <g class="cls-1">
        <rect class="cls-3" width="36.82" height="35.95" rx="5.97" ry="5.97"/>
      </g>
      <g>
        <path class="cls-2" d="m18.65,19.76c.05-1,.54-1.89,1.28-2.52.73-.62,1.7-1,2.77-1s2.05.37,2.78.98c.74.62,1.24,1.51,1.3,2.51.06,1.03-.35,1.99-1.08,2.7-.74.73-1.79,1.18-2.97,1.19s-2.24-.45-2.98-1.17c-.73-.71-1.15-1.66-1.09-2.69Z"/>
        <path class="cls-3" d="m12.19,21.55c0,.39.14,1.16.33,1.75.4,1.26,1.07,2.43,2.01,3.45.96,1.05,2.14,1.9,3.5,2.5,1.43.63,2.98.95,4.59.94,1.61,0,3.16-.34,4.58-.99,1.36-.61,2.53-1.47,3.48-2.53.93-1.04,1.59-2.21,1.98-3.47.2-.64.32-1.29.37-1.94.05-.64.02-1.28-.07-1.92-.18-1.25-.62-2.42-1.29-3.48-.61-.98-1.4-1.83-2.33-2.55h0s-9.43-7.19-9.43-7.19c0,0-.02-.01-.02-.02-.62-.47-1.66-.47-2.33.01-.68.48-.76,1.28-.15,1.77h0s3.93,3.18,3.93,3.18l-11.95.05h-.02c-.99,0-1.94.66-2.12,1.48-.19.84.48,1.52,1.51,1.53h0s6.06-.03,6.06-.03l-10.78,8.33s-.03.02-.04.03c-1.02.78-1.34,2.08-.7,2.9.65.83,2.04.83,3.07,0l5.88-4.85s-.08.65-.08,1.04Zm15.17,2.13c-1.21,1.24-2.91,1.95-4.75,1.96-1.84,0-3.55-.68-4.77-1.91-.6-.6-1.03-1.29-1.31-2.03-.27-.72-.37-1.49-.31-2.27.06-.76.29-1.49.64-2.14.35-.65.84-1.23,1.44-1.72,1.18-.97,2.68-1.49,4.25-1.5,1.57,0,3.08.5,4.27,1.46.6.49,1.09,1.07,1.45,1.71.36.65.59,1.37.66,2.14.07.78-.03,1.55-.29,2.27-.27.74-.7,1.44-1.29,2.04Z"/>
      </g>
    </g>
  </g>
</svg>