<svg xmlns="http://www.w3.org/2000/svg"  viewBox="0 0 50 50" width="50px" height="50px"><path d="M 39.080078 1.0019531 C 38.728358 1.0019531 38.367732 1.0480581 38.011719 1.1484375 L 3.7929688 10.773438 C 2.8014865 11.051585 1.9605567 11.709944 1.4648438 12.605469 C 0.98767427 13.467627 0.87203808 14.486649 1.1503906 15.433594 L 1.7792969 17.990234 A 1.0001 1.0001 0 0 0 1.8125 18.09375 A 1.0001 1.0001 0 0 0 1.8164062 18.128906 L 6.3300781 45.830078 C 6.6274381 47.663119 8.2472338 49 10.115234 49 C 10.318569 49 10.523142 48.983402 10.726562 48.951172 L 18.332031 47.757812 L 45.765625 43.466797 C 46.780226 43.30814 47.689664 42.757235 48.289062 41.929688 C 48.869289 41.129002 49.109167 40.1301 48.951172 39.15625 L 44.435547 11.443359 A 1.0001 1.0001 0 0 0 43.292969 10.615234 L 15.673828 14.941406 L 42.671875 6.890625 A 1.0001 1.0001 0 0 0 43.345703 5.6484375 L 42.773438 3.7226562 C 42.289051 2.0689221 40.744152 1.0019531 39.080078 1.0019531 z M 39.080078 3.0019531 C 39.894004 3.0019531 40.627901 3.5129373 40.853516 4.2832031 A 1.0001 1.0001 0 0 0 40.855469 4.2871094 L 41.132812 5.2285156 L 37.185547 3.4589844 L 38.554688 3.0742188 C 38.730674 3.0245977 38.905798 3.0019528 39.080078 3.0019531 z M 31.525391 5.0507812 L 35.634766 6.9023438 L 30.115234 8.5488281 L 25.849609 6.6464844 L 31.525391 5.0507812 z M 20.1875 8.2402344 L 24.564453 10.203125 L 19.033203 11.853516 L 14.535156 9.8300781 L 20.1875 8.2402344 z M 8.8496094 11.429688 L 13.492188 13.505859 L 7.9550781 15.15625 L 3.5234375 13.175781 C 3.7415851 12.95652 4.0101401 12.790069 4.3339844 12.699219 L 8.8496094 11.429688 z M 42.621094 12.746094 L 46.978516 39.478516 C 47.051906 39.93396 46.947296 40.373097 46.669922 40.755859 C 46.38132 41.154311 45.96443 41.410891 45.457031 41.490234 L 18.023438 45.78125 L 10.416016 46.976562 A 1.0001 1.0001 0 0 0 10.414062 46.976562 C 10.31617 46.992129 10.213254 47 10.115234 47 C 9.1792357 47 8.4453276 46.376725 8.3046875 45.509766 L 4.4589844 21.912109 L 7.7109375 18.210938 L 13.523438 17.300781 L 10.150391 21.140625 L 15.980469 20.230469 L 19.345703 16.388672 L 25.142578 15.482422 L 21.779297 19.320312 L 27.589844 18.410156 L 30.962891 14.570312 L 36.767578 13.662109 L 33.410156 17.5 L 39.210938 16.589844 L 39.220703 16.589844 L 42.583984 12.751953 L 42.621094 12.746094 z M 40.673828 18.392578 A 1.0001 1.0001 0 0 0 40.509766 18.404297 L 7.7695312 23.537109 A 1.0001 1.0001 0 0 0 6.9375 24.685547 L 10.085938 43.998047 A 1.0001 1.0001 0 0 0 11.226562 44.826172 L 43.96875 39.701172 A 1.0001 1.0001 0 0 0 44.800781 38.552734 L 41.652344 19.232422 A 1.0001 1.0001 0 0 0 40.673828 18.392578 z M 39.837891 20.535156 L 42.664062 37.880859 L 11.898438 42.697266 L 9.0722656 25.357422 L 39.837891 20.535156 z"/></svg>