<?xml version="1.0"?><svg xmlns="http://www.w3.org/2000/svg"  viewBox="0 0 50 50" width="50px" height="50px">    <path d="M 7 3 C 6.45 3 6 3.45 6 4 L 6 46 C 6 46.55 6.45 47 7 47 L 43 47 C 43.55 47 44 46.55 44 46 L 44 4 C 44 3.45 43.55 3 43 3 L 7 3 z M 25 8 C 32.18 8 38 13.82 38 21 C 38 28.18 32.18 34 25 34 C 17.82 34 12 28.18 12 21 C 12 13.82 17.82 8 25 8 z M 25 12 C 20.041282 12 16 16.041282 16 21 C 16 25.958718 20.041282 30 25 30 C 29.958718 30 34 25.958718 34 21 C 34 16.041282 29.958718 12 25 12 z M 25 14 C 28.877838 14 32 17.122162 32 21 C 32 24.877838 28.877838 28 25 28 C 21.122162 28 18 24.877838 18 21 C 18 17.122162 21.122162 14 25 14 z M 25 19 A 2 2 0 0 0 23 21 A 2 2 0 0 0 25 23 A 2 2 0 0 0 27 21 A 2 2 0 0 0 25 19 z M 18 38 L 32 38 C 32.55 38 33 38.45 33 39 L 33 42 C 33 42.55 32.55 43 32 43 L 18 43 C 17.45 43 17 42.55 17 42 L 17 39 C 17 38.45 17.45 38 18 38 z"/></svg>