<?xml version="1.0" encoding="UTF-8"?>
<svg id="Layer_2" data-name="Layer 2" xmlns="http://www.w3.org/2000/svg" viewBox="0 0 36.82 35.96">
  <defs>
    <style>
      .cls-1 {
        fill: #56a1d8;
      }

      .cls-1, .cls-2 {
        stroke-width: 0px;
      }

      .cls-2 {
        fill: #071f35;
      }
    </style>
  </defs>
  <g id="Layer_2-2" data-name="Layer 2">
    <g>
      <rect class="cls-2" width="36.82" height="35.96" rx="6.61" ry="6.61"/>
      <path class="cls-1" d="m14.44,9.21h-6v15.99h3.37v-4.99h2.63c1.52,0,2.89-.62,3.89-1.61.99-.99,1.61-2.37,1.61-3.89,0-3.04-2.46-5.5-5.5-5.5Zm1.41,7.33c-.47.47-1.12.76-1.83.76h-2.21v-5.19h2.21c1.43,0,2.59,1.16,2.59,2.59,0,.72-.29,1.36-.76,1.83Z"/>
      <path class="cls-1" d="m30.45,21.62c0,1.06-.49,2.07-1.28,2.78-.88.8-2.1,1.14-3.26,1.23-.14.01-.28.02-.42.02-1.29.03-2.65-.25-3.82-.79-.01,0-.02-.01-.04-.02,0-.94,0-1.88,0-2.82,0,.05.93.28,1.05.32,1.07.35,2.34.61,3.46.47.24-.03.48-.09.66-.24.69-.57,0-1.29-.57-1.56-.61-.3-1.27-.49-1.9-.75-.59-.25-1.16-.59-1.63-1.02-1.56-1.45-1.5-3.9.09-5.31.9-.8,2.12-1.05,3.29-1.11,1.22-.05,2.44.16,3.57.63.04.02.09.04.11.08.02.03.02.08.02.12,0,.96,0,1.92,0,2.88-.18-.16-.43-.22-.65-.32-.24-.1-.48-.19-.72-.27-.87-.28-1.99-.53-2.88-.23-.33.11-.57.34-.57.71,0,.56.55.83,1,1.03.56.25,1.15.41,1.7.66,1.44.67,2.78,1.81,2.78,3.53Z"/>
    </g>
  </g>
</svg>