<?xml version="1.0" encoding="UTF-8"?>
<svg id="Layer_2" data-name="Layer 2" xmlns="http://www.w3.org/2000/svg" viewBox="0 0 36.82 35.96">
  <defs>
    <style>
      .cls-1 {
        fill: #1e1d58;
      }

      .cls-1, .cls-2 {
        stroke-width: 0px;
      }

      .cls-2 {
        fill: #9696ca;
      }
    </style>
  </defs>
  <g id="Layer_2-2" data-name="Layer 2">
    <g>
      <rect class="cls-1" width="36.82" height="35.96" rx="6.61" ry="6.61"/>
      <g>
        <path class="cls-2" d="m13.83,9.99h-6v15.99h3.37v-4.99h2.63c1.52,0,2.89-.62,3.89-1.61.99-.99,1.61-2.37,1.61-3.89,0-3.04-2.46-5.5-5.5-5.5Zm1.41,7.33c-.47.47-1.12.76-1.83.76h-2.21v-5.19h2.21c1.43,0,2.59,1.16,2.59,2.59,0,.72-.29,1.36-.76,1.83Z"/>
        <path class="cls-2" d="m24.71,15.3v-1.55h-3.21v12.23h3.21v-6.96c0-.58.28-1.13.76-1.46,1.29-.89,3.52-.77,3.52-.77v-3.37c-2.79,0-4.28,1.88-4.28,1.88Z"/>
      </g>
    </g>
  </g>
</svg>