<?xml version="1.0" encoding="UTF-8"?>
<svg id="Layer_2" data-name="Layer 2" xmlns="http://www.w3.org/2000/svg" viewBox="0 0 379.79 117.57">
  <defs>
    <style>
      .cls-1 {
        fill: none;
        stroke: #fff;
        stroke-miterlimit: 10;
      }
    </style>
  </defs>
  <g id="Ebene_2" data-name="Ebene 2">
    <path class="cls-1" d="m243.73,17.7c-13.16-3.93-39.96-10.01-61.42-10.47-27.29-.61-53.35,5.93-80.33,7.15C65.84,16.01,35.81,2.3.5.53c.31,38.84-.01,77.7,0,116.54,126.22-.03,252.44.02,378.66,0,.03-35.63.12-71.27.13-106.9-22.77,1.13-43.09,8.58-64.6,12.44-.6.11-1.2.22-1.81.32-.39.06-.79.13-1.18.19-.09.02-.19.03-.29.04l-.2.03c-2.91.45-5.86.82-8.81,1.08-.95.09-1.91.17-2.87.23l2.87-.23c-.95.09-1.91.17-2.87.23-2,.14-4,.24-6,.28-.15,0-.29.01-.44.01-1.57.03-3.14.03-4.71-.01-.76-.01-5.14-.03-10.61-.26s-20.88-2.9-34.04-6.82Z"/>
  </g>
</svg>