<?xml version="1.0" encoding="UTF-8"?>
<svg id="Layer_2" data-name="Layer 2" xmlns="http://www.w3.org/2000/svg" viewBox="0 0 486.49 202.35">
  <defs>
    <style>
      .cls-1 {
        fill: none;
        stroke: #fff;
        stroke-miterlimit: 10;
      }

      .cls-2 {
        fill: #231f20;
      }

      .cls-2, .cls-3 {
        stroke-width: 0px;
      }

      .cls-3 {
        fill: #fff;
      }
    </style>
  </defs>
  <g id="Layer_2-2" data-name="Layer 2">
    <g>
      <rect class="cls-3" y="133.33" width="486.49" height="1"/>
      <g>
        <path class="cls-3" d="m36.52,118.41c-.08,0-.09-.04-.09-.1v-.67c0-.08.01-.11.06-.15.63-.5,1.73-1.39,2.75-2.4,1.44-1.38,1.78-2.31,1.78-3.27,0-1.08-.58-1.95-1.98-1.95-.92,0-1.58.29-2.22.66-.06.04-.1.02-.1-.04v-.96c0-.08,0-.09.06-.13.71-.41,1.54-.67,2.51-.67,2.07,0,3,1.41,3,2.97,0,1.16-.41,2.26-1.79,3.63-.9.93-1.68,1.59-2.24,2.05.51-.04,1-.04,2.35-.04h2.07c.08,0,.11.01.09.08l-.22.93c-.03.08-.04.09-.12.09h-5.91Z"/>
        <path class="cls-3" d="m43.81,113.61c0-2.71,1.12-4.9,3.3-4.9,2.67,0,3.25,2.77,3.25,4.9,0,2.43-.75,4.95-3.24,4.95-2.34,0-3.31-2.22-3.31-4.95Zm1.26-.03c0,2.26.66,3.87,2.07,3.87s1.96-1.5,1.96-3.82c0-2.55-.72-3.83-2.03-3.83-1.15,0-2.01,1.2-2.01,3.78Z"/>
        <path class="cls-3" d="m53.23,118.41c-.09,0-.09-.03-.09-.09v-8.17c-.5.3-1.3.6-1.79.72-.08.02-.11-.01-.11-.09v-.87c0-.06,0-.09.08-.1.73-.21,1.56-.62,2.07-.95.06-.06.15-.06.21-.06h.72s.06.03.06.09v9.43c0,.06-.01.09-.07.09h-1.08Z"/>
        <path class="cls-3" d="m56.27,118.41c-.08,0-.09-.04-.09-.1v-.67c0-.08.01-.11.06-.15.63-.5,1.73-1.39,2.75-2.4,1.44-1.38,1.79-2.31,1.79-3.27,0-1.08-.59-1.95-1.98-1.95-.91,0-1.57.29-2.22.66-.06.04-.1.02-.1-.04v-.96c0-.08,0-.09.06-.13.71-.41,1.54-.67,2.5-.67,2.07,0,3,1.41,3,2.97,0,1.16-.41,2.26-1.79,3.63-.9.93-1.68,1.59-2.23,2.05.51-.04,1-.04,2.35-.04h2.07c.08,0,.11.01.09.08l-.22.93c-.03.08-.04.09-.12.09h-5.91Z"/>
      </g>
      <g>
        <path class="cls-3" d="m153.76,118.41c-.07,0-.09-.04-.09-.11v-.67c0-.08.02-.1.06-.15.63-.49,1.72-1.39,2.74-2.4,1.44-1.38,1.79-2.31,1.79-3.27,0-1.08-.58-1.95-1.98-1.95-.91,0-1.57.29-2.22.66-.06.04-.11.01-.11-.04v-.96c0-.08,0-.09.06-.14.71-.4,1.54-.67,2.5-.67,2.07,0,3,1.41,3,2.97,0,1.16-.4,2.27-1.79,3.63-.9.93-1.68,1.59-2.23,2.06.51-.04,1-.04,2.36-.04h2.07c.08,0,.1.01.09.07l-.22.93c-.03.07-.05.09-.12.09h-5.91Z"/>
        <path class="cls-3" d="m161.05,113.61c0-2.71,1.12-4.91,3.3-4.91,2.67,0,3.25,2.78,3.25,4.91,0,2.43-.75,4.95-3.24,4.95-2.34,0-3.32-2.22-3.32-4.95Zm1.26-.03c0,2.26.66,3.87,2.07,3.87s1.96-1.5,1.96-3.83c0-2.55-.72-3.83-2.02-3.83-1.16,0-2.01,1.2-2.01,3.78Z"/>
        <path class="cls-3" d="m170.47,118.41c-.09,0-.09-.03-.09-.09v-8.17c-.5.3-1.31.6-1.79.72-.08.01-.1-.01-.1-.09v-.87c0-.06,0-.09.07-.11.74-.21,1.56-.61,2.07-.94.06-.06.15-.06.21-.06h.72s.06.03.06.09v9.43c0,.06-.02.09-.08.09h-1.08Z"/>
        <path class="cls-3" d="m175.54,109.98c-.17.55-.46,1.79-.57,2.23,3.1.32,4.47,1.41,4.47,3.32,0,1.77-1.35,3.03-3.48,3.03-.99,0-1.73-.18-2.29-.46-.04-.03-.06-.08-.06-.15v-1.04c0-.06.04-.08.07-.06.69.38,1.43.58,2.28.58,1.62,0,2.22-.92,2.22-1.81,0-1.41-1.2-2.16-4.3-2.42-.06,0-.11-.01-.11-.09v-.51c.04-.27.95-3.58.96-3.66.03-.08.04-.09.1-.09h4.25c.06,0,.09.01.06.09l-.27.95c-.01.06-.04.09-.12.09h-3.21Z"/>
      </g>
      <g>
        <circle class="cls-3" cx="48.53" cy="133.56" r="6.92"/>
        <path class="cls-2" d="m48.53,140.98c-4.09,0-7.42-3.33-7.42-7.42s3.33-7.42,7.42-7.42,7.42,3.33,7.42,7.42-3.33,7.42-7.42,7.42Zm0-13.84c-3.54,0-6.42,2.88-6.42,6.42s2.88,6.42,6.42,6.42,6.42-2.88,6.42-6.42-2.88-6.42-6.42-6.42Z"/>
      </g>
      <g>
        <circle class="cls-3" cx="167.33" cy="133.56" r="6.92"/>
        <path class="cls-2" d="m167.33,140.98c-4.09,0-7.42-3.33-7.42-7.42s3.33-7.42,7.42-7.42,7.42,3.33,7.42,7.42-3.33,7.42-7.42,7.42Zm0-13.84c-3.54,0-6.42,2.88-6.42,6.42s2.88,6.42,6.42,6.42,6.42-2.88,6.42-6.42-2.88-6.42-6.42-6.42Z"/>
      </g>
      <g>
        <circle class="cls-3" cx="292.76" cy="133.56" r="6.92"/>
        <path class="cls-2" d="m292.76,140.98c-4.09,0-7.42-3.33-7.42-7.42s3.33-7.42,7.42-7.42,7.42,3.33,7.42,7.42-3.33,7.42-7.42,7.42Zm0-13.84c-3.54,0-6.42,2.88-6.42,6.42s2.88,6.42,6.42,6.42,6.42-2.88,6.42-6.42-2.88-6.42-6.42-6.42Z"/>
      </g>
      <g>
        <circle class="cls-3" cx="324.73" cy="133.56" r="6.92"/>
        <path class="cls-2" d="m324.73,140.98c-4.09,0-7.42-3.33-7.42-7.42s3.33-7.42,7.42-7.42,7.42,3.33,7.42,7.42-3.33,7.42-7.42,7.42Zm0-13.84c-3.54,0-6.42,2.88-6.42,6.42s2.88,6.42,6.42,6.42,6.42-2.88,6.42-6.42-2.88-6.42-6.42-6.42Z"/>
      </g>
      <g>
        <circle class="cls-3" cx="411.28" cy="133.56" r="6.92"/>
        <path class="cls-2" d="m411.27,140.98c-4.09,0-7.42-3.33-7.42-7.42s3.33-7.42,7.42-7.42,7.42,3.33,7.42,7.42-3.33,7.42-7.42,7.42Zm0-13.84c-3.54,0-6.42,2.88-6.42,6.42s2.88,6.42,6.42,6.42,6.42-2.88,6.42-6.42-2.88-6.42-6.42-6.42Z"/>
      </g>
      <g>
        <path class="cls-3" d="m279.32,118.41c-.07,0-.09-.04-.09-.11v-.67c0-.08.02-.1.06-.15.63-.49,1.72-1.39,2.74-2.4,1.44-1.38,1.79-2.31,1.79-3.27,0-1.08-.58-1.95-1.98-1.95-.92,0-1.58.29-2.22.66-.06.04-.11.01-.11-.04v-.96c0-.08,0-.09.06-.14.71-.4,1.54-.67,2.5-.67,2.07,0,3,1.41,3,2.97,0,1.16-.4,2.27-1.78,3.63-.9.93-1.68,1.59-2.24,2.06.51-.04,1.01-.04,2.36-.04h2.07c.07,0,.11.01.09.07l-.22.93c-.03.07-.04.09-.12.09h-5.91Z"/>
        <path class="cls-3" d="m286.61,113.61c0-2.71,1.12-4.91,3.3-4.91,2.67,0,3.26,2.78,3.26,4.91,0,2.43-.75,4.95-3.24,4.95-2.34,0-3.31-2.22-3.31-4.95Zm1.26-.03c0,2.26.66,3.87,2.07,3.87s1.96-1.5,1.96-3.83c0-2.55-.72-3.83-2.03-3.83-1.15,0-2.01,1.2-2.01,3.78Z"/>
        <path class="cls-3" d="m296.03,118.41c-.09,0-.09-.03-.09-.09v-8.17c-.5.3-1.3.6-1.79.72-.07.01-.11-.01-.11-.09v-.87c0-.06,0-.09.08-.11.73-.21,1.56-.61,2.07-.94.06-.06.15-.06.21-.06h.72s.06.03.06.09v9.43c0,.06-.01.09-.07.09h-1.08Z"/>
        <path class="cls-3" d="m300.12,117.54c0-.06.01-.08.07-.09,1.99-.5,3.3-1.68,3.82-3.06-.57.33-1.18.48-1.86.48-1.8,0-3.04-1.16-3.04-2.97,0-1.67,1.21-3.2,3.24-3.2,1.92,0,3.22,1.5,3.22,3.87,0,3.38-2.56,5.52-5.36,5.98-.09.02-.1-.04-.1-.1v-.92Zm4.15-4.26c.02-.18.04-.5.04-.72,0-1.67-.75-2.76-2.03-2.76s-1.92.95-1.92,2.04c0,1.41.95,2,2.09,2,.76,0,1.33-.2,1.81-.55Z"/>
      </g>
      <g>
        <path class="cls-3" d="m312.7,118.41c-.07,0-.09-.04-.09-.11v-.67c0-.08.02-.1.06-.15.63-.49,1.72-1.39,2.74-2.4,1.44-1.38,1.79-2.31,1.79-3.27,0-1.08-.58-1.95-1.98-1.95-.92,0-1.58.29-2.22.66-.06.04-.11.01-.11-.04v-.96c0-.08,0-.09.06-.14.71-.4,1.54-.67,2.5-.67,2.07,0,3,1.41,3,2.97,0,1.16-.4,2.27-1.78,3.63-.9.93-1.68,1.59-2.24,2.06.51-.04,1-.04,2.35-.04h2.07c.08,0,.11.01.09.07l-.22.93c-.03.07-.04.09-.12.09h-5.91Z"/>
        <path class="cls-3" d="m319.99,113.61c0-2.71,1.12-4.91,3.3-4.91,2.67,0,3.25,2.78,3.25,4.91,0,2.43-.75,4.95-3.24,4.95-2.34,0-3.32-2.22-3.32-4.95Zm1.26-.03c0,2.26.66,3.87,2.07,3.87s1.96-1.5,1.96-3.83c0-2.55-.72-3.83-2.02-3.83-1.16,0-2.01,1.2-2.01,3.78Z"/>
        <path class="cls-3" d="m327.57,118.41c-.07,0-.09-.04-.09-.11v-.67c0-.08.02-.1.06-.15.63-.49,1.72-1.39,2.74-2.4,1.44-1.38,1.79-2.31,1.79-3.27,0-1.08-.58-1.95-1.98-1.95-.92,0-1.58.29-2.22.66-.06.04-.11.01-.11-.04v-.96c0-.08,0-.09.06-.14.71-.4,1.54-.67,2.5-.67,2.07,0,3,1.41,3,2.97,0,1.16-.4,2.27-1.78,3.63-.9.93-1.68,1.59-2.24,2.06.51-.04,1-.04,2.35-.04h2.07c.08,0,.11.01.09.07l-.22.93c-.03.07-.04.09-.12.09h-5.91Z"/>
        <path class="cls-3" d="m336.55,118.41c-.09,0-.09-.03-.09-.09v-8.17c-.5.3-1.3.6-1.78.72-.08.01-.11-.01-.11-.09v-.87c0-.06,0-.09.08-.11.73-.21,1.56-.61,2.07-.94.06-.06.15-.06.21-.06h.72s.06.03.06.09v9.43c0,.06-.01.09-.08.09h-1.08Z"/>
      </g>
      <g>
        <path class="cls-3" d="m397.37,118.41c-.07,0-.09-.04-.09-.1v-.67c0-.08.02-.11.06-.15.63-.5,1.72-1.39,2.74-2.4,1.44-1.38,1.79-2.31,1.79-3.27,0-1.08-.58-1.95-1.98-1.95-.92,0-1.58.29-2.22.66-.06.04-.11.02-.11-.04v-.96c0-.08,0-.09.06-.13.71-.41,1.54-.67,2.5-.67,2.07,0,3,1.41,3,2.97,0,1.16-.4,2.26-1.78,3.63-.9.93-1.68,1.59-2.24,2.05.51-.04,1-.04,2.35-.04h2.07c.08,0,.11.01.09.08l-.22.93c-.03.08-.04.09-.12.09h-5.91Z"/>
        <path class="cls-3" d="m404.66,113.61c0-2.71,1.12-4.9,3.3-4.9,2.67,0,3.25,2.77,3.25,4.9,0,2.43-.75,4.95-3.24,4.95-2.34,0-3.32-2.22-3.32-4.95Zm1.26-.03c0,2.26.66,3.87,2.07,3.87s1.96-1.5,1.96-3.82c0-2.55-.72-3.83-2.02-3.83-1.16,0-2.01,1.2-2.01,3.78Z"/>
        <path class="cls-3" d="m412.23,118.41c-.07,0-.09-.04-.09-.1v-.67c0-.08.02-.11.06-.15.63-.5,1.72-1.39,2.74-2.4,1.44-1.38,1.79-2.31,1.79-3.27,0-1.08-.58-1.95-1.98-1.95-.92,0-1.58.29-2.22.66-.06.04-.11.02-.11-.04v-.96c0-.08,0-.09.06-.13.71-.41,1.54-.67,2.5-.67,2.07,0,3,1.41,3,2.97,0,1.16-.4,2.26-1.78,3.63-.9.93-1.68,1.59-2.24,2.05.51-.04,1-.04,2.35-.04h2.07c.08,0,.11.01.09.08l-.22.93c-.03.08-.04.09-.12.09h-5.91Z"/>
        <path class="cls-3" d="m421.34,113.94c-.08,0-.11-.03-.11-.09v-.95c0-.06.02-.1.09-.1h.56c1.32,0,2.13-.51,2.13-1.47,0-.84-.56-1.49-1.88-1.49-.78,0-1.44.18-2.16.6-.08.03-.09.02-.09-.04v-.96c0-.06,0-.09.06-.13.65-.36,1.5-.58,2.4-.58,1.88,0,2.89,1.04,2.89,2.46,0,1.2-.9,1.86-1.58,2.08.87.2,2.06.87,2.06,2.42,0,1.84-1.52,2.88-3.54,2.88-.97,0-1.8-.18-2.43-.54-.06-.03-.06-.09-.06-.15v-1.03c0-.06.04-.09.09-.06.78.45,1.52.66,2.39.66,1.62,0,2.28-.81,2.28-1.75,0-1.2-.99-1.74-2.47-1.74h-.63Z"/>
      </g>
      <polygon class="cls-3" points="168.58 102.15 167.58 102.15 167.58 57.47 49.03 57.47 49.03 102.15 48.03 102.15 48.03 56.47 168.58 56.47 168.58 102.15"/>
      <polygon class="cls-3" points="292.88 202.28 167.58 202.28 167.58 148.07 168.58 148.07 168.58 201.28 291.88 201.28 291.88 148.07 292.88 148.07 292.88 202.28"/>
      <polygon class="cls-3" points="411.77 202.35 322.64 202.35 322.64 148.14 323.64 148.14 323.64 201.35 410.77 201.35 410.77 148.14 411.77 148.14 411.77 202.35"/>
      <rect class="cls-3" x="324.23" y="55.33" width="1" height="44.45"/>
      <g>
        <path class="cls-3" d="m176.36,163.47c0,.07-.03.09-.08.09h-.91c-.06,0-.09-.03-.09-.1v-8.41c0-.05.01-.08.08-.08h.92c.05,0,.08.03.08.09v8.41Zm5.06-8.5c.09,0,.1.06.07.12l-3.81,3.99s-.03.05,0,.09l4.11,4.28c.04.05.01.12-.05.12h-1.14c-.06,0-.1-.01-.17-.08l-3.99-4.15c-.08-.08-.08-.13,0-.2l3.84-4.11s.06-.06.13-.06h1.03Z"/>
        <path class="cls-3" d="m187.18,162.46c0,.22,0,.42.03.62,0,.03,0,.04-.03.05-.94.44-1.68.56-2.43.56-1.38,0-2.42-.68-2.42-2.04s1.29-1.99,2.9-1.99c.48,0,.75.01.9.03v-.31c0-.4-.2-1.3-1.47-1.3-.62,0-1.2.14-1.65.39-.04.01-.09,0-.09-.07v-.79c0-.05.03-.08.07-.1.51-.25,1.16-.39,1.85-.39,1.66,0,2.35,1.09,2.35,2.44v2.9Zm-1.05-1.91c-.18-.03-.47-.05-.86-.05-1.26,0-1.87.43-1.87,1.16,0,.58.4,1.16,1.55,1.16.42,0,.81-.06,1.18-.22v-2.04Z"/>
        <path class="cls-3" d="m189,158.71c0-.44-.03-1.17-.05-1.39,0-.05.01-.08.08-.08h.81c.07,0,.09.03.12.08.04.12.05.36.08.65.57-.57,1.24-.86,1.99-.86.92,0,2.12.46,2.12,2.51v3.85c0,.07-.03.09-.09.09h-.91c-.06,0-.09-.03-.09-.1v-3.73c0-.99-.43-1.65-1.34-1.65-.66,0-1.21.3-1.62.79v4.6c0,.07-.01.09-.08.09h-.92c-.05,0-.08-.03-.08-.09v-4.76Z"/>
        <path class="cls-3" d="m198.67,163.38c0,.05-.01.1-.08.13-.3.13-.62.18-.98.18-.95,0-1.52-.46-1.52-1.7v-3.81h-.88c-.08-.01-.09-.04-.09-.1v-.74c0-.07.03-.09.09-.09h.88c.01-.48.06-1.38.12-1.66.01-.05.04-.08.09-.09l.88-.14c.05-.01.08,0,.08.05-.04.46-.08,1.21-.08,1.85h1.38c.05,0,.08.03.08.09v.77c0,.05-.03.08-.08.08h-1.38v3.65c0,.6.22.94.79.94.2,0,.39-.03.61-.1.04-.01.08-.01.08.05v.66Z"/>
        <path class="cls-3" d="m205.26,160.39c0,1.98-1.22,3.3-2.96,3.3-2.09,0-2.99-1.69-2.99-3.29,0-1.83,1.17-3.29,2.99-3.29s2.96,1.4,2.96,3.28Zm-4.86-.01c0,1.33.69,2.38,1.92,2.38.92,0,1.83-.73,1.83-2.34,0-1.21-.56-2.37-1.91-2.37-1.09,0-1.85.94-1.85,2.33Z"/>
        <path class="cls-3" d="m206.61,158.71c0-.44-.03-1.17-.05-1.39,0-.05.01-.08.08-.08h.81c.07,0,.09.03.12.08.04.12.05.36.08.65.57-.57,1.24-.86,1.99-.86.92,0,2.12.46,2.12,2.51v3.85c0,.07-.03.09-.09.09h-.91c-.07,0-.09-.03-.09-.1v-3.73c0-.99-.43-1.65-1.34-1.65-.66,0-1.21.3-1.62.79v4.6c0,.07-.01.09-.08.09h-.92c-.05,0-.08-.03-.08-.09v-4.76Z"/>
        <path class="cls-3" d="m215.34,158.01c-.86,0-1.14.42-1.14.81s.23.66,1.21,1.05c1.31.51,1.85,1.04,1.85,1.96,0,1.2-.97,1.86-2.33,1.86-.72,0-1.37-.16-1.74-.38-.04-.03-.07-.05-.07-.12v-.87c0-.07.04-.09.08-.07.52.36,1.18.52,1.76.52.83,0,1.23-.36,1.23-.84s-.29-.77-1.18-1.12c-1.3-.49-1.85-1.03-1.85-1.95s.79-1.75,2.21-1.75c.71,0,1.25.13,1.52.29.07.03.07.08.07.13v.79c0,.07-.04.1-.1.07-.36-.22-.96-.38-1.51-.38Z"/>
        <path class="cls-3" d="m220.46,158.01c-.86,0-1.14.42-1.14.81s.23.66,1.21,1.05c1.31.51,1.85,1.04,1.85,1.96,0,1.2-.97,1.86-2.33,1.86-.72,0-1.37-.16-1.74-.38-.04-.03-.07-.05-.07-.12v-.87c0-.07.04-.09.08-.07.52.36,1.18.52,1.75.52.83,0,1.23-.36,1.23-.84s-.29-.77-1.18-1.12c-1.3-.49-1.85-1.03-1.85-1.95s.79-1.75,2.21-1.75c.71,0,1.25.13,1.52.29.06.03.06.08.06.13v.79c0,.07-.04.1-.1.07-.36-.22-.96-.38-1.51-.38Z"/>
        <path class="cls-3" d="m227.97,163.39c0,.05,0,.08-.05.09-.43.17-.94.21-1.42.21-2.12,0-3.21-1.51-3.21-3.26,0-1.9,1.35-3.32,3.39-3.32.66,0,1.03.08,1.23.17.05.03.05.05.05.12v.82c0,.06-.04.06-.09.05-.32-.13-.66-.2-1.2-.2-1.34,0-2.29.9-2.29,2.31,0,1.56,1.08,2.33,2.29,2.33.48,0,.88-.05,1.21-.18.06-.01.08.01.08.05v.81Z"/>
        <path class="cls-3" d="m230.36,163.48c0,.07-.01.08-.08.08h-.91c-.07,0-.09-.03-.09-.09v-9.15c0-.05.01-.08.08-.08h.94c.05,0,.07.01.07.07v3.56c.55-.49,1.17-.75,1.94-.75.92,0,2.12.46,2.12,2.51v3.85c0,.07-.03.09-.09.09h-.91c-.07,0-.09-.03-.09-.1v-3.72c0-1-.43-1.66-1.34-1.66-.64,0-1.21.26-1.62.72v4.69Z"/>
        <path class="cls-3" d="m241.28,162.18c0,.69.04,1.01.08,1.3,0,.05-.01.08-.08.08h-.83c-.07,0-.08-.01-.1-.06-.04-.14-.06-.38-.08-.56-.54.56-1.23.75-1.88.75-1.11,0-2.14-.56-2.14-2.44v-3.93c0-.06.03-.08.09-.08h.92c.05,0,.06.03.06.08v3.8c0,1,.47,1.61,1.38,1.61.62,0,1.12-.23,1.51-.66v-4.75c0-.05.03-.08.09-.08h.91c.08,0,.08.03.08.08v4.86Z"/>
        <path class="cls-3" d="m243.12,154.32c0-.07.03-.08.09-.08h.91c.07,0,.08.03.08.08v7.84c0,.51.21.62.52.62.09,0,.14-.01.26-.04.04,0,.05.03.05.08v.68c0,.06-.01.08-.07.1-.12.05-.32.09-.6.09-.64,0-1.25-.22-1.25-1.44v-7.93Z"/>
        <path class="cls-3" d="m246.89,160.53c-.01,1.24.7,2.21,2.17,2.21.57,0,1.12-.1,1.62-.35.04-.03.06,0,.06.05v.74c0,.08-.03.1-.06.13-.44.22-1.01.38-1.83.38-2.25,0-3.05-1.65-3.05-3.24,0-1.82,1.07-3.34,2.87-3.34s2.54,1.51,2.54,2.61c0,.33-.03.56-.05.68,0,.04-.04.08-.09.08-.2.04-.77.05-1.34.05h-2.83Zm2.43-.81c.64,0,.79-.01.83-.03.01-.04.01-.1.01-.14,0-.47-.31-1.55-1.53-1.55-1.08,0-1.61.84-1.73,1.72h2.42Z"/>
        <path class="cls-3" d="m260.78,163.48c-.01.07-.04.08-.09.08h-4.94c-.09,0-.1-.03-.1-.1v-8.4c0-.07.03-.09.09-.09h4.75c.07,0,.08.01.09.08l.1.82c.01.05,0,.09-.07.09h-3.89v2.72h3.51c.05,0,.08.03.08.08v.83c0,.06-.04.08-.08.08h-3.51v2.91h4.13c.07,0,.08.03.07.08l-.14.83Z"/>
        <path class="cls-3" d="m262.08,158.71c0-.44-.03-1.17-.05-1.39,0-.05.01-.08.08-.08h.81c.06,0,.09.03.12.08.04.12.05.36.08.65.57-.57,1.23-.86,1.99-.86.92,0,2.12.46,2.12,2.51v3.85c0,.07-.03.09-.09.09h-.91c-.06,0-.09-.03-.09-.1v-3.73c0-.99-.43-1.65-1.34-1.65-.66,0-1.21.3-1.62.79v4.6c0,.07-.01.09-.08.09h-.92c-.05,0-.08-.03-.08-.09v-4.76Z"/>
        <path class="cls-3" d="m271.73,162.5c1.61.08,2.52.66,2.52,1.81,0,1.3-1.24,2.33-3.15,2.33s-2.87-1.01-2.87-1.98c0-.44.38-1.03,1.27-1.78-.21-.29-.31-.62-.31-.98,0-.29.08-.57.22-.82-.53-.35-.88-.94-.88-1.76,0-1.21.9-2.21,2.43-2.21.4,0,.74.05.97.1.12.03.2.03.27.03h1.83c.07,0,.08.03.08.08v.74c0,.05-.01.08-.08.08-.34,0-.88-.03-1.2-.05.23.25.46.66.46,1.26,0,1.43-1.07,2.15-2.35,2.15-.25,0-.48-.03-.71-.08-.07.16-.09.32-.07.48.03.2.1.38.23.53l1.33.07Zm-1.6.87c-.53.38-.87.92-.87,1.21,0,.6.71,1.21,1.91,1.21,1.43,0,2.07-.68,2.07-1.33,0-.77-.81-.98-1.73-1.03l-1.38-.06Zm-.53-4.06c0,.79.47,1.37,1.34,1.37.82,0,1.33-.49,1.33-1.34,0-.75-.4-1.39-1.31-1.39-.82,0-1.35.53-1.35,1.37Z"/>
        <path class="cls-3" d="m275.8,160.53c-.01,1.24.7,2.21,2.17,2.21.57,0,1.12-.1,1.62-.35.04-.03.07,0,.07.05v.74c0,.08-.03.1-.07.13-.44.22-1.01.38-1.83.38-2.25,0-3.05-1.65-3.05-3.24,0-1.82,1.07-3.34,2.87-3.34s2.54,1.51,2.54,2.61c0,.33-.03.56-.05.68,0,.04-.04.08-.09.08-.19.04-.77.05-1.34.05h-2.83Zm2.43-.81c.64,0,.79-.01.83-.03.01-.04.01-.1.01-.14,0-.47-.31-1.55-1.53-1.55-1.08,0-1.61.84-1.73,1.72h2.42Z"/>
        <path class="cls-3" d="m280.61,165.46c-.06,0-.09-.03-.06-.08.58-1.2.73-2.18.66-3.33,0-.04.03-.07.05-.07h.87c.06,0,.08.03.09.09.08,1.2-.17,2.4-.74,3.31-.01.03-.04.07-.1.07h-.77Z"/>
        <path class="cls-3" d="m175.79,169.97h1.44c.06,0,.08.03.1.08.44,1.34,2.02,6.01,2.29,7.14h.01c.3-1.08,2.03-5.81,2.47-7.14.01-.05.03-.08.09-.08h1.4c.07,0,.07.01.08.06l.44,8.45c.01.05-.03.08-.08.08h-.96c-.06,0-.09-.01-.09-.06-.12-2.99-.25-6.98-.25-7.76h-.01c-.31,1.17-2.05,6.08-2.6,7.75-.01.07-.05.08-.1.08h-.91c-.08,0-.1-.01-.12-.08-.69-2.16-2.05-6.45-2.4-7.76h-.03c-.01,1.13-.25,5.03-.39,7.76,0,.07-.03.08-.09.08h-.88c-.07,0-.08-.01-.08-.08l.57-8.44c.01-.08.04-.08.09-.08Z"/>
        <path class="cls-3" d="m190.3,177.46c0,.22,0,.42.03.62,0,.03,0,.04-.03.05-.94.44-1.68.56-2.43.56-1.38,0-2.42-.68-2.42-2.04s1.29-1.99,2.9-1.99c.48,0,.75.01.9.03v-.31c0-.4-.2-1.3-1.47-1.3-.62,0-1.2.14-1.65.39-.04.01-.09,0-.09-.07v-.79c0-.05.03-.08.06-.1.51-.25,1.16-.39,1.85-.39,1.66,0,2.35,1.09,2.35,2.44v2.9Zm-1.05-1.91c-.18-.03-.47-.05-.86-.05-1.26,0-1.87.43-1.87,1.16,0,.58.4,1.16,1.55,1.16.42,0,.81-.06,1.18-.22v-2.04Z"/>
        <path class="cls-3" d="m194.74,178.38c0,.05-.01.1-.08.13-.3.13-.62.18-.98.18-.95,0-1.52-.46-1.52-1.7v-3.81h-.88c-.08-.01-.09-.04-.09-.1v-.74c0-.07.03-.09.09-.09h.88c.01-.48.06-1.38.12-1.66.01-.05.04-.08.09-.09l.88-.14c.05-.01.08,0,.08.05-.04.46-.08,1.21-.08,1.85h1.38c.05,0,.08.03.08.09v.77c0,.05-.03.08-.08.08h-1.38v3.65c0,.6.22.94.79.94.2,0,.39-.03.61-.1.04-.01.08-.01.08.05v.66Z"/>
        <path class="cls-3" d="m200.87,177.18c0,.69.04,1.01.08,1.3,0,.05-.01.08-.08.08h-.83c-.07,0-.08-.01-.1-.06-.04-.14-.06-.38-.08-.56-.54.56-1.23.75-1.88.75-1.11,0-2.14-.56-2.14-2.44v-3.93c0-.06.03-.08.09-.08h.92c.05,0,.06.03.06.08v3.8c0,1,.47,1.61,1.38,1.61.62,0,1.12-.23,1.51-.66v-4.75c0-.05.03-.08.09-.08h.91c.08,0,.08.03.08.08v4.86Z"/>
        <path class="cls-3" d="m203.53,172.24c.08,0,.09.03.12.09.05.16.09.61.1.9.46-.62,1.26-1.12,2.09-1.12.06,0,.09.01.09.09v.94c0,.06-.01.08-.09.08-.9-.01-1.72.43-2.04.95v4.32c-.01.07-.04.08-.09.08h-.92c-.07,0-.09-.03-.09-.09v-4.49c0-.55-.03-1.3-.06-1.66,0-.05.01-.08.06-.08h.83Z"/>
        <path class="cls-3" d="m211.18,177.46c0,.22,0,.42.03.62,0,.03,0,.04-.03.05-.94.44-1.68.56-2.43.56-1.38,0-2.42-.68-2.42-2.04s1.29-1.99,2.9-1.99c.48,0,.75.01.9.03v-.31c0-.4-.2-1.3-1.47-1.3-.62,0-1.2.14-1.65.39-.04.01-.09,0-.09-.07v-.79c0-.05.03-.08.07-.1.51-.25,1.16-.39,1.85-.39,1.66,0,2.35,1.09,2.35,2.44v2.9Zm-1.05-1.91c-.18-.03-.47-.05-.86-.05-1.26,0-1.87.43-1.87,1.16,0,.58.4,1.16,1.55,1.16.42,0,.81-.06,1.18-.22v-2.04Z"/>
        <path class="cls-3" d="m212.18,180.46c-.06,0-.09-.03-.06-.08.58-1.2.73-2.18.66-3.33,0-.04.03-.07.05-.07h.87c.06,0,.08.03.09.09.08,1.2-.17,2.4-.74,3.31-.01.03-.04.07-.1.07h-.77Z"/>
        <path class="cls-3" d="m217.87,178.2c-.06-.03-.08-.08-.08-.16v-.94c0-.05.04-.08.09-.04.68.46,1.51.64,2.22.64,1.25,0,1.82-.56,1.82-1.34,0-.61-.35-1.07-1.53-1.6l-.57-.23c-1.61-.69-1.98-1.51-1.98-2.38,0-1.35,1.04-2.31,2.79-2.31.82,0,1.52.13,1.92.35.05.03.07.07.07.13v.87c0,.05-.04.09-.1.05-.46-.29-1.17-.43-1.91-.43-1.35,0-1.72.7-1.72,1.25,0,.58.34,1.03,1.5,1.52l.56.23c1.6.68,2.07,1.48,2.07,2.46,0,1.4-1.05,2.42-2.95,2.42-.9,0-1.69-.19-2.2-.49Z"/>
        <path class="cls-3" d="m228.78,178.39c0,.05,0,.08-.05.09-.43.17-.94.21-1.42.21-2.12,0-3.21-1.51-3.21-3.26,0-1.9,1.35-3.32,3.39-3.32.66,0,1.03.08,1.23.17.05.03.05.05.05.12v.82c0,.06-.04.06-.09.05-.32-.13-.66-.2-1.2-.2-1.34,0-2.29.9-2.29,2.31,0,1.56,1.08,2.33,2.29,2.33.48,0,.88-.05,1.21-.18.06-.01.08.01.08.05v.81Z"/>
        <path class="cls-3" d="m231.17,178.48c0,.07-.01.08-.08.08h-.91c-.06,0-.09-.03-.09-.09v-9.15c0-.05.01-.08.08-.08h.94c.05,0,.06.01.06.07v3.56c.55-.49,1.17-.75,1.94-.75.92,0,2.12.46,2.12,2.51v3.85c0,.07-.03.09-.09.09h-.91c-.07,0-.09-.03-.09-.1v-3.72c0-1-.43-1.66-1.34-1.66-.64,0-1.21.26-1.62.72v4.69Z"/>
        <path class="cls-3" d="m242.21,178.56c-.08,0-.1-.03-.12-.09-.96-3.45-1.21-4.52-1.35-5.13h-.01c-.23,1.04-.7,2.63-1.44,5.13-.03.08-.07.09-.13.09h-1c-.1,0-.13-.03-.14-.09l-1.69-6.14c-.03-.05,0-.09.06-.09h.98s.08.01.09.07c.96,3.58,1.18,4.77,1.27,5.23h.03c.1-.44.34-1.52,1.44-5.2.01-.07.03-.09.09-.09h1.05c.05,0,.08.03.09.08,1.05,3.77,1.23,4.72,1.34,5.23h.03c.14-.61.34-1.72,1.35-5.24.01-.04.04-.07.09-.07h.91c.05,0,.08.03.07.08l-1.86,6.16c-.03.05-.04.08-.12.08h-1.03Z"/>
        <path class="cls-3" d="m247.03,175.53c-.01,1.24.7,2.21,2.17,2.21.57,0,1.12-.1,1.62-.35.04-.03.07,0,.07.05v.74c0,.08-.03.1-.07.13-.44.22-1.01.38-1.83.38-2.25,0-3.06-1.65-3.06-3.24,0-1.82,1.07-3.34,2.87-3.34s2.54,1.51,2.54,2.61c0,.33-.03.56-.05.68,0,.04-.04.08-.09.08-.19.04-.77.05-1.34.05h-2.83Zm2.43-.81c.64,0,.79-.01.83-.03.01-.04.01-.1.01-.14,0-.47-.31-1.55-1.53-1.55-1.08,0-1.61.84-1.73,1.72h2.42Z"/>
        <path class="cls-3" d="m253.49,172.24c.08,0,.09.03.12.09.05.16.09.61.1.9.46-.62,1.26-1.12,2.09-1.12.07,0,.09.01.09.09v.94c0,.06-.01.08-.09.08-.9-.01-1.72.43-2.04.95v4.32c-.01.07-.04.08-.09.08h-.92c-.06,0-.09-.03-.09-.09v-4.49c0-.55-.03-1.3-.07-1.66,0-.05.01-.08.07-.08h.83Z"/>
        <path class="cls-3" d="m262.34,175.18c0,2.37-1.87,3.51-3.72,3.51-.3,0-.48-.03-.66-.05v2.6c0,.05,0,.08-.06.09-.3.03-.9.09-.95.1-.05,0-.06-.01-.06-.08v-8.1c0-.12-.01-.4-.03-.57,0-.01,0-.04.03-.05.46-.17,1.31-.52,2.42-.52,1.92,0,3.04,1.33,3.04,3.07Zm-4.38-1.91v4.41c.22.07.49.08.74.08,1.26,0,2.54-.78,2.54-2.51,0-1.33-.75-2.18-2.07-2.18-.46,0-.84.08-1.21.21Z"/>
        <path class="cls-3" d="m268.74,177.18c0,.69.04,1.01.08,1.3,0,.05-.01.08-.08.08h-.83c-.07,0-.08-.01-.1-.06-.04-.14-.06-.38-.08-.56-.55.56-1.23.75-1.88.75-1.1,0-2.14-.56-2.14-2.44v-3.93c0-.06.03-.08.09-.08h.92c.05,0,.07.03.07.08v3.8c0,1,.47,1.61,1.38,1.61.62,0,1.12-.23,1.51-.66v-4.75c0-.05.03-.08.09-.08h.91c.08,0,.08.03.08.08v4.86Z"/>
        <path class="cls-3" d="m270.57,173.71c0-.44-.03-1.17-.05-1.39,0-.05.01-.08.08-.08h.81c.06,0,.09.03.12.08.04.12.05.36.08.65.57-.57,1.23-.86,1.99-.86.92,0,2.12.46,2.12,2.51v3.85c0,.07-.03.09-.09.09h-.91c-.06,0-.09-.03-.09-.1v-3.73c0-.99-.43-1.65-1.34-1.65-.66,0-1.21.3-1.62.79v4.6c0,.07-.01.09-.08.09h-.92c-.05,0-.08-.03-.08-.09v-4.76Z"/>
        <path class="cls-3" d="m282.52,172.24c.06,0,.09.05.04.1-.36.4-2.33,2.3-2.81,2.77-.01.01,0,.04,0,.05.85.88,2.26,2.35,3.21,3.3.04.04.01.09-.05.09h-1.23c-.07,0-.09-.03-.13-.06-.68-.69-2.31-2.41-2.94-3.08v3.05c0,.07-.01.09-.08.09h-.91c-.08,0-.09-.03-.09-.09v-9.15c0-.05.01-.08.09-.08h.91c.05,0,.08.03.08.08v5.82c.61-.61,2.41-2.47,2.74-2.83.05-.05.08-.07.13-.07h1.04Z"/>
        <path class="cls-3" d="m286.59,178.38c0,.05-.01.1-.08.13-.3.13-.62.18-.97.18-.95,0-1.52-.46-1.52-1.7v-3.81h-.88c-.08-.01-.09-.04-.09-.1v-.74c0-.07.03-.09.09-.09h.88c.01-.48.07-1.38.12-1.66.01-.05.04-.08.09-.09l.88-.14c.05-.01.08,0,.08.05-.04.46-.08,1.21-.08,1.85h1.38c.05,0,.08.03.08.09v.77c0,.05-.03.08-.08.08h-1.38v3.65c0,.6.22.94.79.94.19,0,.39-.03.61-.1.04-.01.08-.01.08.05v.66Z"/>
        <path class="cls-3" d="m182.28,192.31h.01c.16-.71.57-2.5,1.73-7.27.01-.05.04-.08.1-.08h.92c.07,0,.09.03.08.09l-2.26,8.44c-.01.05-.04.06-.1.06h-1.04c-.08,0-.09-.01-.12-.06-.38-1.61-1.51-6.24-1.74-7.36h-.01c-.22,1.14-1.53,5.84-1.95,7.32-.01.06-.03.1-.1.1h-1c-.07,0-.09-.03-.12-.09l-2.22-8.41c-.01-.07,0-.09.07-.09h.97c.06,0,.09.01.12.06,1.31,5.29,1.65,6.66,1.75,7.28h.01c.14-.73.61-2.27,1.87-7.27.03-.07.06-.08.12-.08h1.07c.07,0,.08.03.09.08.58,2.4,1.26,5.08,1.75,7.27Z"/>
        <path class="cls-3" d="m185.98,185.33c0-.39.27-.66.66-.66.42,0,.65.29.65.66s-.26.66-.66.66-.65-.27-.65-.66Zm.1,2c0-.07.03-.09.09-.09h.92c.05,0,.08.01.08.08v6.15c0,.07-.01.09-.09.09h-.9c-.06,0-.1-.03-.1-.1v-6.12Z"/>
        <path class="cls-3" d="m189.84,187.24c.08,0,.09.03.12.09.05.16.09.61.1.9.46-.62,1.26-1.12,2.09-1.12.06,0,.09.01.09.09v.94c0,.06-.01.08-.09.08-.9-.01-1.72.43-2.04.95v4.32c-.01.07-.04.08-.09.08h-.92c-.07,0-.09-.03-.09-.09v-4.49c0-.55-.03-1.3-.06-1.66,0-.05.01-.08.06-.08h.83Z"/>
        <path class="cls-3" d="m195.17,188.01c-.86,0-1.14.42-1.14.81s.23.66,1.21,1.05c1.31.51,1.85,1.04,1.85,1.96,0,1.2-.97,1.86-2.33,1.86-.71,0-1.37-.16-1.74-.38-.04-.03-.06-.05-.06-.12v-.87c0-.07.04-.09.08-.07.52.36,1.18.52,1.75.52.83,0,1.24-.36,1.24-.84s-.29-.77-1.18-1.12c-1.3-.49-1.85-1.03-1.85-1.95s.79-1.75,2.21-1.75c.71,0,1.25.13,1.52.29.07.03.07.08.07.13v.79c0,.07-.04.1-.1.07-.36-.22-.96-.38-1.51-.38Z"/>
        <path class="cls-3" d="m202.69,193.39c0,.05,0,.08-.05.09-.43.17-.94.21-1.42.21-2.12,0-3.21-1.51-3.21-3.26,0-1.9,1.35-3.32,3.39-3.32.66,0,1.03.08,1.24.17.05.03.05.05.05.12v.82c0,.06-.04.06-.09.05-.33-.13-.66-.2-1.2-.2-1.34,0-2.29.9-2.29,2.31,0,1.56,1.08,2.33,2.29,2.33.48,0,.88-.05,1.21-.18.07-.01.08.01.08.05v.81Z"/>
        <path class="cls-3" d="m205.08,193.48c0,.07-.01.08-.08.08h-.91c-.06,0-.09-.03-.09-.09v-9.15c0-.05.01-.08.08-.08h.94c.05,0,.07.01.07.07v3.56c.55-.49,1.17-.75,1.94-.75.92,0,2.12.46,2.12,2.51v3.85c0,.07-.03.09-.09.09h-.91c-.06,0-.09-.03-.09-.1v-3.72c0-1-.43-1.66-1.34-1.66-.64,0-1.21.26-1.62.72v4.69Z"/>
        <path class="cls-3" d="m215.31,192.46c0,.22,0,.42.03.62,0,.03,0,.04-.03.05-.94.44-1.68.56-2.43.56-1.38,0-2.42-.68-2.42-2.04s1.29-1.99,2.9-1.99c.48,0,.75.01.9.03v-.31c0-.4-.2-1.3-1.47-1.3-.62,0-1.2.14-1.65.39-.04.01-.09,0-.09-.07v-.79c0-.05.03-.08.06-.1.51-.25,1.16-.39,1.85-.39,1.66,0,2.35,1.09,2.35,2.44v2.9Zm-1.05-1.91c-.18-.03-.47-.05-.86-.05-1.26,0-1.87.43-1.87,1.16,0,.58.4,1.16,1.55,1.16.42,0,.81-.06,1.18-.22v-2.04Z"/>
        <path class="cls-3" d="m220.59,187.24c0-.48.05-1.36.12-1.66.01-.05.04-.08.08-.09l.88-.13c.05-.01.09-.01.09.04-.05.46-.08,1.21-.09,1.85h1.38c.07,0,.08.03.08.09v.77c0,.05-.03.08-.08.08h-1.38v3.65c0,.6.22.94.79.94.21,0,.4-.04.65-.13.04-.01.08-.01.08.05v.66c0,.07-.01.1-.07.13-.3.16-.64.21-.99.21-.94,0-1.56-.46-1.56-1.7v-3.81h-2.25v5.29c0,.05-.01.09-.08.09h-.92c-.05,0-.08-.03-.08-.09v-5.29h-.83c-.07,0-.08-.03-.08-.08v-.79s.04-.07.08-.07h.83v-.57c0-.69.09-1.2.29-1.59.34-.65.9-.97,1.69-.97.34,0,.49.04.61.09.07.03.07.07.07.1v.79c0,.05-.03.08-.08.06-.16-.06-.35-.09-.49-.09-.6,0-1,.29-1,1.52v.65h2.26Z"/>
        <path class="cls-3" d="m231.04,189.34c.48.43,1.29,1.36,1.85,2.18.57.84.95,1.16,1.53,1.16.13,0,.27-.01.38-.04.05-.01.07,0,.07.07v.77c0,.08,0,.1-.07.13-.14.07-.32.09-.6.09-.77,0-1.3-.22-2.2-1.59-.96-1.47-2.04-2.55-2.43-2.73-.56.01-1.55.52-1.55,1.64,0,.87.66,1.66,1.88,1.66.57,0,.99-.1,1.31-.26.05-.01.06.01.06.06v.85c0,.06-.03.08-.08.1-.25.13-.7.26-1.46.26-1.61,0-2.82-.97-2.82-2.59,0-1.33.94-2.16,1.98-2.48-.39-.38-.88-.95-.88-1.75,0-1.3,1.01-2.04,2.39-2.04.62,0,1.11.09,1.43.27.04.03.05.08.05.13v.83c0,.06-.04.08-.09.05-.27-.17-.75-.33-1.37-.33-.83,0-1.35.35-1.35,1.08,0,.57.51,1.09,1.09,1.51h4.19c.06,0,.08.03.06.08l-.14.81c-.01.06-.04.08-.09.08h-3.16Z"/>
        <path class="cls-3" d="m239.28,193.56c-.05,0-.08-.01-.08-.08v-8.4c0-.06.01-.1.08-.1.73-.03,1.39-.04,2.26-.04,1.91,0,3.19.82,3.19,2.48,0,1.22-.83,1.98-1.79,2.3.44.61,2.18,3.17,2.52,3.73.03.05.03.1-.04.1h-1.09c-.08,0-.1-.01-.14-.05-.4-.61-1.48-2.28-2.13-3.28-.1-.16-.17-.21-.3-.21h-1.48v3.46c0,.05-.03.08-.08.08h-.91Zm2.38-4.49c1.24,0,1.99-.64,1.99-1.6s-.75-1.57-2.14-1.57c-.49,0-.98.01-1.24.03v3.15h1.39Z"/>
        <path class="cls-3" d="m246.98,190.53c-.01,1.24.7,2.21,2.17,2.21.57,0,1.12-.1,1.62-.35.04-.03.07,0,.07.05v.74c0,.08-.03.1-.07.13-.44.22-1.01.38-1.83.38-2.25,0-3.05-1.65-3.05-3.24,0-1.82,1.07-3.34,2.87-3.34s2.54,1.51,2.54,2.61c0,.33-.03.56-.05.68,0,.04-.04.08-.09.08-.19.04-.77.05-1.34.05h-2.83Zm2.43-.81c.64,0,.79-.01.83-.03.01-.04.01-.1.01-.14,0-.47-.31-1.55-1.53-1.55-1.08,0-1.61.84-1.73,1.72h2.42Z"/>
        <path class="cls-3" d="m256.95,193.39c0,.05,0,.08-.05.09-.43.17-.94.21-1.42.21-2.12,0-3.21-1.51-3.21-3.26,0-1.9,1.35-3.32,3.39-3.32.66,0,1.03.08,1.23.17.05.03.05.05.05.12v.82c0,.06-.04.06-.09.05-.33-.13-.66-.2-1.2-.2-1.34,0-2.29.9-2.29,2.31,0,1.56,1.08,2.33,2.29,2.33.48,0,.88-.05,1.21-.18.06-.01.08.01.08.05v.81Z"/>
        <path class="cls-3" d="m259.34,193.48c0,.07-.01.08-.08.08h-.91c-.07,0-.09-.03-.09-.09v-9.15c0-.05.01-.08.08-.08h.94c.05,0,.06.01.06.07v3.56c.55-.49,1.17-.75,1.94-.75.92,0,2.12.46,2.12,2.51v3.85c0,.07-.03.09-.09.09h-.91c-.07,0-.09-.03-.09-.1v-3.72c0-1-.43-1.66-1.34-1.66-.64,0-1.21.26-1.62.72v4.69Z"/>
        <path class="cls-3" d="m267.95,193.38c0,.05-.01.1-.08.13-.3.13-.62.18-.97.18-.95,0-1.52-.46-1.52-1.7v-3.81h-.88c-.08-.01-.09-.04-.09-.1v-.74c0-.07.03-.09.09-.09h.88c.01-.48.07-1.38.12-1.66.01-.05.04-.08.09-.09l.88-.14c.05-.01.08,0,.08.05-.04.46-.08,1.21-.08,1.85h1.38c.05,0,.08.03.08.09v.77c0,.05-.03.08-.08.08h-1.38v3.65c0,.6.22.94.79.94.19,0,.39-.03.61-.1.04-.01.08-.01.08.05v.66Z"/>
      </g>
      <g>
        <path class="cls-3" d="m55.13,74.63c0,.07-.03.09-.08.09h-.94c-.05,0-.06-.04-.06-.09v-8.42c0-.05.01-.08.08-.08h4.77c.05,0,.08.03.09.08l.09.82c.01.07-.01.09-.08.09h-3.87v2.87h3.46c.06,0,.09.03.09.08v.83c0,.05-.04.08-.09.08h-3.46v3.65Z"/>
        <path class="cls-3" d="m60.77,68.4c.08,0,.09.03.12.09.05.16.09.61.1.9.46-.62,1.26-1.12,2.09-1.12.06,0,.09.01.09.09v.94c0,.06-.01.08-.09.08-.9-.01-1.72.43-2.04.95v4.32c-.01.07-.04.08-.09.08h-.92c-.07,0-.09-.03-.09-.09v-4.49c0-.55-.03-1.3-.06-1.66,0-.05.01-.08.06-.08h.83Z"/>
        <path class="cls-3" d="m64.81,71.69c-.01,1.24.7,2.21,2.17,2.21.57,0,1.12-.1,1.62-.35.04-.03.06,0,.06.05v.74c0,.08-.03.1-.06.13-.44.22-1.01.38-1.83.38-2.25,0-3.05-1.65-3.05-3.24,0-1.82,1.07-3.34,2.87-3.34s2.54,1.51,2.54,2.61c0,.33-.03.56-.05.68,0,.04-.04.08-.09.08-.2.04-.77.05-1.34.05h-2.83Zm2.43-.81c.64,0,.79-.01.83-.03.01-.04.01-.1.01-.14,0-.47-.31-1.55-1.53-1.55-1.08,0-1.61.84-1.73,1.72h2.42Z"/>
        <path class="cls-3" d="m70.4,66.49c0-.39.27-.66.66-.66.42,0,.65.29.65.66s-.26.66-.66.66-.65-.27-.65-.66Zm.1,2c0-.07.03-.09.09-.09h.92c.05,0,.08.01.08.08v6.15c0,.07-.01.09-.09.09h-.9c-.07,0-.1-.03-.1-.1v-6.12Z"/>
        <path class="cls-3" d="m74.07,71.69c-.01,1.24.7,2.21,2.17,2.21.57,0,1.12-.1,1.62-.35.04-.03.06,0,.06.05v.74c0,.08-.03.1-.06.13-.44.22-1.01.38-1.83.38-2.25,0-3.05-1.65-3.05-3.24,0-1.82,1.07-3.34,2.87-3.34s2.54,1.51,2.54,2.61c0,.33-.03.56-.05.68,0,.04-.04.08-.09.08-.2.04-.77.05-1.34.05h-2.83Zm2.43-.81c.64,0,.79-.01.83-.03.01-.04.01-.1.01-.14,0-.47-.31-1.55-1.53-1.55-1.08,0-1.61.84-1.73,1.72h2.42Z"/>
        <path class="cls-3" d="m87.96,74.64c-.01.07-.04.08-.09.08h-4.94c-.09,0-.1-.03-.1-.1v-8.4c0-.07.03-.09.09-.09h4.75c.07,0,.08.01.09.08l.1.82c.01.05,0,.09-.06.09h-3.89v2.72h3.51c.05,0,.08.03.08.08v.83c0,.06-.04.08-.08.08h-3.51v2.91h4.13c.07,0,.08.03.07.08l-.14.83Z"/>
        <path class="cls-3" d="m90.71,74.72c-.08,0-.09-.03-.12-.06-.27-.79-1.87-5.29-2.18-6.16-.01-.05-.01-.09.05-.09h1c.07,0,.08.03.1.08,1.09,3.29,1.56,4.71,1.7,5.24h.03c.16-.53.64-1.92,1.78-5.25.03-.05.05-.07.1-.07h.9s.08.03.05.09c-.38,1.01-1.96,5.37-2.25,6.15-.03.05-.05.08-.12.08h-1.05Z"/>
        <path class="cls-3" d="m99.4,73.62c0,.22,0,.42.03.62,0,.03,0,.04-.03.05-.94.44-1.68.56-2.43.56-1.38,0-2.42-.68-2.42-2.04s1.29-1.99,2.9-1.99c.48,0,.75.01.9.03v-.31c0-.4-.2-1.3-1.47-1.3-.62,0-1.2.14-1.65.39-.04.01-.09,0-.09-.07v-.79c0-.05.03-.08.07-.1.51-.25,1.16-.39,1.85-.39,1.66,0,2.35,1.09,2.35,2.44v2.9Zm-1.05-1.91c-.18-.03-.47-.05-.86-.05-1.26,0-1.87.43-1.87,1.16,0,.58.4,1.16,1.55,1.16.42,0,.81-.06,1.18-.22v-2.04Z"/>
        <path class="cls-3" d="m101.22,69.87c0-.44-.03-1.17-.05-1.39,0-.05.01-.08.08-.08h.81c.07,0,.09.03.12.08.04.12.05.36.08.65.57-.57,1.24-.86,1.99-.86.92,0,2.12.46,2.12,2.51v3.85c0,.07-.03.09-.09.09h-.91c-.07,0-.09-.03-.09-.1v-3.73c0-.99-.43-1.65-1.34-1.65-.66,0-1.21.3-1.62.79v4.6c0,.07-.01.09-.08.09h-.92c-.05,0-.08-.03-.08-.09v-4.76Z"/>
        <path class="cls-3" d="m110.87,73.66c1.61.08,2.52.66,2.52,1.81,0,1.3-1.23,2.33-3.15,2.33s-2.87-1.01-2.87-1.98c0-.44.38-1.03,1.27-1.78-.21-.29-.31-.62-.31-.98,0-.29.08-.57.22-.82-.53-.35-.88-.94-.88-1.76,0-1.21.9-2.21,2.43-2.21.4,0,.74.05.98.1.12.03.19.03.27.03h1.83c.06,0,.08.03.08.08v.74c0,.05-.01.08-.08.08-.34,0-.88-.03-1.2-.05.23.25.46.66.46,1.26,0,1.43-1.07,2.15-2.35,2.15-.25,0-.48-.03-.71-.08-.07.16-.09.32-.07.48.03.2.1.38.23.53l1.33.07Zm-1.6.87c-.53.38-.87.92-.87,1.21,0,.6.72,1.21,1.91,1.21,1.43,0,2.07-.68,2.07-1.33,0-.77-.81-.98-1.73-1.03l-1.38-.06Zm-.53-4.06c0,.79.47,1.37,1.34,1.37.82,0,1.33-.49,1.33-1.34,0-.75-.4-1.39-1.31-1.39-.82,0-1.35.53-1.35,1.37Z"/>
        <path class="cls-3" d="m114.94,71.69c-.01,1.24.7,2.21,2.17,2.21.57,0,1.12-.1,1.62-.35.04-.03.06,0,.06.05v.74c0,.08-.03.1-.06.13-.44.22-1.01.38-1.83.38-2.25,0-3.06-1.65-3.06-3.24,0-1.82,1.07-3.34,2.87-3.34s2.54,1.51,2.54,2.61c0,.33-.03.56-.05.68,0,.04-.04.08-.09.08-.2.04-.77.05-1.34.05h-2.83Zm2.43-.81c.64,0,.79-.01.83-.03.01-.04.01-.1.01-.14,0-.47-.31-1.55-1.54-1.55-1.08,0-1.61.84-1.73,1.72h2.42Z"/>
        <path class="cls-3" d="m120.57,65.48c0-.07.03-.08.09-.08h.91c.06,0,.08.03.08.08v7.84c0,.51.21.62.52.62.09,0,.14-.01.26-.04.04,0,.05.03.05.08v.68c0,.06-.01.08-.07.1-.12.05-.33.09-.6.09-.64,0-1.25-.22-1.25-1.44v-7.93Z"/>
        <path class="cls-3" d="m123.6,66.49c0-.39.27-.66.66-.66.42,0,.65.29.65.66s-.26.66-.66.66-.65-.27-.65-.66Zm.1,2c0-.07.03-.09.09-.09h.92c.05,0,.08.01.08.08v6.15c0,.07-.01.09-.09.09h-.9c-.07,0-.1-.03-.1-.1v-6.12Z"/>
        <path class="cls-3" d="m128.47,69.17c-.86,0-1.14.42-1.14.81s.23.66,1.21,1.05c1.31.51,1.85,1.04,1.85,1.96,0,1.2-.98,1.86-2.33,1.86-.71,0-1.37-.16-1.74-.38-.04-.03-.06-.05-.06-.12v-.87c0-.07.04-.09.08-.07.52.36,1.18.52,1.75.52.83,0,1.24-.36,1.24-.84s-.29-.77-1.18-1.12c-1.3-.49-1.85-1.03-1.85-1.95s.79-1.75,2.21-1.75c.71,0,1.25.13,1.52.29.06.03.06.08.06.13v.79c0,.07-.04.1-.1.07-.36-.22-.96-.38-1.51-.38Z"/>
        <path class="cls-3" d="m135.99,74.55c0,.05,0,.08-.05.09-.43.17-.94.21-1.42.21-2.12,0-3.21-1.51-3.21-3.26,0-1.9,1.35-3.32,3.39-3.32.66,0,1.03.08,1.23.17.05.03.05.05.05.12v.82c0,.06-.04.06-.09.05-.33-.13-.66-.2-1.2-.2-1.34,0-2.29.9-2.29,2.31,0,1.56,1.08,2.33,2.29,2.33.48,0,.88-.05,1.21-.18.06-.01.08.01.08.05v.81Z"/>
        <path class="cls-3" d="m138.38,74.64c0,.07-.01.08-.08.08h-.91c-.07,0-.09-.03-.09-.09v-9.15c0-.05.01-.08.08-.08h.94c.05,0,.06.01.06.07v3.56c.55-.49,1.17-.75,1.94-.75.92,0,2.12.46,2.12,2.51v3.85c0,.07-.03.09-.09.09h-.91c-.07,0-.09-.03-.09-.1v-3.72c0-1-.43-1.66-1.34-1.66-.64,0-1.21.26-1.62.72v4.69Z"/>
        <path class="cls-3" d="m144.9,71.69c-.01,1.24.7,2.21,2.17,2.21.57,0,1.12-.1,1.62-.35.04-.03.07,0,.07.05v.74c0,.08-.03.1-.07.13-.44.22-1.01.38-1.83.38-2.25,0-3.05-1.65-3.05-3.24,0-1.82,1.07-3.34,2.87-3.34s2.54,1.51,2.54,2.61c0,.33-.03.56-.05.68,0,.04-.04.08-.09.08-.19.04-.77.05-1.34.05h-2.83Zm2.43-.81c.64,0,.79-.01.83-.03.01-.04.01-.1.01-.14,0-.47-.31-1.55-1.53-1.55-1.08,0-1.61.84-1.73,1.72h2.42Z"/>
        <path class="cls-3" d="m53.57,89.36c-.07-.03-.08-.08-.08-.16v-.94c0-.05.04-.08.09-.04.68.46,1.51.64,2.22.64,1.25,0,1.82-.56,1.82-1.34,0-.61-.35-1.07-1.53-1.6l-.57-.23c-1.61-.69-1.98-1.51-1.98-2.38,0-1.35,1.04-2.31,2.79-2.31.82,0,1.52.13,1.92.35.05.03.07.07.07.13v.87c0,.05-.04.09-.1.05-.46-.29-1.17-.43-1.91-.43-1.35,0-1.72.7-1.72,1.25,0,.58.34,1.03,1.5,1.52l.56.23c1.6.68,2.07,1.48,2.07,2.46,0,1.4-1.05,2.42-2.95,2.42-.9,0-1.69-.19-2.2-.49Z"/>
        <path class="cls-3" d="m64.47,89.55c0,.05,0,.08-.05.09-.43.17-.94.21-1.42.21-2.12,0-3.21-1.51-3.21-3.26,0-1.9,1.35-3.32,3.39-3.32.66,0,1.03.08,1.23.17.05.03.05.05.05.12v.82c0,.06-.04.06-.09.05-.33-.13-.66-.2-1.2-.2-1.34,0-2.29.9-2.29,2.31,0,1.56,1.08,2.33,2.29,2.33.48,0,.88-.05,1.21-.18.06-.01.08.01.08.05v.81Z"/>
        <path class="cls-3" d="m66.87,89.64c0,.07-.01.08-.08.08h-.91c-.07,0-.09-.03-.09-.09v-9.15c0-.05.01-.08.08-.08h.94c.05,0,.07.01.07.07v3.56c.54-.49,1.17-.75,1.94-.75.92,0,2.12.46,2.12,2.51v3.85c0,.07-.03.09-.09.09h-.91c-.07,0-.09-.03-.09-.1v-3.72c0-1-.43-1.66-1.34-1.66-.64,0-1.21.26-1.62.72v4.69Z"/>
        <path class="cls-3" d="m77.79,88.34c0,.69.04,1.01.08,1.3,0,.05-.01.08-.08.08h-.83c-.07,0-.08-.01-.1-.06-.04-.14-.07-.38-.08-.56-.55.56-1.24.75-1.89.75-1.1,0-2.15-.56-2.15-2.44v-3.93c0-.06.03-.08.09-.08h.92c.05,0,.07.03.07.08v3.8c0,1,.47,1.61,1.38,1.61.62,0,1.12-.23,1.51-.66v-4.75c0-.05.03-.08.09-.08h.91c.08,0,.08.03.08.08v4.86Z"/>
        <path class="cls-3" d="m79.62,80.48c0-.07.03-.08.09-.08h.91c.06,0,.08.03.08.08v7.84c0,.51.21.62.52.62.09,0,.14-.01.26-.04.04,0,.05.03.05.08v.68c0,.06-.01.08-.07.1-.12.05-.33.09-.6.09-.64,0-1.25-.22-1.25-1.44v-7.93Z"/>
        <path class="cls-3" d="m83.39,86.69c-.01,1.24.7,2.21,2.17,2.21.57,0,1.12-.1,1.62-.35.04-.03.06,0,.06.05v.74c0,.08-.03.1-.06.13-.44.22-1.01.38-1.83.38-2.25,0-3.06-1.65-3.06-3.24,0-1.82,1.07-3.34,2.87-3.34s2.54,1.51,2.54,2.61c0,.33-.03.56-.05.68,0,.04-.04.08-.09.08-.2.04-.77.05-1.34.05h-2.83Zm2.43-.81c.64,0,.79-.01.83-.03.01-.04.01-.1.01-.14,0-.47-.31-1.55-1.54-1.55-1.08,0-1.61.84-1.73,1.72h2.42Z"/>
        <path class="cls-3" d="m91.37,89.72c-.05,0-.09-.01-.09-.08v-.6c0-.05.01-.08.04-.13l4.98-6.8h-4.79c-.05,0-.08-.01-.06-.09l.14-.82c.01-.07.04-.08.1-.08h5.92c.07,0,.08.03.08.06v.62c0,.05-.01.1-.06.16l-4.93,6.76h5.1c.07,0,.08.03.07.09l-.17.82c-.01.05-.03.08-.09.08h-6.23Z"/>
        <path class="cls-3" d="m103.85,88.34c0,.69.04,1.01.08,1.3,0,.05-.01.08-.08.08h-.83c-.07,0-.08-.01-.1-.06-.04-.14-.07-.38-.08-.56-.55.56-1.24.75-1.89.75-1.1,0-2.15-.56-2.15-2.44v-3.93c0-.06.03-.08.09-.08h.92c.05,0,.07.03.07.08v3.8c0,1,.47,1.61,1.38,1.61.62,0,1.12-.23,1.51-.66v-4.75c0-.05.03-.08.09-.08h.91c.08,0,.08.03.08.08v4.86Zm-4.25-6.85c0-.38.26-.61.61-.61.33,0,.56.25.56.61s-.26.6-.58.6-.59-.23-.59-.6Zm2.38,0c0-.38.27-.61.6-.61s.57.25.57.61-.25.6-.58.6-.58-.23-.58-.6Z"/>
        <path class="cls-3" d="m106.52,83.4c.08,0,.09.03.12.09.05.16.09.61.1.9.46-.62,1.26-1.12,2.09-1.12.07,0,.09.01.09.09v.94c0,.06-.01.08-.09.08-.9-.01-1.72.43-2.04.95v4.32c-.01.07-.04.08-.09.08h-.92c-.06,0-.09-.03-.09-.09v-4.49c0-.55-.03-1.3-.07-1.66,0-.05.01-.08.07-.08h.83Z"/>
        <path class="cls-3" d="m109.8,81.49c0-.39.27-.66.66-.66.42,0,.65.29.65.66s-.26.66-.66.66-.65-.27-.65-.66Zm.1,2c0-.07.03-.09.09-.09h.92c.05,0,.08.01.08.08v6.15c0,.07-.01.09-.09.09h-.9c-.07,0-.1-.03-.1-.1v-6.12Z"/>
        <path class="cls-3" d="m117.06,89.55c0,.05,0,.08-.05.09-.43.17-.94.21-1.42.21-2.12,0-3.21-1.51-3.21-3.26,0-1.9,1.35-3.32,3.39-3.32.66,0,1.03.08,1.24.17.05.03.05.05.05.12v.82c0,.06-.04.06-.09.05-.33-.13-.66-.2-1.2-.2-1.34,0-2.29.9-2.29,2.31,0,1.56,1.08,2.33,2.29,2.33.48,0,.88-.05,1.21-.18.07-.01.08.01.08.05v.81Z"/>
        <path class="cls-3" d="m119.45,89.64c0,.07-.01.08-.08.08h-.91c-.06,0-.09-.03-.09-.09v-9.15c0-.05.01-.08.08-.08h.94c.05,0,.07.01.07.07v3.56c.55-.49,1.17-.75,1.94-.75.92,0,2.12.46,2.12,2.51v3.85c0,.07-.03.09-.09.09h-.91c-.06,0-.09-.03-.09-.1v-3.72c0-1-.43-1.66-1.34-1.66-.64,0-1.21.26-1.62.72v4.69Z"/>
        <path class="cls-3" d="m124.62,91.62c-.07,0-.09-.03-.07-.08.58-1.2.73-2.18.66-3.33,0-.04.03-.07.05-.07h.87c.07,0,.08.03.09.09.08,1.2-.17,2.4-.74,3.31-.01.03-.04.07-.1.07h-.77Z"/>
        <path class="cls-3" d="m130.32,89.36c-.06-.03-.08-.08-.08-.16v-.94c0-.05.04-.08.09-.04.68.46,1.51.64,2.22.64,1.25,0,1.82-.56,1.82-1.34,0-.61-.35-1.07-1.54-1.6l-.57-.23c-1.61-.69-1.98-1.51-1.98-2.38,0-1.35,1.04-2.31,2.79-2.31.82,0,1.52.13,1.92.35.05.03.06.07.06.13v.87c0,.05-.04.09-.1.05-.46-.29-1.17-.43-1.91-.43-1.35,0-1.72.7-1.72,1.25,0,.58.34,1.03,1.49,1.52l.56.23c1.6.68,2.07,1.48,2.07,2.46,0,1.4-1.05,2.42-2.95,2.42-.9,0-1.69-.19-2.2-.49Z"/>
        <path class="cls-3" d="m137.64,86.69c-.01,1.24.7,2.21,2.17,2.21.57,0,1.12-.1,1.62-.35.04-.03.07,0,.07.05v.74c0,.08-.03.1-.07.13-.44.22-1.01.38-1.83.38-2.25,0-3.06-1.65-3.06-3.24,0-1.82,1.07-3.34,2.87-3.34s2.53,1.51,2.53,2.61c0,.33-.03.56-.05.68,0,.04-.04.08-.09.08-.2.04-.77.05-1.34.05h-2.83Zm2.43-.81c.64,0,.79-.01.83-.03.01-.04.01-.1.01-.14,0-.47-.31-1.55-1.53-1.55-1.08,0-1.61.84-1.73,1.72h2.42Z"/>
        <path class="cls-3" d="m148.26,83.4c.06,0,.09.05.04.1-.36.4-2.33,2.3-2.81,2.77-.01.01,0,.04,0,.05.85.88,2.26,2.35,3.21,3.3.04.04.01.09-.05.09h-1.23c-.07,0-.09-.03-.13-.06-.68-.69-2.31-2.41-2.94-3.08v3.05c0,.07-.01.09-.08.09h-.91c-.08,0-.09-.03-.09-.09v-9.15c0-.05.01-.08.09-.08h.91c.05,0,.08.03.08.08v5.82c.61-.61,2.41-2.47,2.74-2.83.05-.05.08-.07.13-.07h1.04Z"/>
        <path class="cls-3" d="m153.51,87.02l-.94,2.63c-.01.05-.04.08-.1.08h-.88c-.06,0-.09-.04-.08-.1l2.83-7.89c.04-.1.08-.2.09-.53,0-.04.03-.06.06-.06h1.27c.05,0,.07.01.08.06l3.05,8.44c.03.05.01.09-.05.09h-.99c-.05,0-.08-.03-.1-.06l-.95-2.64h-3.3Zm3-1c-.29-.84-1.11-3.12-1.35-4h-.01c-.22.83-.84,2.57-1.34,4h2.7Z"/>
        <path class="cls-3" d="m163,83.07s.06.01.06.08v2.79h2.69c.05,0,.06.01.06.08v.65c0,.06-.03.08-.08.08h-2.68v2.82c0,.05-.01.07-.08.07h-.7c-.05,0-.06-.03-.06-.07v-2.82h-2.7s-.08-.03-.08-.08v-.66c0-.05.04-.07.08-.07h2.7v-2.81s.01-.07.06-.07h.72Z"/>
      </g>
      <g>
        <path class="cls-3" d="m286,14.82c-.06-.01-.09-.03-.09-.09v-.79c0-.05.04-.07.08-.07h2.82c.08,0,.09.03.09.08v4.12c.01.05-.01.08-.06.1-.85.34-1.7.43-2.42.43-2.95,0-4.51-1.91-4.51-4.38,0-2.73,1.91-4.47,4.68-4.47.88,0,1.6.1,2.07.33.05.03.06.06.06.13v.86c0,.06-.04.08-.08.05-.58-.3-1.3-.38-2.03-.38-2.21-.03-3.59,1.29-3.59,3.45,0,1.91,1.18,3.46,3.44,3.46.58,0,1-.07,1.34-.21v-2.59l-1.81-.03Z"/>
        <path class="cls-3" d="m291.37,15.44c-.01,1.24.7,2.21,2.17,2.21.57,0,1.12-.1,1.62-.35.04-.03.07,0,.07.05v.74c0,.08-.03.1-.07.13-.44.22-1.01.38-1.83.38-2.25,0-3.06-1.65-3.06-3.24,0-1.82,1.07-3.34,2.87-3.34s2.54,1.51,2.54,2.61c0,.32-.03.56-.05.68,0,.04-.04.08-.09.08-.19.04-.77.05-1.34.05h-2.83Zm2.43-.81c.64,0,.79-.01.83-.03.01-.04.01-.1.01-.14,0-.47-.31-1.55-1.53-1.55-1.08,0-1.61.85-1.73,1.72h2.42Z"/>
        <path class="cls-3" d="m298.94,12.92c-.86,0-1.14.42-1.14.81s.23.66,1.21,1.05c1.31.51,1.85,1.04,1.85,1.96,0,1.2-.97,1.86-2.33,1.86-.72,0-1.37-.16-1.74-.38-.04-.03-.07-.05-.07-.12v-.87c0-.06.04-.09.08-.06.52.36,1.18.52,1.76.52.83,0,1.23-.36,1.23-.84s-.29-.77-1.18-1.12c-1.3-.49-1.85-1.03-1.85-1.95s.79-1.75,2.21-1.75c.71,0,1.25.13,1.52.29.07.03.07.08.07.13v.79c0,.06-.04.1-.1.06-.36-.22-.96-.38-1.51-.38Z"/>
        <path class="cls-3" d="m304.97,18.29c0,.05-.01.1-.08.13-.3.13-.62.18-.98.18-.95,0-1.52-.46-1.52-1.7v-3.81h-.88c-.08-.01-.09-.04-.09-.1v-.74c0-.06.03-.09.09-.09h.88c.01-.48.06-1.38.12-1.66.01-.05.04-.08.09-.09l.88-.14c.05-.01.08,0,.08.05-.04.45-.08,1.21-.08,1.85h1.38c.05,0,.08.03.08.09v.77c0,.05-.03.08-.08.08h-1.38v3.65c0,.6.22.94.79.94.2,0,.39-.03.61-.1.04-.01.08-.01.08.05v.66Z"/>
        <path class="cls-3" d="m310.57,17.37c0,.22,0,.42.03.62,0,.03,0,.04-.03.05-.94.44-1.68.56-2.43.56-1.38,0-2.42-.68-2.42-2.04s1.29-1.99,2.9-1.99c.48,0,.75.01.9.03v-.31c0-.4-.2-1.3-1.47-1.3-.62,0-1.2.14-1.65.39-.04.01-.09,0-.09-.06v-.79c0-.05.03-.08.07-.1.51-.25,1.16-.39,1.85-.39,1.66,0,2.35,1.09,2.35,2.44v2.9Zm-1.05-1.91c-.18-.03-.47-.05-.86-.05-1.26,0-1.87.43-1.87,1.16,0,.58.4,1.16,1.55,1.16.42,0,.81-.07,1.18-.22v-2.04Z"/>
        <path class="cls-3" d="m312.39,9.23c0-.07.03-.08.09-.08h.91c.06,0,.08.03.08.08v7.84c0,.51.21.62.52.62.09,0,.14-.01.26-.04.04,0,.05.03.05.08v.68c0,.07-.01.08-.07.1-.12.05-.32.09-.6.09-.64,0-1.25-.22-1.25-1.44v-7.93Z"/>
        <path class="cls-3" d="m318.35,18.29c0,.05-.01.1-.08.13-.3.13-.62.18-.98.18-.95,0-1.52-.46-1.52-1.7v-3.81h-.88c-.08-.01-.09-.04-.09-.1v-.74c0-.06.03-.09.09-.09h.88c.01-.48.06-1.38.12-1.66.01-.05.04-.08.09-.09l.88-.14c.05-.01.08,0,.08.05-.04.45-.08,1.21-.08,1.85h1.38c.05,0,.08.03.08.09v.77c0,.05-.03.08-.08.08h-1.38v3.65c0,.6.22.94.79.94.2,0,.39-.03.61-.1.04-.01.08-.01.08.05v.66Z"/>
        <path class="cls-3" d="m320.08,15.44c-.01,1.24.7,2.21,2.17,2.21.57,0,1.12-.1,1.62-.35.04-.03.07,0,.07.05v.74c0,.08-.03.1-.07.13-.44.22-1.01.38-1.83.38-2.25,0-3.05-1.65-3.05-3.24,0-1.82,1.07-3.34,2.87-3.34s2.54,1.51,2.54,2.61c0,.32-.03.56-.05.68,0,.04-.04.08-.09.08-.19.04-.77.05-1.34.05h-2.83Zm2.43-.81c.64,0,.79-.01.83-.03.01-.04.01-.1.01-.14,0-.47-.31-1.55-1.53-1.55-1.08,0-1.61.85-1.73,1.72h2.42Z"/>
        <path class="cls-3" d="m326.54,12.15c.08,0,.09.03.12.09.05.16.09.61.1.9.46-.62,1.26-1.12,2.09-1.12.07,0,.09.01.09.09v.94c0,.07-.01.08-.09.08-.9-.01-1.72.43-2.04.95v4.32c-.01.06-.04.08-.09.08h-.92c-.06,0-.09-.03-.09-.09v-4.49c0-.55-.03-1.3-.07-1.66,0-.05.01-.08.07-.08h.83Z"/>
        <path class="cls-3" d="m329.83,10.24c0-.39.27-.66.66-.66.42,0,.65.29.65.66s-.26.66-.66.66-.65-.27-.65-.66Zm.1,2c0-.06.03-.09.09-.09h.92c.05,0,.08.01.08.08v6.15c0,.06-.01.09-.09.09h-.9c-.06,0-.1-.03-.1-.1v-6.12Z"/>
        <path class="cls-3" d="m334.7,12.92c-.86,0-1.14.42-1.14.81s.23.66,1.21,1.05c1.31.51,1.85,1.04,1.85,1.96,0,1.2-.97,1.86-2.33,1.86-.72,0-1.37-.16-1.74-.38-.04-.03-.07-.05-.07-.12v-.87c0-.06.04-.09.08-.06.52.36,1.18.52,1.76.52.83,0,1.23-.36,1.23-.84s-.29-.77-1.18-1.12c-1.3-.49-1.85-1.03-1.85-1.95s.79-1.75,2.21-1.75c.71,0,1.25.13,1.52.29.07.03.07.08.07.13v.79c0,.06-.04.1-.1.06-.36-.22-.96-.38-1.51-.38Z"/>
        <path class="cls-3" d="m342.21,18.3c0,.05,0,.08-.05.09-.43.17-.94.21-1.42.21-2.12,0-3.21-1.51-3.21-3.26,0-1.9,1.35-3.31,3.39-3.31.66,0,1.03.08,1.24.17.05.03.05.05.05.12v.82c0,.07-.04.07-.09.05-.33-.13-.66-.2-1.2-.2-1.34,0-2.29.9-2.29,2.31,0,1.56,1.08,2.33,2.29,2.33.48,0,.88-.05,1.21-.18.07-.01.08.01.08.05v.81Z"/>
        <path class="cls-3" d="m344.6,18.39c0,.06-.01.08-.08.08h-.91c-.06,0-.09-.03-.09-.09v-9.15c0-.05.01-.08.08-.08h.94c.05,0,.06.01.06.06v3.56c.55-.49,1.17-.75,1.94-.75.92,0,2.12.46,2.12,2.51v3.85c0,.06-.03.09-.09.09h-.91c-.06,0-.09-.03-.09-.1v-3.72c0-1-.43-1.66-1.34-1.66-.64,0-1.21.26-1.62.71v4.69Z"/>
        <path class="cls-3" d="m351.13,15.44c-.01,1.24.7,2.21,2.17,2.21.57,0,1.12-.1,1.62-.35.04-.03.06,0,.06.05v.74c0,.08-.03.1-.06.13-.44.22-1.01.38-1.83.38-2.25,0-3.06-1.65-3.06-3.24,0-1.82,1.07-3.34,2.87-3.34s2.54,1.51,2.54,2.61c0,.32-.03.56-.05.68,0,.04-.04.08-.09.08-.2.04-.77.05-1.34.05h-2.83Zm2.43-.81c.64,0,.79-.01.83-.03.01-.04.01-.1.01-.14,0-.47-.31-1.55-1.54-1.55-1.08,0-1.61.85-1.73,1.72h2.42Z"/>
        <path class="cls-3" d="m358.7,12.92c-.86,0-1.14.42-1.14.81s.23.66,1.21,1.05c1.31.51,1.85,1.04,1.85,1.96,0,1.2-.98,1.86-2.33,1.86-.71,0-1.37-.16-1.74-.38-.04-.03-.06-.05-.06-.12v-.87c0-.06.04-.09.08-.06.52.36,1.18.52,1.75.52.83,0,1.24-.36,1.24-.84s-.29-.77-1.18-1.12c-1.3-.49-1.85-1.03-1.85-1.95s.79-1.75,2.21-1.75c.71,0,1.25.13,1.52.29.07.03.07.08.07.13v.79c0,.06-.04.1-.1.06-.36-.22-.96-.38-1.51-.38Z"/>
        <path class="cls-3" d="m283.34,24.98c0-.05.01-.09.07-.09.42-.01,1.27-.04,2.14-.04,2.3,0,3.32,1.3,3.32,2.76,0,1.98-1.56,2.9-3.45,2.9-.55,0-.71-.01-1-.01v2.89c0,.06-.01.09-.08.09h-.92c-.05,0-.08-.03-.08-.08v-8.41Zm1.08,4.54c.22.01.44.01.99.01,1.27,0,2.38-.48,2.38-1.9,0-1.18-.91-1.82-2.22-1.82-.53,0-.94.01-1.14.03v3.68Z"/>
        <path class="cls-3" d="m290.94,27.15c.08,0,.09.03.12.09.05.16.09.61.1.9.46-.62,1.26-1.12,2.09-1.12.07,0,.09.01.09.09v.94c0,.07-.01.08-.09.08-.9-.01-1.71.43-2.04.95v4.32c-.01.06-.04.08-.09.08h-.92c-.06,0-.09-.03-.09-.09v-4.49c0-.55-.03-1.3-.07-1.66,0-.05.01-.08.07-.08h.83Z"/>
        <path class="cls-3" d="m299.84,30.3c0,1.98-1.22,3.3-2.96,3.3-2.09,0-2.99-1.69-2.99-3.29,0-1.83,1.17-3.29,2.99-3.29s2.96,1.4,2.96,3.28Zm-4.86-.01c0,1.33.69,2.38,1.92,2.38.92,0,1.83-.73,1.83-2.34,0-1.21-.56-2.37-1.91-2.37-1.09,0-1.85.94-1.85,2.33Z"/>
        <path class="cls-3" d="m306.65,30.09c0,2.37-1.87,3.51-3.72,3.51-.3,0-.48-.03-.66-.05v2.6c0,.05,0,.08-.07.09-.3.03-.9.09-.95.1-.05,0-.06-.01-.06-.08v-8.1c0-.12-.01-.4-.03-.57,0-.01,0-.04.03-.05.46-.17,1.31-.52,2.42-.52,1.92,0,3.04,1.33,3.04,3.07Zm-4.38-1.91v4.41c.22.06.49.08.74.08,1.26,0,2.54-.78,2.54-2.51,0-1.33-.75-2.18-2.07-2.18-.46,0-.84.08-1.21.21Z"/>
        <path class="cls-3" d="m312.48,32.37c0,.22,0,.42.03.62,0,.03,0,.04-.03.05-.94.44-1.68.56-2.43.56-1.38,0-2.42-.68-2.42-2.04s1.29-1.99,2.9-1.99c.48,0,.75.01.9.03v-.31c0-.4-.2-1.3-1.47-1.3-.62,0-1.2.14-1.65.39-.04.01-.09,0-.09-.06v-.79c0-.05.03-.08.07-.1.51-.25,1.16-.39,1.85-.39,1.66,0,2.35,1.09,2.35,2.44v2.9Zm-3.95-7.14c0-.38.26-.61.61-.61.32,0,.56.25.56.61s-.26.6-.58.6-.58-.23-.58-.6Zm2.9,5.23c-.18-.03-.47-.05-.86-.05-1.26,0-1.87.43-1.87,1.16,0,.58.4,1.16,1.55,1.16.42,0,.81-.07,1.18-.22v-2.04Zm-.52-5.23c0-.38.27-.61.6-.61s.57.25.57.61-.25.6-.58.6-.58-.23-.58-.6Z"/>
        <path class="cls-3" d="m313.79,30.36c0-1.91,1.42-3.34,3.54-3.34.36,0,.57.04.82.08v-2.87c0-.07.03-.08.08-.08h.94c.07,0,.08.03.08.06v8.19c0,.18,0,.4.03.62,0,.05-.01.07-.07.09-.74.35-1.47.48-2.2.48-1.81,0-3.21-1.09-3.21-3.24Zm4.35-2.28c-.21-.09-.52-.13-.84-.13-1.48,0-2.41,1-2.41,2.35,0,1.69,1.07,2.34,2.21,2.34.34,0,.74-.04,1.04-.17v-4.39Z"/>
        <path class="cls-3" d="m321.69,30.44c-.01,1.24.7,2.21,2.17,2.21.57,0,1.12-.1,1.62-.35.04-.03.06,0,.06.05v.74c0,.08-.03.1-.06.13-.44.22-1.01.38-1.83.38-2.25,0-3.06-1.65-3.06-3.24,0-1.82,1.07-3.34,2.87-3.34s2.54,1.51,2.54,2.61c0,.32-.03.56-.05.68,0,.04-.04.08-.09.08-.2.04-.77.05-1.34.05h-2.83Zm2.43-.81c.64,0,.79-.01.83-.03.01-.04.01-.1.01-.14,0-.47-.31-1.55-1.54-1.55-1.08,0-1.61.85-1.73,1.72h2.42Z"/>
        <path class="cls-3" d="m332.35,32.09c0,.69.04,1.01.08,1.3,0,.05-.01.08-.08.08h-.83c-.06,0-.08-.01-.1-.07-.04-.14-.06-.38-.08-.56-.55.56-1.23.75-1.88.75-1.11,0-2.15-.56-2.15-2.44v-3.93c0-.07.03-.08.09-.08h.92c.05,0,.06.03.06.08v3.8c0,1,.47,1.61,1.38,1.61.62,0,1.12-.23,1.51-.66v-4.75c0-.05.03-.08.09-.08h.91c.08,0,.08.03.08.08v4.86Z"/>
        <path class="cls-3" d="m337.03,33.29c0,.05-.01.1-.08.13-.3.13-.62.18-.98.18-.95,0-1.52-.46-1.52-1.7v-3.81h-.88c-.08-.01-.09-.04-.09-.1v-.74c0-.06.03-.09.09-.09h.88c.01-.48.07-1.38.12-1.66.01-.05.04-.08.09-.09l.88-.14c.05-.01.08,0,.08.05-.04.45-.08,1.21-.08,1.85h1.38c.05,0,.08.03.08.09v.77c0,.05-.03.08-.08.08h-1.38v3.65c0,.6.22.94.79.94.2,0,.39-.03.61-.1.04-.01.08-.01.08.05v.66Z"/>
        <path class="cls-3" d="m338.11,25.24c0-.39.27-.66.66-.66.42,0,.65.29.65.66s-.26.66-.66.66-.65-.27-.65-.66Zm.1,2c0-.06.03-.09.09-.09h.92c.05,0,.08.01.08.08v6.15c0,.06-.01.09-.09.09h-.9c-.06,0-.1-.03-.1-.1v-6.12Z"/>
        <path class="cls-3" d="m346.13,27.15c.07,0,.09.05.04.1-.36.4-2.33,2.3-2.81,2.77-.01.01,0,.04,0,.05.84.88,2.26,2.35,3.21,3.3.04.04.01.09-.05.09h-1.23c-.07,0-.09-.03-.13-.07-.68-.69-2.31-2.41-2.94-3.08v3.06c0,.06-.01.09-.08.09h-.91c-.08,0-.09-.03-.09-.09v-9.15c0-.05.01-.08.09-.08h.91c.05,0,.08.03.08.08v5.82c.61-.61,2.4-2.47,2.74-2.83.05-.05.08-.06.13-.06h1.04Z"/>
        <path class="cls-3" d="m352.02,32.09c0,.69.04,1.01.08,1.3,0,.05-.01.08-.08.08h-.83c-.07,0-.08-.01-.1-.07-.04-.14-.07-.38-.08-.56-.55.56-1.24.75-1.89.75-1.1,0-2.14-.56-2.14-2.44v-3.93c0-.07.03-.08.09-.08h.92c.05,0,.07.03.07.08v3.8c0,1,.47,1.61,1.38,1.61.62,0,1.12-.23,1.51-.66v-4.75c0-.05.03-.08.09-.08h.91c.08,0,.08.03.08.08v4.86Z"/>
        <path class="cls-3" d="m353.93,33.47c-.07,0-.08-.03-.08-.09v-4.86c0-.57-.03-1.04-.05-1.29,0-.05.01-.08.08-.08h.82c.05,0,.08.03.1.06.04.13.06.42.08.62.6-.56,1.23-.82,1.95-.82.78,0,1.37.3,1.73.95.55-.53,1.22-.95,2.17-.95s2.11.51,2.11,2.48v3.89c0,.05-.03.08-.09.08h-.9c-.07,0-.09-.03-.09-.09v-3.8c0-.88-.4-1.6-1.33-1.6-.65,0-1.18.29-1.6.75.04.16.07.52.07.83v3.81c0,.06-.03.09-.09.09h-.91c-.06,0-.09-.03-.09-.09v-3.84c0-.99-.46-1.56-1.3-1.56-.61,0-1.08.23-1.57.73v4.68c0,.05-.01.08-.08.08h-.92Z"/>
        <path class="cls-3" d="m363.96,35.37c-.07,0-.09-.03-.07-.08.59-1.2.73-2.18.66-3.33,0-.04.03-.07.05-.07h.87c.07,0,.08.03.09.09.08,1.2-.17,2.41-.74,3.32-.01.03-.04.06-.1.06h-.77Z"/>
        <path class="cls-3" d="m311.24,48.47c-.05,0-.09-.01-.09-.08v-.6c0-.05.01-.08.04-.13l4.98-6.8h-4.78c-.05,0-.08-.01-.06-.09l.14-.82c.01-.06.04-.08.1-.08h5.92c.06,0,.08.03.08.07v.62c0,.05-.01.1-.07.16l-4.93,6.76h5.1c.06,0,.08.03.06.09l-.17.82c-.01.05-.03.08-.09.08h-6.23Z"/>
        <path class="cls-3" d="m324.44,48.47c-.07,0-.09-.01-.09-.08v-3.93h-4.3v3.91c0,.05-.03.09-.09.09h-.91c-.06,0-.09-.03-.09-.09v-8.41c0-.06.03-.09.09-.09h.91c.07,0,.09.03.09.08v3.52h4.3v-3.52c0-.05.03-.08.08-.08h.95s.06.03.06.08v8.44c0,.06-.03.08-.08.08h-.92Z"/>
        <path class="cls-3" d="m326.88,45.36c0-1.91,1.42-3.34,3.54-3.34.36,0,.57.04.82.08v-2.87c0-.07.03-.08.08-.08h.94c.06,0,.08.03.08.06v8.19c0,.18,0,.4.03.62,0,.05-.01.07-.06.09-.74.35-1.47.48-2.2.48-1.81,0-3.21-1.09-3.21-3.24Zm4.36-2.28c-.21-.09-.52-.13-.85-.13-1.48,0-2.4,1-2.4,2.35,0,1.69,1.07,2.34,2.21,2.34.34,0,.74-.04,1.04-.17v-4.39Z"/>
        <path class="cls-3" d="m335.25,48.38c0,.06-.03.09-.08.09h-.91c-.06,0-.09-.03-.09-.1v-8.41c0-.05.01-.08.08-.08h.92c.05,0,.08.03.08.09v8.41Zm5.06-8.5c.09,0,.1.07.07.12l-3.81,3.99s-.03.05,0,.09l4.11,4.28c.04.05.01.12-.05.12h-1.14c-.07,0-.1-.01-.17-.08l-3.99-4.15c-.08-.08-.08-.13,0-.19l3.83-4.11s.06-.07.13-.07h1.03Z"/>
      </g>
      <g>
        <path class="cls-3" d="m385.48,77.41c0-1.91,1.42-3.34,3.54-3.34.36,0,.57.04.82.08v-2.87c0-.07.03-.08.08-.08h.94c.06,0,.08.03.08.07v8.19c0,.18,0,.4.03.62,0,.05-.01.06-.06.09-.74.35-1.47.48-2.2.48-1.81,0-3.21-1.09-3.21-3.24Zm4.35-2.28c-.21-.09-.52-.13-.84-.13-1.48,0-2.41,1-2.41,2.35,0,1.69,1.07,2.34,2.21,2.34.34,0,.74-.04,1.04-.17v-4.39Z"/>
        <path class="cls-3" d="m397.68,79.13c0,.69.04,1.01.08,1.3,0,.05-.01.08-.08.08h-.83c-.06,0-.08-.01-.1-.06-.04-.14-.07-.38-.08-.56-.55.56-1.24.75-1.88.75-1.11,0-2.15-.56-2.15-2.44v-3.93c0-.06.03-.08.09-.08h.92c.05,0,.06.03.06.08v3.8c0,1,.47,1.61,1.38,1.61.62,0,1.12-.23,1.51-.66v-4.75c0-.05.03-.08.09-.08h.91c.08,0,.08.03.08.08v4.86Z"/>
        <path class="cls-3" d="m400.34,74.19c.08,0,.09.03.12.09.05.16.09.61.1.9.46-.62,1.26-1.12,2.09-1.12.07,0,.09.01.09.09v.94c0,.06-.01.08-.09.08-.9-.01-1.72.43-2.04.95v4.32c-.01.07-.04.08-.09.08h-.92c-.06,0-.09-.03-.09-.09v-4.49c0-.55-.03-1.3-.07-1.66,0-.05.01-.08.07-.08h.83Z"/>
        <path class="cls-3" d="m407.97,80.34c0,.05,0,.08-.05.09-.43.17-.94.21-1.42.21-2.12,0-3.21-1.51-3.21-3.26,0-1.9,1.35-3.32,3.39-3.32.66,0,1.03.08,1.24.17.05.03.05.05.05.12v.82c0,.06-.04.06-.09.05-.33-.13-.66-.2-1.2-.2-1.34,0-2.29.9-2.29,2.31,0,1.56,1.08,2.33,2.29,2.33.48,0,.88-.05,1.21-.18.07-.01.08.01.08.05v.81Z"/>
        <path class="cls-3" d="m410.36,80.43c0,.07-.01.08-.08.08h-.91c-.06,0-.09-.03-.09-.09v-9.15c0-.05.01-.08.08-.08h.94c.05,0,.06.01.06.07v3.56c.55-.49,1.17-.75,1.94-.75.92,0,2.12.46,2.12,2.51v3.85c0,.07-.03.09-.09.09h-.91c-.07,0-.09-.03-.09-.1v-3.72c0-1-.43-1.66-1.34-1.66-.64,0-1.21.26-1.62.72v4.69Z"/>
        <path class="cls-3" d="m418.02,74.96c-.86,0-1.14.42-1.14.81s.23.66,1.21,1.05c1.31.51,1.85,1.04,1.85,1.96,0,1.2-.97,1.86-2.33,1.86-.72,0-1.37-.16-1.74-.38-.04-.03-.07-.05-.07-.12v-.87c0-.07.04-.09.08-.07.52.36,1.18.52,1.76.52.83,0,1.23-.36,1.23-.84s-.29-.77-1.18-1.12c-1.3-.49-1.85-1.03-1.85-1.95s.79-1.75,2.21-1.75c.71,0,1.25.13,1.52.29.07.03.07.08.07.13v.79c0,.07-.04.1-.1.07-.36-.22-.96-.38-1.51-.38Z"/>
        <path class="cls-3" d="m424.05,80.33c0,.05-.01.1-.08.13-.3.13-.62.18-.97.18-.95,0-1.52-.46-1.52-1.7v-3.81h-.88c-.08-.01-.09-.04-.09-.1v-.74c0-.07.03-.09.09-.09h.88c.01-.48.06-1.38.12-1.66.01-.05.04-.08.09-.09l.88-.14c.05-.01.08,0,.08.05-.04.46-.08,1.21-.08,1.85h1.38c.05,0,.08.03.08.09v.77c0,.05-.03.08-.08.08h-1.38v3.65c0,.6.22.94.79.94.2,0,.39-.03.61-.1.04-.01.08-.01.08.05v.66Z"/>
        <path class="cls-3" d="m429.65,79.41c0,.22,0,.42.03.62,0,.03,0,.04-.03.05-.94.44-1.68.56-2.43.56-1.38,0-2.42-.68-2.42-2.04s1.29-1.99,2.9-1.99c.48,0,.75.01.9.03v-.31c0-.4-.19-1.3-1.47-1.3-.62,0-1.2.14-1.65.39-.04.01-.09,0-.09-.07v-.79c0-.05.03-.08.07-.1.51-.25,1.16-.39,1.85-.39,1.66,0,2.35,1.09,2.35,2.44v2.9Zm-1.05-1.91c-.18-.03-.47-.05-.86-.05-1.26,0-1.87.43-1.87,1.16,0,.58.4,1.16,1.55,1.16.42,0,.81-.06,1.18-.22v-2.04Z"/>
        <path class="cls-3" d="m432.31,74.19c.08,0,.09.03.12.09.05.16.09.61.1.9.46-.62,1.26-1.12,2.09-1.12.06,0,.09.01.09.09v.94c0,.06-.01.08-.09.08-.9-.01-1.72.43-2.04.95v4.32c-.01.07-.04.08-.09.08h-.92c-.07,0-.09-.03-.09-.09v-4.49c0-.55-.03-1.3-.06-1.66,0-.05.01-.08.06-.08h.83Z"/>
        <path class="cls-3" d="m438.94,80.33c0,.05-.01.1-.08.13-.3.13-.62.18-.98.18-.95,0-1.52-.46-1.52-1.7v-3.81h-.88c-.08-.01-.09-.04-.09-.1v-.74c0-.07.03-.09.09-.09h.88c.01-.48.06-1.38.12-1.66.01-.05.04-.08.09-.09l.88-.14c.05-.01.08,0,.08.05-.04.46-.08,1.21-.08,1.85h1.38c.05,0,.08.03.08.09v.77c0,.05-.03.08-.08.08h-1.38v3.65c0,.6.22.94.79.94.2,0,.39-.03.61-.1.04-.01.08-.01.08.05v.66Z"/>
        <path class="cls-3" d="m440.12,79.93c0-.4.29-.7.7-.7s.69.3.69.7c0,.43-.26.71-.69.71s-.7-.27-.7-.71Z"/>
        <path class="cls-3" d="m368.35,92.81l-.94,2.63c-.01.05-.04.08-.1.08h-.88c-.06,0-.09-.04-.08-.1l2.83-7.89c.04-.1.08-.2.09-.53,0-.04.03-.06.06-.06h1.27c.05,0,.07.01.08.06l3.06,8.44c.03.05.01.09-.05.09h-.99c-.05,0-.08-.03-.1-.06l-.95-2.64h-3.3Zm3-1c-.29-.84-1.11-3.12-1.35-4h-.01c-.22.83-.85,2.57-1.34,4h2.7Z"/>
        <path class="cls-3" d="m375.68,89.19c.08,0,.09.03.12.09.05.16.09.61.1.9.46-.62,1.26-1.12,2.09-1.12.06,0,.09.01.09.09v.94c0,.06-.01.08-.09.08-.9-.01-1.72.43-2.04.95v4.32c-.01.07-.04.08-.09.08h-.92c-.07,0-.09-.03-.09-.09v-4.49c0-.55-.03-1.3-.06-1.66,0-.05.01-.08.06-.08h.83Z"/>
        <path class="cls-3" d="m380.14,86.19c.07,0,.09,0,.09.08v3.05c.42-.17.88-.26,1.4-.26,1.79,0,2.96,1.29,2.96,3.04,0,2.34-1.77,3.54-3.6,3.54-.65,0-1.22-.08-1.78-.26-.05-.01-.08-.06-.08-.12v-9c0-.07.03-.08.09-.08h.91Zm1.33,3.82c-.56,0-.91.09-1.23.22v4.37c.25.08.51.1.86.1,1.25,0,2.41-.83,2.41-2.51,0-1.33-.78-2.18-2.03-2.18Z"/>
        <path class="cls-3" d="m386.7,92.48c-.01,1.24.7,2.21,2.17,2.21.57,0,1.12-.1,1.62-.35.04-.03.06,0,.06.05v.74c0,.08-.03.1-.06.13-.44.22-1.01.38-1.83.38-2.25,0-3.06-1.65-3.06-3.24,0-1.82,1.07-3.34,2.87-3.34s2.54,1.51,2.54,2.61c0,.33-.03.56-.05.68,0,.04-.04.08-.09.08-.2.04-.77.05-1.34.05h-2.83Zm2.43-.81c.64,0,.79-.01.83-.03.01-.04.01-.1.01-.14,0-.47-.31-1.55-1.54-1.55-1.08,0-1.61.84-1.73,1.72h2.42Z"/>
        <path class="cls-3" d="m392.29,87.28c0-.39.27-.66.66-.66.42,0,.65.29.65.66s-.26.66-.66.66-.65-.27-.65-.66Zm.1,2c0-.07.03-.09.09-.09h.92c.05,0,.08.01.08.08v6.15c0,.07-.01.09-.09.09h-.9c-.06,0-.1-.03-.1-.1v-6.12Z"/>
        <path class="cls-3" d="m398.14,95.33c0,.05-.01.1-.08.13-.3.13-.62.18-.98.18-.95,0-1.52-.46-1.52-1.7v-3.81h-.88c-.08-.01-.09-.04-.09-.1v-.74c0-.07.03-.09.09-.09h.88c.01-.48.06-1.38.12-1.66.01-.05.04-.08.09-.09l.88-.14c.05-.01.08,0,.08.05-.04.46-.08,1.21-.08,1.85h1.38c.05,0,.08.03.08.09v.77c0,.05-.03.08-.08.08h-1.38v3.65c0,.6.22.94.79.94.2,0,.39-.03.61-.1.04-.01.08-.01.08.05v.66Z"/>
        <path class="cls-3" d="m401.28,89.96c-.86,0-1.14.42-1.14.81s.23.66,1.21,1.05c1.31.51,1.85,1.04,1.85,1.96,0,1.2-.97,1.86-2.33,1.86-.72,0-1.37-.16-1.74-.38-.04-.03-.07-.05-.07-.12v-.87c0-.07.04-.09.08-.07.52.36,1.18.52,1.76.52.83,0,1.23-.36,1.23-.84s-.29-.77-1.18-1.12c-1.3-.49-1.85-1.03-1.85-1.95s.79-1.75,2.21-1.75c.71,0,1.25.13,1.52.29.07.03.07.08.07.13v.79c0,.07-.04.1-.1.07-.36-.22-.96-.38-1.51-.38Z"/>
        <path class="cls-3" d="m404.38,87.28c0-.39.27-.66.66-.66.42,0,.65.29.65.66s-.26.66-.66.66-.65-.27-.65-.66Zm.1,2c0-.07.03-.09.09-.09h.92c.05,0,.08.01.08.08v6.15c0,.07-.01.09-.09.09h-.9c-.07,0-.1-.03-.1-.1v-6.12Z"/>
        <path class="cls-3" d="m407.41,90.66c0-.44-.03-1.17-.05-1.39,0-.05.01-.08.08-.08h.81c.06,0,.09.03.12.08.04.12.05.36.08.65.57-.57,1.23-.86,1.99-.86.92,0,2.12.46,2.12,2.51v3.85c0,.07-.03.09-.09.09h-.91c-.07,0-.09-.03-.09-.1v-3.73c0-.99-.43-1.65-1.34-1.65-.66,0-1.21.3-1.62.79v4.6c0,.07-.01.09-.08.09h-.92c-.05,0-.08-.03-.08-.09v-4.76Z"/>
        <path class="cls-3" d="m417.08,95.33c0,.05-.01.1-.08.13-.3.13-.62.18-.97.18-.95,0-1.52-.46-1.52-1.7v-3.81h-.88c-.08-.01-.09-.04-.09-.1v-.74c0-.07.03-.09.09-.09h.88c.01-.48.07-1.38.12-1.66.01-.05.04-.08.09-.09l.88-.14c.05-.01.08,0,.08.05-.04.46-.08,1.21-.08,1.85h1.38c.05,0,.08.03.08.09v.77c0,.05-.03.08-.08.08h-1.38v3.65c0,.6.22.94.79.94.2,0,.39-.03.61-.1.04-.01.08-.01.08.05v.66Z"/>
        <path class="cls-3" d="m418.81,92.48c-.01,1.24.7,2.21,2.17,2.21.57,0,1.12-.1,1.62-.35.04-.03.06,0,.06.05v.74c0,.08-.03.1-.06.13-.44.22-1.01.38-1.83.38-2.25,0-3.05-1.65-3.05-3.24,0-1.82,1.07-3.34,2.87-3.34s2.54,1.51,2.54,2.61c0,.33-.03.56-.05.68,0,.04-.04.08-.09.08-.2.04-.77.05-1.34.05h-2.83Zm2.43-.81c.64,0,.79-.01.83-.03.01-.04.01-.1.01-.14,0-.47-.31-1.55-1.53-1.55-1.08,0-1.61.84-1.73,1.72h2.42Z"/>
        <path class="cls-3" d="m427.3,94.45c1.61.08,2.52.66,2.52,1.81,0,1.3-1.24,2.33-3.15,2.33s-2.87-1.01-2.87-1.98c0-.44.38-1.03,1.27-1.78-.21-.29-.31-.62-.31-.98,0-.29.08-.57.22-.82-.53-.35-.88-.94-.88-1.76,0-1.21.9-2.21,2.43-2.21.4,0,.74.05.97.1.12.03.2.03.27.03h1.83c.07,0,.08.03.08.08v.74c0,.05-.01.08-.08.08-.34,0-.88-.03-1.2-.05.23.25.46.66.46,1.26,0,1.43-1.07,2.15-2.35,2.15-.25,0-.48-.03-.71-.08-.06.16-.09.32-.06.48.03.2.1.38.23.53l1.33.07Zm-1.6.87c-.53.38-.87.92-.87,1.21,0,.6.71,1.21,1.91,1.21,1.43,0,2.07-.68,2.07-1.33,0-.77-.81-.98-1.73-1.03l-1.38-.06Zm-.53-4.06c0,.79.47,1.37,1.34,1.37.82,0,1.33-.49,1.33-1.34,0-.75-.4-1.39-1.31-1.39-.82,0-1.35.53-1.35,1.37Z"/>
        <path class="cls-3" d="m431.62,89.19c.08,0,.09.03.12.09.05.16.09.61.1.9.46-.62,1.26-1.12,2.09-1.12.06,0,.09.01.09.09v.94c0,.06-.01.08-.09.08-.9-.01-1.72.43-2.04.95v4.32c-.01.07-.04.08-.09.08h-.92c-.07,0-.09-.03-.09-.09v-4.49c0-.55-.03-1.3-.06-1.66,0-.05.01-.08.06-.08h.83Z"/>
        <path class="cls-3" d="m439.26,94.41c0,.22,0,.42.03.62,0,.03,0,.04-.03.05-.94.44-1.68.56-2.43.56-1.38,0-2.42-.68-2.42-2.04s1.29-1.99,2.9-1.99c.48,0,.75.01.9.03v-.31c0-.4-.2-1.3-1.47-1.3-.62,0-1.2.14-1.65.39-.04.01-.09,0-.09-.07v-.79c0-.05.03-.08.06-.1.51-.25,1.16-.39,1.85-.39,1.66,0,2.35,1.09,2.35,2.44v2.9Zm-1.05-1.91c-.18-.03-.47-.05-.86-.05-1.26,0-1.87.43-1.87,1.16,0,.58.4,1.16,1.55,1.16.42,0,.81-.06,1.18-.22v-2.04Z"/>
        <path class="cls-3" d="m443.71,95.33c0,.05-.01.1-.08.13-.3.13-.62.18-.98.18-.95,0-1.52-.46-1.52-1.7v-3.81h-.88c-.08-.01-.09-.04-.09-.1v-.74c0-.07.03-.09.09-.09h.88c.01-.48.07-1.38.12-1.66.01-.05.04-.08.09-.09l.88-.14c.05-.01.08,0,.08.05-.04.46-.08,1.21-.08,1.85h1.38c.05,0,.08.03.08.09v.77c0,.05-.03.08-.08.08h-1.38v3.65c0,.6.22.94.79.94.2,0,.39-.03.61-.1.04-.01.08-.01.08.05v.66Z"/>
        <path class="cls-3" d="m444.79,87.28c0-.39.27-.66.66-.66.42,0,.65.29.65.66s-.26.66-.66.66-.65-.27-.65-.66Zm.1,2c0-.07.03-.09.09-.09h.92c.05,0,.08.01.08.08v6.15c0,.07-.01.09-.09.09h-.9c-.06,0-.1-.03-.1-.1v-6.12Z"/>
        <path class="cls-3" d="m453.31,92.34c0,1.98-1.22,3.3-2.96,3.3-2.09,0-2.99-1.69-2.99-3.29,0-1.83,1.17-3.29,2.99-3.29s2.96,1.4,2.96,3.28Zm-4.86-.01c0,1.33.69,2.38,1.92,2.38.92,0,1.83-.73,1.83-2.34,0-1.21-.56-2.37-1.91-2.37-1.09,0-1.85.94-1.85,2.33Z"/>
        <path class="cls-3" d="m454.67,90.66c0-.44-.03-1.17-.05-1.39,0-.05.01-.08.08-.08h.81c.07,0,.09.03.12.08.04.12.05.36.08.65.57-.57,1.24-.86,1.99-.86.92,0,2.12.46,2.12,2.51v3.85c0,.07-.03.09-.09.09h-.91c-.07,0-.09-.03-.09-.1v-3.73c0-.99-.43-1.65-1.34-1.65-.66,0-1.21.3-1.62.79v4.6c0,.07-.01.09-.08.09h-.92c-.05,0-.08-.03-.08-.09v-4.76Z"/>
      </g>
      <g>
        <path class="cls-3" d="m334.29,169.23c0,.07-.03.09-.08.09h-.94c-.05,0-.06-.04-.06-.09v-8.42c0-.05.01-.08.08-.08h4.77c.05,0,.08.03.09.08l.09.82c.01.07-.01.09-.08.09h-3.88v2.87h3.46c.06,0,.09.03.09.08v.83c0,.05-.04.08-.09.08h-3.46v3.65Z"/>
        <path class="cls-3" d="m339.93,163c.08,0,.09.03.12.09.05.16.09.61.1.9.46-.62,1.26-1.12,2.09-1.12.06,0,.09.01.09.09v.94c0,.06-.01.08-.09.08-.9-.01-1.72.43-2.04.95v4.32c-.01.07-.04.08-.09.08h-.92c-.07,0-.09-.03-.09-.09v-4.49c0-.55-.03-1.3-.06-1.66,0-.05.01-.08.06-.08h.83Z"/>
        <path class="cls-3" d="m343.98,166.29c-.01,1.24.7,2.21,2.17,2.21.57,0,1.12-.1,1.62-.35.04-.03.07,0,.07.05v.74c0,.08-.03.1-.07.13-.44.22-1.01.38-1.83.38-2.25,0-3.05-1.65-3.05-3.24,0-1.82,1.07-3.34,2.87-3.34s2.54,1.51,2.54,2.61c0,.33-.03.56-.05.68,0,.04-.04.08-.09.08-.19.04-.77.05-1.34.05h-2.83Zm2.43-.81c.64,0,.79-.01.83-.03.01-.04.01-.1.01-.14,0-.47-.31-1.55-1.53-1.55-1.08,0-1.61.84-1.73,1.72h2.42Z"/>
        <path class="cls-3" d="m350.36,166.29c-.01,1.24.7,2.21,2.17,2.21.57,0,1.12-.1,1.62-.35.04-.03.07,0,.07.05v.74c0,.08-.03.1-.07.13-.44.22-1.01.38-1.83.38-2.25,0-3.05-1.65-3.05-3.24,0-1.82,1.07-3.34,2.87-3.34s2.54,1.51,2.54,2.61c0,.33-.03.56-.05.68,0,.04-.04.08-.09.08-.19.04-.77.05-1.34.05h-2.83Zm2.43-.81c.64,0,.79-.01.83-.03.01-.04.01-.1.01-.14,0-.47-.31-1.55-1.53-1.55-1.08,0-1.61.84-1.73,1.72h2.42Z"/>
        <path class="cls-3" d="m355.99,160.07c0-.07.03-.08.09-.08h.91c.07,0,.08.03.08.08v7.84c0,.51.21.62.52.62.09,0,.14-.01.26-.04.04,0,.05.03.05.08v.68c0,.06-.01.08-.07.1-.12.05-.32.09-.6.09-.64,0-1.25-.22-1.25-1.44v-7.93Z"/>
        <path class="cls-3" d="m363.52,168.21c0,.22,0,.42.03.62,0,.03,0,.04-.03.05-.94.44-1.68.56-2.43.56-1.38,0-2.42-.68-2.42-2.04s1.29-1.99,2.9-1.99c.48,0,.75.01.9.03v-.31c0-.4-.2-1.3-1.47-1.3-.62,0-1.2.14-1.65.39-.04.01-.09,0-.09-.07v-.79c0-.05.03-.08.06-.1.51-.25,1.16-.39,1.85-.39,1.66,0,2.35,1.09,2.35,2.44v2.9Zm-1.05-1.91c-.18-.03-.47-.05-.86-.05-1.26,0-1.87.43-1.87,1.16,0,.58.4,1.16,1.55,1.16.42,0,.81-.06,1.18-.22v-2.04Z"/>
        <path class="cls-3" d="m365.33,164.47c0-.44-.03-1.17-.05-1.39,0-.05.01-.08.08-.08h.81c.07,0,.09.03.12.08.04.12.05.36.08.65.57-.57,1.24-.86,1.99-.86.92,0,2.12.46,2.12,2.51v3.85c0,.07-.03.09-.09.09h-.91c-.06,0-.09-.03-.09-.1v-3.73c0-.99-.43-1.65-1.34-1.65-.66,0-1.21.3-1.62.79v4.6c0,.07-.01.09-.08.09h-.92c-.05,0-.08-.03-.08-.09v-4.76Z"/>
        <path class="cls-3" d="m376.52,169.15c0,.05,0,.08-.05.09-.43.17-.94.21-1.42.21-2.12,0-3.21-1.51-3.21-3.26,0-1.9,1.35-3.32,3.39-3.32.66,0,1.03.08,1.23.17.05.03.05.05.05.12v.82c0,.06-.04.06-.09.05-.32-.13-.66-.2-1.2-.2-1.34,0-2.29.9-2.29,2.31,0,1.56,1.08,2.33,2.29,2.33.48,0,.88-.05,1.21-.18.06-.01.08.01.08.05v.81Z"/>
        <path class="cls-3" d="m378.39,166.29c-.01,1.24.7,2.21,2.17,2.21.57,0,1.12-.1,1.62-.35.04-.03.06,0,.06.05v.74c0,.08-.03.1-.06.13-.44.22-1.01.38-1.83.38-2.25,0-3.05-1.65-3.05-3.24,0-1.82,1.07-3.34,2.87-3.34s2.54,1.51,2.54,2.61c0,.33-.03.56-.05.68,0,.04-.04.08-.09.08-.2.04-.77.05-1.34.05h-2.83Zm2.43-.81c.64,0,.79-.01.83-.03.01-.04.01-.1.01-.14,0-.47-.31-1.55-1.53-1.55-1.08,0-1.61.84-1.73,1.72h2.42Z"/>
        <path class="cls-3" d="m391.36,168.21c0,.22,0,.42.03.62,0,.03,0,.04-.03.05-.94.44-1.68.56-2.43.56-1.38,0-2.42-.68-2.42-2.04s1.29-1.99,2.9-1.99c.48,0,.75.01.9.03v-.31c0-.4-.19-1.3-1.47-1.3-.62,0-1.2.14-1.65.39-.04.01-.09,0-.09-.07v-.79c0-.05.03-.08.07-.1.51-.25,1.16-.39,1.85-.39,1.66,0,2.35,1.09,2.35,2.44v2.9Zm-1.05-1.91c-.18-.03-.47-.05-.86-.05-1.26,0-1.87.43-1.87,1.16,0,.58.4,1.16,1.55,1.16.42,0,.81-.06,1.18-.22v-2.04Z"/>
        <path class="cls-3" d="m393.18,160.07c0-.07.03-.08.09-.08h.91c.06,0,.08.03.08.08v7.84c0,.51.21.62.52.62.09,0,.14-.01.26-.04.04,0,.05.03.05.08v.68c0,.06-.01.08-.06.1-.12.05-.33.09-.6.09-.64,0-1.25-.22-1.25-1.44v-7.93Z"/>
        <path class="cls-3" d="m398.16,163.77c-.86,0-1.14.42-1.14.81s.23.66,1.21,1.05c1.31.51,1.85,1.04,1.85,1.96,0,1.2-.97,1.86-2.33,1.86-.72,0-1.37-.16-1.74-.38-.04-.03-.07-.05-.07-.12v-.87c0-.07.04-.09.08-.07.52.36,1.18.52,1.76.52.83,0,1.23-.36,1.23-.84s-.29-.77-1.18-1.12c-1.3-.49-1.85-1.03-1.85-1.95s.79-1.75,2.21-1.75c.71,0,1.25.13,1.52.29.06.03.06.08.06.13v.79c0,.07-.04.1-.1.07-.36-.22-.96-.38-1.51-.38Z"/>
        <path class="cls-3" d="m336.12,183.25c.27-.92.94-2.99,2.55-7.45.01-.05.04-.08.11-.08h.95c.05,0,.08.03.07.09l-3.09,8.42c-.03.07-.05.08-.12.08h-1.03c-.07,0-.09-.01-.12-.06l-3.16-8.44c-.03-.05-.01-.09.07-.09h1c.07,0,.08.01.09.06,1.49,3.98,2.43,6.62,2.67,7.46h.03Z"/>
        <path class="cls-3" d="m340.49,176.09c0-.39.27-.66.66-.66.42,0,.65.29.65.66s-.26.66-.66.66-.65-.27-.65-.66Zm.1,2c0-.07.03-.09.09-.09h.92c.05,0,.08.01.08.08v6.15c0,.07-.01.09-.09.09h-.9c-.07,0-.1-.03-.1-.1v-6.12Z"/>
        <path class="cls-3" d="m343.07,181.21c0-1.91,1.42-3.34,3.54-3.34.36,0,.57.04.82.08v-2.87c0-.07.03-.08.08-.08h.94c.06,0,.08.03.08.07v8.19c0,.18,0,.4.03.62,0,.05-.01.06-.06.09-.74.35-1.47.48-2.2.48-1.81,0-3.21-1.09-3.21-3.24Zm4.35-2.28c-.21-.09-.52-.13-.84-.13-1.48,0-2.41,1-2.41,2.35,0,1.69,1.07,2.34,2.21,2.34.34,0,.74-.04,1.04-.17v-4.39Z"/>
        <path class="cls-3" d="m350.97,181.29c-.01,1.24.7,2.21,2.17,2.21.57,0,1.12-.1,1.62-.35.04-.03.07,0,.07.05v.74c0,.08-.03.1-.07.13-.44.22-1.01.38-1.83.38-2.25,0-3.06-1.65-3.06-3.24,0-1.82,1.07-3.34,2.87-3.34s2.54,1.51,2.54,2.61c0,.33-.03.56-.05.68,0,.04-.04.08-.09.08-.19.04-.77.05-1.34.05h-2.83Zm2.43-.81c.64,0,.79-.01.83-.03.01-.04.01-.1.01-.14,0-.47-.31-1.55-1.53-1.55-1.08,0-1.61.84-1.73,1.72h2.42Z"/>
        <path class="cls-3" d="m362.21,181.15c0,1.98-1.22,3.3-2.96,3.3-2.09,0-2.99-1.69-2.99-3.29,0-1.83,1.17-3.29,2.99-3.29s2.96,1.4,2.96,3.28Zm-4.86-.01c0,1.33.69,2.38,1.92,2.38.92,0,1.83-.73,1.83-2.34,0-1.21-.56-2.37-1.91-2.37-1.09,0-1.85.94-1.85,2.33Z"/>
        <path class="cls-3" d="m371.83,184.24c-.01.07-.04.08-.09.08h-4.94c-.09,0-.1-.03-.1-.1v-8.4c0-.07.03-.09.09-.09h4.74c.07,0,.08.01.09.08l.1.82c.01.05,0,.09-.06.09h-3.89v2.72h3.51c.05,0,.08.03.08.08v.83c0,.06-.04.08-.08.08h-3.51v2.91h4.13c.07,0,.08.03.07.08l-.14.83Z"/>
        <path class="cls-3" d="m372.56,181.21c0-1.91,1.42-3.34,3.54-3.34.36,0,.57.04.82.08v-2.87c0-.07.03-.08.08-.08h.94c.06,0,.08.03.08.07v8.19c0,.18,0,.4.03.62,0,.05-.01.06-.06.09-.74.35-1.47.48-2.2.48-1.81,0-3.21-1.09-3.21-3.24Zm4.36-2.28c-.21-.09-.52-.13-.85-.13-1.48,0-2.4,1-2.4,2.35,0,1.69,1.07,2.34,2.21,2.34.34,0,.74-.04,1.04-.17v-4.39Z"/>
        <path class="cls-3" d="m379.73,176.09c0-.39.27-.66.66-.66.42,0,.65.29.65.66s-.26.66-.66.66-.65-.27-.65-.66Zm.1,2c0-.07.03-.09.09-.09h.92c.05,0,.08.01.08.08v6.15c0,.07-.01.09-.09.09h-.9c-.06,0-.1-.03-.1-.1v-6.12Z"/>
        <path class="cls-3" d="m385.57,184.14c0,.05-.01.1-.08.13-.3.13-.62.18-.98.18-.95,0-1.52-.46-1.52-1.7v-3.81h-.88c-.08-.01-.09-.04-.09-.1v-.74c0-.07.03-.09.09-.09h.88c.01-.48.06-1.38.12-1.66.01-.05.04-.08.09-.09l.88-.14c.05-.01.08,0,.08.05-.04.46-.08,1.21-.08,1.85h1.38c.05,0,.08.03.08.09v.77c0,.05-.03.08-.08.08h-1.38v3.65c0,.6.22.94.79.94.2,0,.39-.03.61-.1.04-.01.08-.01.08.05v.66Z"/>
        <path class="cls-3" d="m392.17,181.15c0,1.98-1.22,3.3-2.96,3.3-2.09,0-2.99-1.69-2.99-3.29,0-1.83,1.17-3.29,2.99-3.29s2.96,1.4,2.96,3.28Zm-4.86-.01c0,1.33.69,2.38,1.92,2.38.92,0,1.83-.73,1.83-2.34,0-1.21-.56-2.37-1.91-2.37-1.09,0-1.85.94-1.85,2.33Z"/>
        <path class="cls-3" d="m394.35,178c.08,0,.09.03.12.09.05.16.09.61.1.9.46-.62,1.26-1.12,2.09-1.12.06,0,.09.01.09.09v.94c0,.06-.01.08-.09.08-.9-.01-1.72.43-2.04.95v4.32c-.01.07-.04.08-.09.08h-.92c-.07,0-.09-.03-.09-.09v-4.49c0-.55-.03-1.3-.06-1.66,0-.05.01-.08.06-.08h.83Z"/>
      </g>
      <rect class="cls-1" x="274.69" y=".5" width="98.13" height="55.35"/>
      <rect class="cls-1" x="360.87" y="65.93" width="103.07" height="37.91"/>
    </g>
  </g>
</svg>