<?xml version="1.0" encoding="UTF-8"?>
<svg id="Layer_2" data-name="Layer 2" xmlns="http://www.w3.org/2000/svg" viewBox="0 0 414.25 189.17">
  <defs>
    <style>
      .cls-1 {
        fill: #231f20;
      }

      .cls-1, .cls-2 {
        stroke-width: 0px;
      }

      .cls-2 {
        fill: #fff;
      }
    </style>
  </defs>
  <g id="Layer_2-2" data-name="Layer 2">
    <g>
      <g>
        <rect class="cls-2" x="20.21" y="120.15" width="354.63" height="1"/>
        <g>
          <path class="cls-2" d="m.09,105.23c-.08,0-.09-.04-.09-.1v-.67c0-.08.01-.11.06-.15.63-.5,1.73-1.39,2.75-2.4,1.44-1.38,1.78-2.31,1.78-3.27,0-1.08-.58-1.95-1.98-1.95-.92,0-1.58.29-2.22.66-.06.04-.1.02-.1-.04v-.96c0-.08,0-.09.06-.13.71-.41,1.54-.67,2.51-.67,2.07,0,3,1.41,3,2.97,0,1.16-.41,2.26-1.79,3.63-.9.93-1.68,1.59-2.24,2.05.51-.04,1-.04,2.35-.04h2.07c.08,0,.11.01.09.08l-.22.93c-.03.08-.04.09-.12.09H.09Z"/>
          <path class="cls-2" d="m7.38,100.43c0-2.71,1.12-4.9,3.3-4.9,2.67,0,3.25,2.77,3.25,4.9,0,2.43-.75,4.95-3.24,4.95-2.34,0-3.31-2.22-3.31-4.95Zm1.26-.03c0,2.26.66,3.87,2.07,3.87s1.96-1.5,1.96-3.82c0-2.55-.72-3.83-2.03-3.83-1.15,0-2.01,1.2-2.01,3.78Z"/>
          <path class="cls-2" d="m16.8,105.23c-.09,0-.09-.03-.09-.09v-8.17c-.5.3-1.3.6-1.79.72-.08.02-.11-.01-.11-.09v-.87c0-.06,0-.09.08-.1.73-.21,1.56-.62,2.07-.95.06-.06.15-.06.21-.06h.72s.06.03.06.09v9.43c0,.06-.01.09-.07.09h-1.08Z"/>
          <path class="cls-2" d="m19.84,105.23c-.08,0-.09-.04-.09-.1v-.67c0-.08.01-.11.06-.15.63-.5,1.73-1.39,2.75-2.4,1.44-1.38,1.79-2.31,1.79-3.27,0-1.08-.59-1.95-1.98-1.95-.91,0-1.57.29-2.22.66-.06.04-.1.02-.1-.04v-.96c0-.08,0-.09.06-.13.71-.41,1.54-.67,2.5-.67,2.07,0,3,1.41,3,2.97,0,1.16-.41,2.26-1.79,3.63-.9.93-1.68,1.59-2.23,2.05.51-.04,1-.04,2.35-.04h2.07c.08,0,.11.01.09.08l-.22.93c-.03.08-.04.09-.12.09h-5.91Z"/>
        </g>
        <g>
          <path class="cls-2" d="m117.33,105.24c-.07,0-.09-.04-.09-.11v-.67c0-.08.02-.1.06-.15.63-.49,1.72-1.39,2.74-2.4,1.44-1.38,1.79-2.31,1.79-3.27,0-1.08-.58-1.95-1.98-1.95-.91,0-1.57.29-2.22.66-.06.04-.11.01-.11-.04v-.96c0-.08,0-.09.06-.14.71-.4,1.54-.67,2.5-.67,2.07,0,3,1.41,3,2.97,0,1.16-.4,2.27-1.79,3.63-.9.93-1.68,1.59-2.23,2.06.51-.04,1-.04,2.36-.04h2.07c.08,0,.1.01.09.07l-.22.93c-.03.07-.05.09-.12.09h-5.91Z"/>
          <path class="cls-2" d="m124.62,100.44c0-2.71,1.12-4.91,3.3-4.91,2.67,0,3.25,2.78,3.25,4.91,0,2.43-.75,4.95-3.24,4.95-2.34,0-3.32-2.22-3.32-4.95Zm1.26-.03c0,2.26.66,3.87,2.07,3.87s1.96-1.5,1.96-3.83c0-2.55-.72-3.83-2.02-3.83-1.16,0-2.01,1.2-2.01,3.78Z"/>
          <path class="cls-2" d="m134.04,105.24c-.09,0-.09-.03-.09-.09v-8.17c-.5.3-1.31.6-1.79.72-.08.01-.1-.01-.1-.09v-.87c0-.06,0-.09.07-.11.74-.21,1.56-.61,2.07-.94.06-.06.15-.06.21-.06h.72s.06.03.06.09v9.43c0,.06-.02.09-.08.09h-1.08Z"/>
          <path class="cls-2" d="m139.11,96.81c-.17.55-.46,1.79-.57,2.23,3.1.32,4.47,1.41,4.47,3.32,0,1.77-1.35,3.03-3.48,3.03-.99,0-1.73-.18-2.29-.46-.04-.03-.06-.08-.06-.15v-1.04c0-.06.04-.08.07-.06.69.38,1.43.58,2.28.58,1.62,0,2.22-.92,2.22-1.81,0-1.41-1.2-2.16-4.3-2.42-.06,0-.11-.01-.11-.09v-.51c.04-.27.95-3.58.96-3.66.03-.08.04-.09.1-.09h4.25c.06,0,.09.01.06.09l-.27.95c-.01.06-.04.09-.12.09h-3.21Z"/>
        </g>
        <g>
          <circle class="cls-2" cx="12.1" cy="120.39" r="6.92"/>
          <path class="cls-1" d="m12.1,127.81c-4.09,0-7.42-3.33-7.42-7.42s3.33-7.42,7.42-7.42,7.42,3.33,7.42,7.42-3.33,7.42-7.42,7.42Zm0-13.84c-3.54,0-6.42,2.88-6.42,6.42s2.88,6.42,6.42,6.42,6.42-2.88,6.42-6.42-2.88-6.42-6.42-6.42Z"/>
        </g>
        <g>
          <circle class="cls-2" cx="130.9" cy="120.39" r="6.92"/>
          <path class="cls-1" d="m130.9,127.81c-4.09,0-7.42-3.33-7.42-7.42s3.33-7.42,7.42-7.42,7.42,3.33,7.42,7.42-3.33,7.42-7.42,7.42Zm0-13.84c-3.54,0-6.42,2.88-6.42,6.42s2.88,6.42,6.42,6.42,6.42-2.88,6.42-6.42-2.88-6.42-6.42-6.42Z"/>
        </g>
        <g>
          <circle class="cls-2" cx="256.33" cy="120.39" r="6.92"/>
          <path class="cls-1" d="m256.33,127.81c-4.09,0-7.42-3.33-7.42-7.42s3.33-7.42,7.42-7.42,7.42,3.33,7.42,7.42-3.33,7.42-7.42,7.42Zm0-13.84c-3.54,0-6.42,2.88-6.42,6.42s2.88,6.42,6.42,6.42,6.42-2.88,6.42-6.42-2.88-6.42-6.42-6.42Z"/>
        </g>
        <g>
          <circle class="cls-2" cx="288.3" cy="120.39" r="6.92"/>
          <path class="cls-1" d="m288.3,127.81c-4.09,0-7.42-3.33-7.42-7.42s3.33-7.42,7.42-7.42,7.42,3.33,7.42,7.42-3.33,7.42-7.42,7.42Zm0-13.84c-3.54,0-6.42,2.88-6.42,6.42s2.88,6.42,6.42,6.42,6.42-2.88,6.42-6.42-2.88-6.42-6.42-6.42Z"/>
        </g>
        <g>
          <circle class="cls-2" cx="374.85" cy="120.39" r="6.92"/>
          <path class="cls-1" d="m374.84,127.81c-4.09,0-7.42-3.33-7.42-7.42s3.33-7.42,7.42-7.42,7.42,3.33,7.42,7.42-3.33,7.42-7.42,7.42Zm0-13.84c-3.54,0-6.42,2.88-6.42,6.42s2.88,6.42,6.42,6.42,6.42-2.88,6.42-6.42-2.88-6.42-6.42-6.42Z"/>
        </g>
        <g>
          <path class="cls-2" d="m242.89,105.24c-.07,0-.09-.04-.09-.11v-.67c0-.08.02-.1.06-.15.63-.49,1.72-1.39,2.74-2.4,1.44-1.38,1.79-2.31,1.79-3.27,0-1.08-.58-1.95-1.98-1.95-.92,0-1.58.29-2.22.66-.06.04-.11.01-.11-.04v-.96c0-.08,0-.09.06-.14.71-.4,1.54-.67,2.5-.67,2.07,0,3,1.41,3,2.97,0,1.16-.4,2.27-1.78,3.63-.9.93-1.68,1.59-2.24,2.06.51-.04,1.01-.04,2.36-.04h2.07c.07,0,.11.01.09.07l-.22.93c-.03.07-.04.09-.12.09h-5.91Z"/>
          <path class="cls-2" d="m250.18,100.44c0-2.71,1.12-4.91,3.3-4.91,2.67,0,3.26,2.78,3.26,4.91,0,2.43-.75,4.95-3.24,4.95-2.34,0-3.31-2.22-3.31-4.95Zm1.26-.03c0,2.26.66,3.87,2.07,3.87s1.96-1.5,1.96-3.83c0-2.55-.72-3.83-2.03-3.83-1.15,0-2.01,1.2-2.01,3.78Z"/>
          <path class="cls-2" d="m259.6,105.24c-.09,0-.09-.03-.09-.09v-8.17c-.5.3-1.3.6-1.79.72-.07.01-.11-.01-.11-.09v-.87c0-.06,0-.09.08-.11.73-.21,1.56-.61,2.07-.94.06-.06.15-.06.21-.06h.72s.06.03.06.09v9.43c0,.06-.01.09-.07.09h-1.08Z"/>
          <path class="cls-2" d="m263.69,104.37c0-.06.01-.08.07-.09,1.99-.5,3.3-1.68,3.82-3.06-.57.33-1.18.48-1.86.48-1.8,0-3.04-1.16-3.04-2.97,0-1.67,1.21-3.2,3.24-3.2,1.92,0,3.22,1.5,3.22,3.87,0,3.38-2.56,5.52-5.36,5.98-.09.02-.1-.04-.1-.1v-.92Zm4.15-4.26c.02-.18.04-.5.04-.72,0-1.67-.75-2.76-2.03-2.76s-1.92.95-1.92,2.04c0,1.41.95,2,2.09,2,.76,0,1.33-.2,1.81-.55Z"/>
        </g>
        <g>
          <path class="cls-2" d="m276.27,105.24c-.07,0-.09-.04-.09-.11v-.67c0-.08.02-.1.06-.15.63-.49,1.72-1.39,2.74-2.4,1.44-1.38,1.79-2.31,1.79-3.27,0-1.08-.58-1.95-1.98-1.95-.92,0-1.58.29-2.22.66-.06.04-.11.01-.11-.04v-.96c0-.08,0-.09.06-.14.71-.4,1.54-.67,2.5-.67,2.07,0,3,1.41,3,2.97,0,1.16-.4,2.27-1.78,3.63-.9.93-1.68,1.59-2.24,2.06.51-.04,1-.04,2.35-.04h2.07c.08,0,.11.01.09.07l-.22.93c-.03.07-.04.09-.12.09h-5.91Z"/>
          <path class="cls-2" d="m283.56,100.44c0-2.71,1.12-4.91,3.3-4.91,2.67,0,3.25,2.78,3.25,4.91,0,2.43-.75,4.95-3.24,4.95-2.34,0-3.32-2.22-3.32-4.95Zm1.26-.03c0,2.26.66,3.87,2.07,3.87s1.96-1.5,1.96-3.83c0-2.55-.72-3.83-2.02-3.83-1.16,0-2.01,1.2-2.01,3.78Z"/>
          <path class="cls-2" d="m291.14,105.24c-.07,0-.09-.04-.09-.11v-.67c0-.08.02-.1.06-.15.63-.49,1.72-1.39,2.74-2.4,1.44-1.38,1.79-2.31,1.79-3.27,0-1.08-.58-1.95-1.98-1.95-.92,0-1.58.29-2.22.66-.06.04-.11.01-.11-.04v-.96c0-.08,0-.09.06-.14.71-.4,1.54-.67,2.5-.67,2.07,0,3,1.41,3,2.97,0,1.16-.4,2.27-1.78,3.63-.9.93-1.68,1.59-2.24,2.06.51-.04,1-.04,2.35-.04h2.07c.08,0,.11.01.09.07l-.22.93c-.03.07-.04.09-.12.09h-5.91Z"/>
          <path class="cls-2" d="m300.12,105.24c-.09,0-.09-.03-.09-.09v-8.17c-.5.3-1.3.6-1.78.72-.08.01-.11-.01-.11-.09v-.87c0-.06,0-.09.08-.11.73-.21,1.56-.61,2.07-.94.06-.06.15-.06.21-.06h.72s.06.03.06.09v9.43c0,.06-.01.09-.08.09h-1.08Z"/>
        </g>
        <g>
          <path class="cls-2" d="m360.94,105.23c-.07,0-.09-.04-.09-.1v-.67c0-.08.02-.11.06-.15.63-.5,1.72-1.39,2.74-2.4,1.44-1.38,1.79-2.31,1.79-3.27,0-1.08-.58-1.95-1.98-1.95-.92,0-1.58.29-2.22.66-.06.04-.11.02-.11-.04v-.96c0-.08,0-.09.06-.13.71-.41,1.54-.67,2.5-.67,2.07,0,3,1.41,3,2.97,0,1.16-.4,2.26-1.78,3.63-.9.93-1.68,1.59-2.24,2.05.51-.04,1-.04,2.35-.04h2.07c.08,0,.11.01.09.08l-.22.93c-.03.08-.04.09-.12.09h-5.91Z"/>
          <path class="cls-2" d="m368.23,100.43c0-2.71,1.12-4.9,3.3-4.9,2.67,0,3.25,2.77,3.25,4.9,0,2.43-.75,4.95-3.24,4.95-2.34,0-3.32-2.22-3.32-4.95Zm1.26-.03c0,2.26.66,3.87,2.07,3.87s1.96-1.5,1.96-3.82c0-2.55-.72-3.83-2.02-3.83-1.16,0-2.01,1.2-2.01,3.78Z"/>
          <path class="cls-2" d="m375.8,105.23c-.07,0-.09-.04-.09-.1v-.67c0-.08.02-.11.06-.15.63-.5,1.72-1.39,2.74-2.4,1.44-1.38,1.79-2.31,1.79-3.27,0-1.08-.58-1.95-1.98-1.95-.92,0-1.58.29-2.22.66-.06.04-.11.02-.11-.04v-.96c0-.08,0-.09.06-.13.71-.41,1.54-.67,2.5-.67,2.07,0,3,1.41,3,2.97,0,1.16-.4,2.26-1.78,3.63-.9.93-1.68,1.59-2.24,2.05.51-.04,1-.04,2.35-.04h2.07c.08,0,.11.01.09.08l-.22.93c-.03.08-.04.09-.12.09h-5.91Z"/>
          <path class="cls-2" d="m384.91,100.76c-.08,0-.11-.03-.11-.09v-.95c0-.06.02-.1.09-.1h.56c1.32,0,2.13-.51,2.13-1.47,0-.84-.56-1.49-1.88-1.49-.78,0-1.44.18-2.16.6-.08.03-.09.02-.09-.04v-.96c0-.06,0-.09.06-.13.65-.36,1.5-.58,2.4-.58,1.88,0,2.89,1.04,2.89,2.46,0,1.2-.9,1.86-1.58,2.08.87.2,2.06.87,2.06,2.42,0,1.84-1.52,2.88-3.54,2.88-.97,0-1.8-.18-2.43-.54-.06-.03-.06-.09-.06-.15v-1.03c0-.06.04-.09.09-.06.78.45,1.52.66,2.39.66,1.62,0,2.28-.81,2.28-1.75,0-1.2-.99-1.74-2.47-1.74h-.63Z"/>
        </g>
      </g>
      <polygon class="cls-2" points="132.15 88.97 131.15 88.97 131.15 44.3 12.6 44.3 12.6 88.97 11.6 88.97 11.6 43.3 132.15 43.3 132.15 88.97"/>
      <polygon class="cls-2" points="256.45 189.1 131.15 189.1 131.15 134.9 132.15 134.9 132.15 188.1 255.45 188.1 255.45 134.9 256.45 134.9 256.45 189.1"/>
      <polygon class="cls-2" points="375.34 189.17 286.21 189.17 286.21 134.97 287.21 134.97 287.21 188.17 374.34 188.17 374.34 134.97 375.34 134.97 375.34 189.17"/>
      <rect class="cls-2" x="287.8" y="42.16" width="1" height="44.45"/>
      <rect class="cls-2" x="374.34" y="84.82" width="1" height="7.02"/>
      <g>
        <path class="cls-2" d="m139.93,150.3c0,.07-.03.09-.08.09h-.91c-.06,0-.09-.03-.09-.1v-8.41c0-.05.01-.08.08-.08h.92c.05,0,.08.03.08.09v8.41Zm5.06-8.5c.09,0,.1.06.07.12l-3.81,3.99s-.03.05,0,.09l4.11,4.28c.04.05.01.12-.05.12h-1.14c-.06,0-.1-.01-.17-.08l-3.99-4.15c-.08-.08-.08-.13,0-.2l3.84-4.11s.06-.06.13-.06h1.03Z"/>
        <path class="cls-2" d="m150.75,149.28c0,.22,0,.42.03.62,0,.03,0,.04-.03.05-.94.44-1.68.56-2.43.56-1.38,0-2.42-.68-2.42-2.04s1.29-1.99,2.9-1.99c.48,0,.75.01.9.03v-.31c0-.4-.2-1.3-1.47-1.3-.62,0-1.2.14-1.65.39-.04.01-.09,0-.09-.07v-.79c0-.05.03-.08.07-.1.51-.25,1.16-.39,1.85-.39,1.66,0,2.35,1.09,2.35,2.44v2.9Zm-1.05-1.91c-.18-.03-.47-.05-.86-.05-1.26,0-1.87.43-1.87,1.16,0,.58.4,1.16,1.55,1.16.42,0,.81-.06,1.18-.22v-2.04Z"/>
        <path class="cls-2" d="m152.57,145.54c0-.44-.03-1.17-.05-1.39,0-.05.01-.08.08-.08h.81c.07,0,.09.03.12.08.04.12.05.36.08.65.57-.57,1.24-.86,1.99-.86.92,0,2.12.46,2.12,2.51v3.85c0,.07-.03.09-.09.09h-.91c-.06,0-.09-.03-.09-.1v-3.73c0-.99-.43-1.65-1.34-1.65-.66,0-1.21.3-1.62.79v4.6c0,.07-.01.09-.08.09h-.92c-.05,0-.08-.03-.08-.09v-4.76Z"/>
        <path class="cls-2" d="m162.24,150.21c0,.05-.01.1-.08.13-.3.13-.62.18-.98.18-.95,0-1.52-.46-1.52-1.7v-3.81h-.88c-.08-.01-.09-.04-.09-.1v-.74c0-.07.03-.09.09-.09h.88c.01-.48.06-1.38.12-1.66.01-.05.04-.08.09-.09l.88-.14c.05-.01.08,0,.08.05-.04.46-.08,1.21-.08,1.85h1.38c.05,0,.08.03.08.09v.77c0,.05-.03.08-.08.08h-1.38v3.65c0,.6.22.94.79.94.2,0,.39-.03.61-.1.04-.01.08-.01.08.05v.66Z"/>
        <path class="cls-2" d="m168.83,147.22c0,1.98-1.22,3.3-2.96,3.3-2.09,0-2.99-1.69-2.99-3.29,0-1.83,1.17-3.29,2.99-3.29s2.96,1.4,2.96,3.28Zm-4.86-.01c0,1.33.69,2.38,1.92,2.38.92,0,1.83-.73,1.83-2.34,0-1.21-.56-2.37-1.91-2.37-1.09,0-1.85.94-1.85,2.33Z"/>
        <path class="cls-2" d="m170.18,145.54c0-.44-.03-1.17-.05-1.39,0-.05.01-.08.08-.08h.81c.07,0,.09.03.12.08.04.12.05.36.08.65.57-.57,1.24-.86,1.99-.86.92,0,2.12.46,2.12,2.51v3.85c0,.07-.03.09-.09.09h-.91c-.07,0-.09-.03-.09-.1v-3.73c0-.99-.43-1.65-1.34-1.65-.66,0-1.21.3-1.62.79v4.6c0,.07-.01.09-.08.09h-.92c-.05,0-.08-.03-.08-.09v-4.76Z"/>
        <path class="cls-2" d="m178.91,144.84c-.86,0-1.14.42-1.14.81s.23.66,1.21,1.05c1.31.51,1.85,1.04,1.85,1.96,0,1.2-.97,1.86-2.33,1.86-.72,0-1.37-.16-1.74-.38-.04-.03-.07-.05-.07-.12v-.87c0-.07.04-.09.08-.07.52.36,1.18.52,1.76.52.83,0,1.23-.36,1.23-.84s-.29-.77-1.18-1.12c-1.3-.49-1.85-1.03-1.85-1.95s.79-1.75,2.21-1.75c.71,0,1.25.13,1.52.29.07.03.07.08.07.13v.79c0,.07-.04.1-.1.07-.36-.22-.96-.38-1.51-.38Z"/>
        <path class="cls-2" d="m184.03,144.84c-.86,0-1.14.42-1.14.81s.23.66,1.21,1.05c1.31.51,1.85,1.04,1.85,1.96,0,1.2-.97,1.86-2.33,1.86-.72,0-1.37-.16-1.74-.38-.04-.03-.07-.05-.07-.12v-.87c0-.07.04-.09.08-.07.52.36,1.18.52,1.75.52.83,0,1.23-.36,1.23-.84s-.29-.77-1.18-1.12c-1.3-.49-1.85-1.03-1.85-1.95s.79-1.75,2.21-1.75c.71,0,1.25.13,1.52.29.06.03.06.08.06.13v.79c0,.07-.04.1-.1.07-.36-.22-.96-.38-1.51-.38Z"/>
        <path class="cls-2" d="m191.54,150.22c0,.05,0,.08-.05.09-.43.17-.94.21-1.42.21-2.12,0-3.21-1.51-3.21-3.26,0-1.9,1.35-3.32,3.39-3.32.66,0,1.03.08,1.23.17.05.03.05.05.05.12v.82c0,.06-.04.06-.09.05-.32-.13-.66-.2-1.2-.2-1.34,0-2.29.9-2.29,2.31,0,1.56,1.08,2.33,2.29,2.33.48,0,.88-.05,1.21-.18.06-.01.08.01.08.05v.81Z"/>
        <path class="cls-2" d="m193.93,150.31c0,.07-.01.08-.08.08h-.91c-.07,0-.09-.03-.09-.09v-9.15c0-.05.01-.08.08-.08h.94c.05,0,.07.01.07.07v3.56c.55-.49,1.17-.75,1.94-.75.92,0,2.12.46,2.12,2.51v3.85c0,.07-.03.09-.09.09h-.91c-.07,0-.09-.03-.09-.1v-3.72c0-1-.43-1.66-1.34-1.66-.64,0-1.21.26-1.62.72v4.69Z"/>
        <path class="cls-2" d="m204.85,149.01c0,.69.04,1.01.08,1.3,0,.05-.01.08-.08.08h-.83c-.07,0-.08-.01-.1-.06-.04-.14-.06-.38-.08-.56-.54.56-1.23.75-1.88.75-1.11,0-2.14-.56-2.14-2.44v-3.93c0-.06.03-.08.09-.08h.92c.05,0,.06.03.06.08v3.8c0,1,.47,1.61,1.38,1.61.62,0,1.12-.23,1.51-.66v-4.75c0-.05.03-.08.09-.08h.91c.08,0,.08.03.08.08v4.86Z"/>
        <path class="cls-2" d="m206.69,141.15c0-.07.03-.08.09-.08h.91c.07,0,.08.03.08.08v7.84c0,.51.21.62.52.62.09,0,.14-.01.26-.04.04,0,.05.03.05.08v.68c0,.06-.01.08-.07.1-.12.05-.32.09-.6.09-.64,0-1.25-.22-1.25-1.44v-7.93Z"/>
        <path class="cls-2" d="m210.46,147.36c-.01,1.24.7,2.21,2.17,2.21.57,0,1.12-.1,1.62-.35.04-.03.06,0,.06.05v.74c0,.08-.03.1-.06.13-.44.22-1.01.38-1.83.38-2.25,0-3.05-1.65-3.05-3.24,0-1.82,1.07-3.34,2.87-3.34s2.54,1.51,2.54,2.61c0,.33-.03.56-.05.68,0,.04-.04.08-.09.08-.2.04-.77.05-1.34.05h-2.83Zm2.43-.81c.64,0,.79-.01.83-.03.01-.04.01-.1.01-.14,0-.47-.31-1.55-1.53-1.55-1.08,0-1.61.84-1.73,1.72h2.42Z"/>
        <path class="cls-2" d="m224.35,150.31c-.01.07-.04.08-.09.08h-4.94c-.09,0-.1-.03-.1-.1v-8.4c0-.07.03-.09.09-.09h4.75c.07,0,.08.01.09.08l.1.82c.01.05,0,.09-.07.09h-3.89v2.72h3.51c.05,0,.08.03.08.08v.83c0,.06-.04.08-.08.08h-3.51v2.91h4.13c.07,0,.08.03.07.08l-.14.83Z"/>
        <path class="cls-2" d="m225.65,145.54c0-.44-.03-1.17-.05-1.39,0-.05.01-.08.08-.08h.81c.06,0,.09.03.12.08.04.12.05.36.08.65.57-.57,1.23-.86,1.99-.86.92,0,2.12.46,2.12,2.51v3.85c0,.07-.03.09-.09.09h-.91c-.06,0-.09-.03-.09-.1v-3.73c0-.99-.43-1.65-1.34-1.65-.66,0-1.21.3-1.62.79v4.6c0,.07-.01.09-.08.09h-.92c-.05,0-.08-.03-.08-.09v-4.76Z"/>
        <path class="cls-2" d="m235.3,149.32c1.61.08,2.52.66,2.52,1.81,0,1.3-1.24,2.33-3.15,2.33s-2.87-1.01-2.87-1.98c0-.44.38-1.03,1.27-1.78-.21-.29-.31-.62-.31-.98,0-.29.08-.57.22-.82-.53-.35-.88-.94-.88-1.76,0-1.21.9-2.21,2.43-2.21.4,0,.74.05.97.1.12.03.2.03.27.03h1.83c.07,0,.08.03.08.08v.74c0,.05-.01.08-.08.08-.34,0-.88-.03-1.2-.05.23.25.46.66.46,1.26,0,1.43-1.07,2.15-2.35,2.15-.25,0-.48-.03-.71-.08-.07.16-.09.32-.07.48.03.2.1.38.23.53l1.33.07Zm-1.6.87c-.53.38-.87.92-.87,1.21,0,.6.71,1.21,1.91,1.21,1.43,0,2.07-.68,2.07-1.33,0-.77-.81-.98-1.73-1.03l-1.38-.06Zm-.53-4.06c0,.79.47,1.37,1.34,1.37.82,0,1.33-.49,1.33-1.34,0-.75-.4-1.39-1.31-1.39-.82,0-1.35.53-1.35,1.37Z"/>
        <path class="cls-2" d="m239.37,147.36c-.01,1.24.7,2.21,2.17,2.21.57,0,1.12-.1,1.62-.35.04-.03.07,0,.07.05v.74c0,.08-.03.1-.07.13-.44.22-1.01.38-1.83.38-2.25,0-3.05-1.65-3.05-3.24,0-1.82,1.07-3.34,2.87-3.34s2.54,1.51,2.54,2.61c0,.33-.03.56-.05.68,0,.04-.04.08-.09.08-.19.04-.77.05-1.34.05h-2.83Zm2.43-.81c.64,0,.79-.01.83-.03.01-.04.01-.1.01-.14,0-.47-.31-1.55-1.53-1.55-1.08,0-1.61.84-1.73,1.72h2.42Z"/>
        <path class="cls-2" d="m244.18,152.29c-.06,0-.09-.03-.06-.08.58-1.2.73-2.18.66-3.33,0-.04.03-.07.05-.07h.87c.06,0,.08.03.09.09.08,1.2-.17,2.4-.74,3.31-.01.03-.04.07-.1.07h-.77Z"/>
        <path class="cls-2" d="m139.36,156.8h1.44c.06,0,.08.03.1.08.44,1.34,2.02,6.01,2.29,7.14h.01c.3-1.08,2.03-5.81,2.47-7.14.01-.05.03-.08.09-.08h1.4c.07,0,.07.01.08.06l.44,8.45c.01.05-.03.08-.08.08h-.96c-.06,0-.09-.01-.09-.06-.12-2.99-.25-6.98-.25-7.76h-.01c-.31,1.17-2.05,6.08-2.6,7.75-.01.07-.05.08-.1.08h-.91c-.08,0-.1-.01-.12-.08-.69-2.16-2.05-6.45-2.4-7.76h-.03c-.01,1.13-.25,5.03-.39,7.76,0,.07-.03.08-.09.08h-.88c-.07,0-.08-.01-.08-.08l.57-8.44c.01-.08.04-.08.09-.08Z"/>
        <path class="cls-2" d="m153.87,164.28c0,.22,0,.42.03.62,0,.03,0,.04-.03.05-.94.44-1.68.56-2.43.56-1.38,0-2.42-.68-2.42-2.04s1.29-1.99,2.9-1.99c.48,0,.75.01.9.03v-.31c0-.4-.2-1.3-1.47-1.3-.62,0-1.2.14-1.65.39-.04.01-.09,0-.09-.07v-.79c0-.05.03-.08.06-.1.51-.25,1.16-.39,1.85-.39,1.66,0,2.35,1.09,2.35,2.44v2.9Zm-1.05-1.91c-.18-.03-.47-.05-.86-.05-1.26,0-1.87.43-1.87,1.16,0,.58.4,1.16,1.55,1.16.42,0,.81-.06,1.18-.22v-2.04Z"/>
        <path class="cls-2" d="m158.31,165.21c0,.05-.01.1-.08.13-.3.13-.62.18-.98.18-.95,0-1.52-.46-1.52-1.7v-3.81h-.88c-.08-.01-.09-.04-.09-.1v-.74c0-.07.03-.09.09-.09h.88c.01-.48.06-1.38.12-1.66.01-.05.04-.08.09-.09l.88-.14c.05-.01.08,0,.08.05-.04.46-.08,1.21-.08,1.85h1.38c.05,0,.08.03.08.09v.77c0,.05-.03.08-.08.08h-1.38v3.65c0,.6.22.94.79.94.2,0,.39-.03.61-.1.04-.01.08-.01.08.05v.66Z"/>
        <path class="cls-2" d="m164.44,164.01c0,.69.04,1.01.08,1.3,0,.05-.01.08-.08.08h-.83c-.07,0-.08-.01-.1-.06-.04-.14-.06-.38-.08-.56-.54.56-1.23.75-1.88.75-1.11,0-2.14-.56-2.14-2.44v-3.93c0-.06.03-.08.09-.08h.92c.05,0,.06.03.06.08v3.8c0,1,.47,1.61,1.38,1.61.62,0,1.12-.23,1.51-.66v-4.75c0-.05.03-.08.09-.08h.91c.08,0,.08.03.08.08v4.86Z"/>
        <path class="cls-2" d="m167.1,159.07c.08,0,.09.03.12.09.05.16.09.61.1.9.46-.62,1.26-1.12,2.09-1.12.06,0,.09.01.09.09v.94c0,.06-.01.08-.09.08-.9-.01-1.72.43-2.04.95v4.32c-.01.07-.04.08-.09.08h-.92c-.07,0-.09-.03-.09-.09v-4.49c0-.55-.03-1.3-.06-1.66,0-.05.01-.08.06-.08h.83Z"/>
        <path class="cls-2" d="m174.75,164.28c0,.22,0,.42.03.62,0,.03,0,.04-.03.05-.94.44-1.68.56-2.43.56-1.38,0-2.42-.68-2.42-2.04s1.29-1.99,2.9-1.99c.48,0,.75.01.9.03v-.31c0-.4-.2-1.3-1.47-1.3-.62,0-1.2.14-1.65.39-.04.01-.09,0-.09-.07v-.79c0-.05.03-.08.07-.1.51-.25,1.16-.39,1.85-.39,1.66,0,2.35,1.09,2.35,2.44v2.9Zm-1.05-1.91c-.18-.03-.47-.05-.86-.05-1.26,0-1.87.43-1.87,1.16,0,.58.4,1.16,1.55,1.16.42,0,.81-.06,1.18-.22v-2.04Z"/>
        <path class="cls-2" d="m175.75,167.29c-.06,0-.09-.03-.06-.08.58-1.2.73-2.18.66-3.33,0-.04.03-.07.05-.07h.87c.06,0,.08.03.09.09.08,1.2-.17,2.4-.74,3.31-.01.03-.04.07-.1.07h-.77Z"/>
        <path class="cls-2" d="m181.44,165.02c-.06-.03-.08-.08-.08-.16v-.94c0-.05.04-.08.09-.04.68.46,1.51.64,2.22.64,1.25,0,1.82-.56,1.82-1.34,0-.61-.35-1.07-1.53-1.6l-.57-.23c-1.61-.69-1.98-1.51-1.98-2.38,0-1.35,1.04-2.31,2.79-2.31.82,0,1.52.13,1.92.35.05.03.07.07.07.13v.87c0,.05-.04.09-.1.05-.46-.29-1.17-.43-1.91-.43-1.35,0-1.72.7-1.72,1.25,0,.58.34,1.03,1.5,1.52l.56.23c1.6.68,2.07,1.48,2.07,2.46,0,1.4-1.05,2.42-2.95,2.42-.9,0-1.69-.19-2.2-.49Z"/>
        <path class="cls-2" d="m192.35,165.22c0,.05,0,.08-.05.09-.43.17-.94.21-1.42.21-2.12,0-3.21-1.51-3.21-3.26,0-1.9,1.35-3.32,3.39-3.32.66,0,1.03.08,1.23.17.05.03.05.05.05.12v.82c0,.06-.04.06-.09.05-.32-.13-.66-.2-1.2-.2-1.34,0-2.29.9-2.29,2.31,0,1.56,1.08,2.33,2.29,2.33.48,0,.88-.05,1.21-.18.06-.01.08.01.08.05v.81Z"/>
        <path class="cls-2" d="m194.74,165.31c0,.07-.01.08-.08.08h-.91c-.06,0-.09-.03-.09-.09v-9.15c0-.05.01-.08.08-.08h.94c.05,0,.06.01.06.07v3.56c.55-.49,1.17-.75,1.94-.75.92,0,2.12.46,2.12,2.51v3.85c0,.07-.03.09-.09.09h-.91c-.07,0-.09-.03-.09-.1v-3.72c0-1-.43-1.66-1.34-1.66-.64,0-1.21.26-1.62.72v4.69Z"/>
        <path class="cls-2" d="m205.78,165.39c-.08,0-.1-.03-.12-.09-.96-3.45-1.21-4.52-1.35-5.13h-.01c-.23,1.04-.7,2.63-1.44,5.13-.03.08-.07.09-.13.09h-1c-.1,0-.13-.03-.14-.09l-1.69-6.14c-.03-.05,0-.09.06-.09h.98s.08.01.09.07c.96,3.58,1.18,4.77,1.27,5.23h.03c.1-.44.34-1.52,1.44-5.2.01-.07.03-.09.09-.09h1.05c.05,0,.08.03.09.08,1.05,3.77,1.23,4.72,1.34,5.23h.03c.14-.61.34-1.72,1.35-5.24.01-.04.04-.07.09-.07h.91c.05,0,.08.03.07.08l-1.86,6.16c-.03.05-.04.08-.12.08h-1.03Z"/>
        <path class="cls-2" d="m210.6,162.36c-.01,1.24.7,2.21,2.17,2.21.57,0,1.12-.1,1.62-.35.04-.03.07,0,.07.05v.74c0,.08-.03.1-.07.13-.44.22-1.01.38-1.83.38-2.25,0-3.06-1.65-3.06-3.24,0-1.82,1.07-3.34,2.87-3.34s2.54,1.51,2.54,2.61c0,.33-.03.56-.05.68,0,.04-.04.08-.09.08-.19.04-.77.05-1.34.05h-2.83Zm2.43-.81c.64,0,.79-.01.83-.03.01-.04.01-.1.01-.14,0-.47-.31-1.55-1.53-1.55-1.08,0-1.61.84-1.73,1.72h2.42Z"/>
        <path class="cls-2" d="m217.06,159.07c.08,0,.09.03.12.09.05.16.09.61.1.9.46-.62,1.26-1.12,2.09-1.12.07,0,.09.01.09.09v.94c0,.06-.01.08-.09.08-.9-.01-1.72.43-2.04.95v4.32c-.01.07-.04.08-.09.08h-.92c-.06,0-.09-.03-.09-.09v-4.49c0-.55-.03-1.3-.07-1.66,0-.05.01-.08.07-.08h.83Z"/>
        <path class="cls-2" d="m225.91,162.01c0,2.37-1.87,3.51-3.72,3.51-.3,0-.48-.03-.66-.05v2.6c0,.05,0,.08-.06.09-.3.03-.9.09-.95.1-.05,0-.06-.01-.06-.08v-8.1c0-.12-.01-.4-.03-.57,0-.01,0-.04.03-.05.46-.17,1.31-.52,2.42-.52,1.92,0,3.04,1.33,3.04,3.07Zm-4.38-1.91v4.41c.22.07.49.08.74.08,1.26,0,2.54-.78,2.54-2.51,0-1.33-.75-2.18-2.07-2.18-.46,0-.84.08-1.21.21Z"/>
        <path class="cls-2" d="m232.31,164.01c0,.69.04,1.01.08,1.3,0,.05-.01.08-.08.08h-.83c-.07,0-.08-.01-.1-.06-.04-.14-.06-.38-.08-.56-.55.56-1.23.75-1.88.75-1.1,0-2.14-.56-2.14-2.44v-3.93c0-.06.03-.08.09-.08h.92c.05,0,.07.03.07.08v3.8c0,1,.47,1.61,1.38,1.61.62,0,1.12-.23,1.51-.66v-4.75c0-.05.03-.08.09-.08h.91c.08,0,.08.03.08.08v4.86Z"/>
        <path class="cls-2" d="m234.14,160.54c0-.44-.03-1.17-.05-1.39,0-.05.01-.08.08-.08h.81c.06,0,.09.03.12.08.04.12.05.36.08.65.57-.57,1.23-.86,1.99-.86.92,0,2.12.46,2.12,2.51v3.85c0,.07-.03.09-.09.09h-.91c-.06,0-.09-.03-.09-.1v-3.73c0-.99-.43-1.65-1.34-1.65-.66,0-1.21.3-1.62.79v4.6c0,.07-.01.09-.08.09h-.92c-.05,0-.08-.03-.08-.09v-4.76Z"/>
        <path class="cls-2" d="m246.09,159.07c.06,0,.09.05.04.1-.36.4-2.33,2.3-2.81,2.77-.01.01,0,.04,0,.05.85.88,2.26,2.35,3.21,3.3.04.04.01.09-.05.09h-1.23c-.07,0-.09-.03-.13-.06-.68-.69-2.31-2.41-2.94-3.08v3.05c0,.07-.01.09-.08.09h-.91c-.08,0-.09-.03-.09-.09v-9.15c0-.05.01-.08.09-.08h.91c.05,0,.08.03.08.08v5.82c.61-.61,2.41-2.47,2.74-2.83.05-.05.08-.07.13-.07h1.04Z"/>
        <path class="cls-2" d="m250.16,165.21c0,.05-.01.1-.08.13-.3.13-.62.18-.97.18-.95,0-1.52-.46-1.52-1.7v-3.81h-.88c-.08-.01-.09-.04-.09-.1v-.74c0-.07.03-.09.09-.09h.88c.01-.48.07-1.38.12-1.66.01-.05.04-.08.09-.09l.88-.14c.05-.01.08,0,.08.05-.04.46-.08,1.21-.08,1.85h1.38c.05,0,.08.03.08.09v.77c0,.05-.03.08-.08.08h-1.38v3.65c0,.6.22.94.79.94.19,0,.39-.03.61-.1.04-.01.08-.01.08.05v.66Z"/>
        <path class="cls-2" d="m145.85,179.14h.01c.16-.71.57-2.5,1.73-7.27.01-.05.04-.08.1-.08h.92c.07,0,.09.03.08.09l-2.26,8.44c-.01.05-.04.06-.1.06h-1.04c-.08,0-.09-.01-.12-.06-.38-1.61-1.51-6.24-1.74-7.36h-.01c-.22,1.14-1.53,5.84-1.95,7.32-.01.06-.03.1-.1.1h-1c-.07,0-.09-.03-.12-.09l-2.22-8.41c-.01-.07,0-.09.07-.09h.97c.06,0,.09.01.12.06,1.31,5.29,1.65,6.66,1.75,7.28h.01c.14-.73.61-2.27,1.87-7.27.03-.07.06-.08.12-.08h1.07c.07,0,.08.03.09.08.58,2.4,1.26,5.08,1.75,7.27Z"/>
        <path class="cls-2" d="m149.55,172.16c0-.39.27-.66.66-.66.42,0,.65.29.65.66s-.26.66-.66.66-.65-.27-.65-.66Zm.1,2c0-.07.03-.09.09-.09h.92c.05,0,.08.01.08.08v6.15c0,.07-.01.09-.09.09h-.9c-.06,0-.1-.03-.1-.1v-6.12Z"/>
        <path class="cls-2" d="m153.41,174.07c.08,0,.09.03.12.09.05.16.09.61.1.9.46-.62,1.26-1.12,2.09-1.12.06,0,.09.01.09.09v.94c0,.06-.01.08-.09.08-.9-.01-1.72.43-2.04.95v4.32c-.01.07-.04.08-.09.08h-.92c-.07,0-.09-.03-.09-.09v-4.49c0-.55-.03-1.3-.06-1.66,0-.05.01-.08.06-.08h.83Z"/>
        <path class="cls-2" d="m158.74,174.84c-.86,0-1.14.42-1.14.81s.23.66,1.21,1.05c1.31.51,1.85,1.04,1.85,1.96,0,1.2-.97,1.86-2.33,1.86-.71,0-1.37-.16-1.74-.38-.04-.03-.06-.05-.06-.12v-.87c0-.07.04-.09.08-.07.52.36,1.18.52,1.75.52.83,0,1.24-.36,1.24-.84s-.29-.77-1.18-1.12c-1.3-.49-1.85-1.03-1.85-1.95s.79-1.75,2.21-1.75c.71,0,1.25.13,1.52.29.07.03.07.08.07.13v.79c0,.07-.04.1-.1.07-.36-.22-.96-.38-1.51-.38Z"/>
        <path class="cls-2" d="m166.26,180.22c0,.05,0,.08-.05.09-.43.17-.94.21-1.42.21-2.12,0-3.21-1.51-3.21-3.26,0-1.9,1.35-3.32,3.39-3.32.66,0,1.03.08,1.24.17.05.03.05.05.05.12v.82c0,.06-.04.06-.09.05-.33-.13-.66-.2-1.2-.2-1.34,0-2.29.9-2.29,2.31,0,1.56,1.08,2.33,2.29,2.33.48,0,.88-.05,1.21-.18.07-.01.08.01.08.05v.81Z"/>
        <path class="cls-2" d="m168.65,180.31c0,.07-.01.08-.08.08h-.91c-.06,0-.09-.03-.09-.09v-9.15c0-.05.01-.08.08-.08h.94c.05,0,.07.01.07.07v3.56c.55-.49,1.17-.75,1.94-.75.92,0,2.12.46,2.12,2.51v3.85c0,.07-.03.09-.09.09h-.91c-.06,0-.09-.03-.09-.1v-3.72c0-1-.43-1.66-1.34-1.66-.64,0-1.21.26-1.62.72v4.69Z"/>
        <path class="cls-2" d="m178.88,179.28c0,.22,0,.42.03.62,0,.03,0,.04-.03.05-.94.44-1.68.56-2.43.56-1.38,0-2.42-.68-2.42-2.04s1.29-1.99,2.9-1.99c.48,0,.75.01.9.03v-.31c0-.4-.2-1.3-1.47-1.3-.62,0-1.2.14-1.65.39-.04.01-.09,0-.09-.07v-.79c0-.05.03-.08.06-.1.51-.25,1.16-.39,1.85-.39,1.66,0,2.35,1.09,2.35,2.44v2.9Zm-1.05-1.91c-.18-.03-.47-.05-.86-.05-1.26,0-1.87.43-1.87,1.16,0,.58.4,1.16,1.55,1.16.42,0,.81-.06,1.18-.22v-2.04Z"/>
        <path class="cls-2" d="m184.16,174.07c0-.48.05-1.36.12-1.66.01-.05.04-.08.08-.09l.88-.13c.05-.01.09-.01.09.04-.05.46-.08,1.21-.09,1.85h1.38c.07,0,.08.03.08.09v.77c0,.05-.03.08-.08.08h-1.38v3.65c0,.6.22.94.79.94.21,0,.4-.04.65-.13.04-.01.08-.01.08.05v.66c0,.07-.01.1-.07.13-.3.16-.64.21-.99.21-.94,0-1.56-.46-1.56-1.7v-3.81h-2.25v5.29c0,.05-.01.09-.08.09h-.92c-.05,0-.08-.03-.08-.09v-5.29h-.83c-.07,0-.08-.03-.08-.08v-.79s.04-.07.08-.07h.83v-.57c0-.69.09-1.2.29-1.59.34-.65.9-.97,1.69-.97.34,0,.49.04.61.09.07.03.07.07.07.1v.79c0,.05-.03.08-.08.06-.16-.06-.35-.09-.49-.09-.6,0-1,.29-1,1.52v.65h2.26Z"/>
        <path class="cls-2" d="m194.61,176.16c.48.43,1.29,1.36,1.85,2.18.57.84.95,1.16,1.53,1.16.13,0,.27-.01.38-.04.05-.01.07,0,.07.07v.77c0,.08,0,.1-.07.13-.14.07-.32.09-.6.09-.77,0-1.3-.22-2.2-1.59-.96-1.47-2.04-2.55-2.43-2.73-.56.01-1.55.52-1.55,1.64,0,.87.66,1.66,1.88,1.66.57,0,.99-.1,1.31-.26.05-.01.06.01.06.06v.85c0,.06-.03.08-.08.1-.25.13-.7.26-1.46.26-1.61,0-2.82-.97-2.82-2.59,0-1.33.94-2.16,1.98-2.48-.39-.38-.88-.95-.88-1.75,0-1.3,1.01-2.04,2.39-2.04.62,0,1.11.09,1.43.27.04.03.05.08.05.13v.83c0,.06-.04.08-.09.05-.27-.17-.75-.33-1.37-.33-.83,0-1.35.35-1.35,1.08,0,.57.51,1.09,1.09,1.51h4.19c.06,0,.08.03.06.08l-.14.81c-.01.06-.04.08-.09.08h-3.16Z"/>
        <path class="cls-2" d="m202.85,180.39c-.05,0-.08-.01-.08-.08v-8.4c0-.06.01-.1.08-.1.73-.03,1.39-.04,2.26-.04,1.91,0,3.19.82,3.19,2.48,0,1.22-.83,1.98-1.79,2.3.44.61,2.18,3.17,2.52,3.73.03.05.03.1-.04.1h-1.09c-.08,0-.1-.01-.14-.05-.4-.61-1.48-2.28-2.13-3.28-.1-.16-.17-.21-.3-.21h-1.48v3.46c0,.05-.03.08-.08.08h-.91Zm2.38-4.49c1.24,0,1.99-.64,1.99-1.6s-.75-1.57-2.14-1.57c-.49,0-.98.01-1.24.03v3.15h1.39Z"/>
        <path class="cls-2" d="m210.55,177.36c-.01,1.24.7,2.21,2.17,2.21.57,0,1.12-.1,1.62-.35.04-.03.07,0,.07.05v.74c0,.08-.03.1-.07.13-.44.22-1.01.38-1.83.38-2.25,0-3.05-1.65-3.05-3.24,0-1.82,1.07-3.34,2.87-3.34s2.54,1.51,2.54,2.61c0,.33-.03.56-.05.68,0,.04-.04.08-.09.08-.19.04-.77.05-1.34.05h-2.83Zm2.43-.81c.64,0,.79-.01.83-.03.01-.04.01-.1.01-.14,0-.47-.31-1.55-1.53-1.55-1.08,0-1.61.84-1.73,1.72h2.42Z"/>
        <path class="cls-2" d="m220.52,180.22c0,.05,0,.08-.05.09-.43.17-.94.21-1.42.21-2.12,0-3.21-1.51-3.21-3.26,0-1.9,1.35-3.32,3.39-3.32.66,0,1.03.08,1.23.17.05.03.05.05.05.12v.82c0,.06-.04.06-.09.05-.33-.13-.66-.2-1.2-.2-1.34,0-2.29.9-2.29,2.31,0,1.56,1.08,2.33,2.29,2.33.48,0,.88-.05,1.21-.18.06-.01.08.01.08.05v.81Z"/>
        <path class="cls-2" d="m222.91,180.31c0,.07-.01.08-.08.08h-.91c-.07,0-.09-.03-.09-.09v-9.15c0-.05.01-.08.08-.08h.94c.05,0,.06.01.06.07v3.56c.55-.49,1.17-.75,1.94-.75.92,0,2.12.46,2.12,2.51v3.85c0,.07-.03.09-.09.09h-.91c-.07,0-.09-.03-.09-.1v-3.72c0-1-.43-1.66-1.34-1.66-.64,0-1.21.26-1.62.72v4.69Z"/>
        <path class="cls-2" d="m231.52,180.21c0,.05-.01.1-.08.13-.3.13-.62.18-.97.18-.95,0-1.52-.46-1.52-1.7v-3.81h-.88c-.08-.01-.09-.04-.09-.1v-.74c0-.07.03-.09.09-.09h.88c.01-.48.07-1.38.12-1.66.01-.05.04-.08.09-.09l.88-.14c.05-.01.08,0,.08.05-.04.46-.08,1.21-.08,1.85h1.38c.05,0,.08.03.08.09v.77c0,.05-.03.08-.08.08h-1.38v3.65c0,.6.22.94.79.94.19,0,.39-.03.61-.1.04-.01.08-.01.08.05v.66Z"/>
      </g>
      <g>
        <path class="cls-2" d="m18.7,61.46c0,.07-.03.09-.08.09h-.94c-.05,0-.06-.04-.06-.09v-8.42c0-.05.01-.08.08-.08h4.77c.05,0,.08.03.09.08l.09.82c.01.07-.01.09-.08.09h-3.87v2.87h3.46c.06,0,.09.03.09.08v.83c0,.05-.04.08-.09.08h-3.46v3.65Z"/>
        <path class="cls-2" d="m24.34,55.23c.08,0,.09.03.12.09.05.16.09.61.1.9.46-.62,1.26-1.12,2.09-1.12.06,0,.09.01.09.09v.94c0,.06-.01.08-.09.08-.9-.01-1.72.43-2.04.95v4.32c-.01.07-.04.08-.09.08h-.92c-.07,0-.09-.03-.09-.09v-4.49c0-.55-.03-1.3-.06-1.66,0-.05.01-.08.06-.08h.83Z"/>
        <path class="cls-2" d="m28.38,58.52c-.01,1.24.7,2.21,2.17,2.21.57,0,1.12-.1,1.62-.35.04-.03.06,0,.06.05v.74c0,.08-.03.1-.06.13-.44.22-1.01.38-1.83.38-2.25,0-3.05-1.65-3.05-3.24,0-1.82,1.07-3.34,2.87-3.34s2.54,1.51,2.54,2.61c0,.33-.03.56-.05.68,0,.04-.04.08-.09.08-.2.04-.77.05-1.34.05h-2.83Zm2.43-.81c.64,0,.79-.01.83-.03.01-.04.01-.1.01-.14,0-.47-.31-1.55-1.53-1.55-1.08,0-1.61.84-1.73,1.72h2.42Z"/>
        <path class="cls-2" d="m33.97,53.32c0-.39.27-.66.66-.66.42,0,.65.29.65.66s-.26.66-.66.66-.65-.27-.65-.66Zm.1,2c0-.07.03-.09.09-.09h.92c.05,0,.08.01.08.08v6.15c0,.07-.01.09-.09.09h-.9c-.07,0-.1-.03-.1-.1v-6.12Z"/>
        <path class="cls-2" d="m37.64,58.52c-.01,1.24.7,2.21,2.17,2.21.57,0,1.12-.1,1.62-.35.04-.03.06,0,.06.05v.74c0,.08-.03.1-.06.13-.44.22-1.01.38-1.83.38-2.25,0-3.05-1.65-3.05-3.24,0-1.82,1.07-3.34,2.87-3.34s2.54,1.51,2.54,2.61c0,.33-.03.56-.05.68,0,.04-.04.08-.09.08-.2.04-.77.05-1.34.05h-2.83Zm2.43-.81c.64,0,.79-.01.83-.03.01-.04.01-.1.01-.14,0-.47-.31-1.55-1.53-1.55-1.08,0-1.61.84-1.73,1.72h2.42Z"/>
        <path class="cls-2" d="m51.53,61.47c-.01.07-.04.08-.09.08h-4.94c-.09,0-.1-.03-.1-.1v-8.4c0-.07.03-.09.09-.09h4.75c.07,0,.08.01.09.08l.1.82c.01.05,0,.09-.06.09h-3.89v2.72h3.51c.05,0,.08.03.08.08v.83c0,.06-.04.08-.08.08h-3.51v2.91h4.13c.07,0,.08.03.07.08l-.14.83Z"/>
        <path class="cls-2" d="m54.28,61.55c-.08,0-.09-.03-.12-.06-.27-.79-1.87-5.29-2.18-6.16-.01-.05-.01-.09.05-.09h1c.07,0,.08.03.1.08,1.09,3.29,1.56,4.71,1.7,5.24h.03c.16-.53.64-1.92,1.78-5.25.03-.05.05-.07.1-.07h.9s.08.03.05.09c-.38,1.01-1.96,5.37-2.25,6.15-.03.05-.05.08-.12.08h-1.05Z"/>
        <path class="cls-2" d="m62.97,60.44c0,.22,0,.42.03.62,0,.03,0,.04-.03.05-.94.44-1.68.56-2.43.56-1.38,0-2.42-.68-2.42-2.04s1.29-1.99,2.9-1.99c.48,0,.75.01.9.03v-.31c0-.4-.2-1.3-1.47-1.3-.62,0-1.2.14-1.65.39-.04.01-.09,0-.09-.07v-.79c0-.05.03-.08.07-.1.51-.25,1.16-.39,1.85-.39,1.66,0,2.35,1.09,2.35,2.44v2.9Zm-1.05-1.91c-.18-.03-.47-.05-.86-.05-1.26,0-1.87.43-1.87,1.16,0,.58.4,1.16,1.55,1.16.42,0,.81-.06,1.18-.22v-2.04Z"/>
        <path class="cls-2" d="m64.79,56.7c0-.44-.03-1.17-.05-1.39,0-.05.01-.08.08-.08h.81c.07,0,.09.03.12.08.04.12.05.36.08.65.57-.57,1.24-.86,1.99-.86.92,0,2.12.46,2.12,2.51v3.85c0,.07-.03.09-.09.09h-.91c-.07,0-.09-.03-.09-.1v-3.73c0-.99-.43-1.65-1.34-1.65-.66,0-1.21.3-1.62.79v4.6c0,.07-.01.09-.08.09h-.92c-.05,0-.08-.03-.08-.09v-4.76Z"/>
        <path class="cls-2" d="m74.44,60.48c1.61.08,2.52.66,2.52,1.81,0,1.3-1.23,2.33-3.15,2.33s-2.87-1.01-2.87-1.98c0-.44.38-1.03,1.27-1.78-.21-.29-.31-.62-.31-.98,0-.29.08-.57.22-.82-.53-.35-.88-.94-.88-1.76,0-1.21.9-2.21,2.43-2.21.4,0,.74.05.98.1.12.03.19.03.27.03h1.83c.06,0,.08.03.08.08v.74c0,.05-.01.08-.08.08-.34,0-.88-.03-1.2-.05.23.25.46.66.46,1.26,0,1.43-1.07,2.15-2.35,2.15-.25,0-.48-.03-.71-.08-.07.16-.09.32-.07.48.03.2.1.38.23.53l1.33.07Zm-1.6.87c-.53.38-.87.92-.87,1.21,0,.6.72,1.21,1.91,1.21,1.43,0,2.07-.68,2.07-1.33,0-.77-.81-.98-1.73-1.03l-1.38-.06Zm-.53-4.06c0,.79.47,1.37,1.34,1.37.82,0,1.33-.49,1.33-1.34,0-.75-.4-1.39-1.31-1.39-.82,0-1.35.53-1.35,1.37Z"/>
        <path class="cls-2" d="m78.51,58.52c-.01,1.24.7,2.21,2.17,2.21.57,0,1.12-.1,1.62-.35.04-.03.06,0,.06.05v.74c0,.08-.03.1-.06.13-.44.22-1.01.38-1.83.38-2.25,0-3.06-1.65-3.06-3.24,0-1.82,1.07-3.34,2.87-3.34s2.54,1.51,2.54,2.61c0,.33-.03.56-.05.68,0,.04-.04.08-.09.08-.2.04-.77.05-1.34.05h-2.83Zm2.43-.81c.64,0,.79-.01.83-.03.01-.04.01-.1.01-.14,0-.47-.31-1.55-1.54-1.55-1.08,0-1.61.84-1.73,1.72h2.42Z"/>
        <path class="cls-2" d="m84.14,52.3c0-.07.03-.08.09-.08h.91c.06,0,.08.03.08.08v7.84c0,.51.21.62.52.62.09,0,.14-.01.26-.04.04,0,.05.03.05.08v.68c0,.06-.01.08-.07.1-.12.05-.33.09-.6.09-.64,0-1.25-.22-1.25-1.44v-7.93Z"/>
        <path class="cls-2" d="m87.17,53.32c0-.39.27-.66.66-.66.42,0,.65.29.65.66s-.26.66-.66.66-.65-.27-.65-.66Zm.1,2c0-.07.03-.09.09-.09h.92c.05,0,.08.01.08.08v6.15c0,.07-.01.09-.09.09h-.9c-.07,0-.1-.03-.1-.1v-6.12Z"/>
        <path class="cls-2" d="m92.04,56c-.86,0-1.14.42-1.14.81s.23.66,1.21,1.05c1.31.51,1.85,1.04,1.85,1.96,0,1.2-.98,1.86-2.33,1.86-.71,0-1.37-.16-1.74-.38-.04-.03-.06-.05-.06-.12v-.87c0-.07.04-.09.08-.07.52.36,1.18.52,1.75.52.83,0,1.24-.36,1.24-.84s-.29-.77-1.18-1.12c-1.3-.49-1.85-1.03-1.85-1.95s.79-1.75,2.21-1.75c.71,0,1.25.13,1.52.29.06.03.06.08.06.13v.79c0,.07-.04.1-.1.07-.36-.22-.96-.38-1.51-.38Z"/>
        <path class="cls-2" d="m99.56,61.38c0,.05,0,.08-.05.09-.43.17-.94.21-1.42.21-2.12,0-3.21-1.51-3.21-3.26,0-1.9,1.35-3.32,3.39-3.32.66,0,1.03.08,1.23.17.05.03.05.05.05.12v.82c0,.06-.04.06-.09.05-.33-.13-.66-.2-1.2-.2-1.34,0-2.29.9-2.29,2.31,0,1.56,1.08,2.33,2.29,2.33.48,0,.88-.05,1.21-.18.06-.01.08.01.08.05v.81Z"/>
        <path class="cls-2" d="m101.95,61.47c0,.07-.01.08-.08.08h-.91c-.07,0-.09-.03-.09-.09v-9.15c0-.05.01-.08.08-.08h.94c.05,0,.06.01.06.07v3.56c.55-.49,1.17-.75,1.94-.75.92,0,2.12.46,2.12,2.51v3.85c0,.07-.03.09-.09.09h-.91c-.07,0-.09-.03-.09-.1v-3.72c0-1-.43-1.66-1.34-1.66-.64,0-1.21.26-1.62.72v4.69Z"/>
        <path class="cls-2" d="m108.47,58.52c-.01,1.24.7,2.21,2.17,2.21.57,0,1.12-.1,1.62-.35.04-.03.07,0,.07.05v.74c0,.08-.03.1-.07.13-.44.22-1.01.38-1.83.38-2.25,0-3.05-1.65-3.05-3.24,0-1.82,1.07-3.34,2.87-3.34s2.54,1.51,2.54,2.61c0,.33-.03.56-.05.68,0,.04-.04.08-.09.08-.19.04-.77.05-1.34.05h-2.83Zm2.43-.81c.64,0,.79-.01.83-.03.01-.04.01-.1.01-.14,0-.47-.31-1.55-1.53-1.55-1.08,0-1.61.84-1.73,1.72h2.42Z"/>
        <path class="cls-2" d="m17.14,76.18c-.07-.03-.08-.08-.08-.16v-.94c0-.05.04-.08.09-.04.68.46,1.51.64,2.22.64,1.25,0,1.82-.56,1.82-1.34,0-.61-.35-1.07-1.53-1.6l-.57-.23c-1.61-.69-1.98-1.51-1.98-2.38,0-1.35,1.04-2.31,2.79-2.31.82,0,1.52.13,1.92.35.05.03.07.07.07.13v.87c0,.05-.04.09-.1.05-.46-.29-1.17-.43-1.91-.43-1.35,0-1.72.7-1.72,1.25,0,.58.34,1.03,1.5,1.52l.56.23c1.6.68,2.07,1.48,2.07,2.46,0,1.4-1.05,2.42-2.95,2.42-.9,0-1.69-.19-2.2-.49Z"/>
        <path class="cls-2" d="m28.04,76.38c0,.05,0,.08-.05.09-.43.17-.94.21-1.42.21-2.12,0-3.21-1.51-3.21-3.26,0-1.9,1.35-3.32,3.39-3.32.66,0,1.03.08,1.23.17.05.03.05.05.05.12v.82c0,.06-.04.06-.09.05-.33-.13-.66-.2-1.2-.2-1.34,0-2.29.9-2.29,2.31,0,1.56,1.08,2.33,2.29,2.33.48,0,.88-.05,1.21-.18.06-.01.08.01.08.05v.81Z"/>
        <path class="cls-2" d="m30.44,76.47c0,.07-.01.08-.08.08h-.91c-.07,0-.09-.03-.09-.09v-9.15c0-.05.01-.08.08-.08h.94c.05,0,.07.01.07.07v3.56c.54-.49,1.17-.75,1.94-.75.92,0,2.12.46,2.12,2.51v3.85c0,.07-.03.09-.09.09h-.91c-.07,0-.09-.03-.09-.1v-3.72c0-1-.43-1.66-1.34-1.66-.64,0-1.21.26-1.62.72v4.69Z"/>
        <path class="cls-2" d="m41.36,75.17c0,.69.04,1.01.08,1.3,0,.05-.01.08-.08.08h-.83c-.07,0-.08-.01-.1-.06-.04-.14-.07-.38-.08-.56-.55.56-1.24.75-1.89.75-1.1,0-2.15-.56-2.15-2.44v-3.93c0-.06.03-.08.09-.08h.92c.05,0,.07.03.07.08v3.8c0,1,.47,1.61,1.38,1.61.62,0,1.12-.23,1.51-.66v-4.75c0-.05.03-.08.09-.08h.91c.08,0,.08.03.08.08v4.86Z"/>
        <path class="cls-2" d="m43.19,67.3c0-.07.03-.08.09-.08h.91c.06,0,.08.03.08.08v7.84c0,.51.21.62.52.62.09,0,.14-.01.26-.04.04,0,.05.03.05.08v.68c0,.06-.01.08-.07.1-.12.05-.33.09-.6.09-.64,0-1.25-.22-1.25-1.44v-7.93Z"/>
        <path class="cls-2" d="m46.96,73.52c-.01,1.24.7,2.21,2.17,2.21.57,0,1.12-.1,1.62-.35.04-.03.06,0,.06.05v.74c0,.08-.03.1-.06.13-.44.22-1.01.38-1.83.38-2.25,0-3.06-1.65-3.06-3.24,0-1.82,1.07-3.34,2.87-3.34s2.54,1.51,2.54,2.61c0,.33-.03.56-.05.68,0,.04-.04.08-.09.08-.2.04-.77.05-1.34.05h-2.83Zm2.43-.81c.64,0,.79-.01.83-.03.01-.04.01-.1.01-.14,0-.47-.31-1.55-1.54-1.55-1.08,0-1.61.84-1.73,1.72h2.42Z"/>
        <path class="cls-2" d="m54.94,76.55c-.05,0-.09-.01-.09-.08v-.6c0-.05.01-.08.04-.13l4.98-6.8h-4.79c-.05,0-.08-.01-.06-.09l.14-.82c.01-.07.04-.08.1-.08h5.92c.07,0,.08.03.08.06v.62c0,.05-.01.1-.06.16l-4.93,6.76h5.1c.07,0,.08.03.07.09l-.17.82c-.01.05-.03.08-.09.08h-6.23Z"/>
        <path class="cls-2" d="m67.42,75.17c0,.69.04,1.01.08,1.3,0,.05-.01.08-.08.08h-.83c-.07,0-.08-.01-.1-.06-.04-.14-.07-.38-.08-.56-.55.56-1.24.75-1.89.75-1.1,0-2.15-.56-2.15-2.44v-3.93c0-.06.03-.08.09-.08h.92c.05,0,.07.03.07.08v3.8c0,1,.47,1.61,1.38,1.61.62,0,1.12-.23,1.51-.66v-4.75c0-.05.03-.08.09-.08h.91c.08,0,.08.03.08.08v4.86Zm-4.25-6.85c0-.38.26-.61.61-.61.33,0,.56.25.56.61s-.26.6-.58.6-.59-.23-.59-.6Zm2.38,0c0-.38.27-.61.6-.61s.57.25.57.61-.25.6-.58.6-.58-.23-.58-.6Z"/>
        <path class="cls-2" d="m70.09,70.23c.08,0,.09.03.12.09.05.16.09.61.1.9.46-.62,1.26-1.12,2.09-1.12.07,0,.09.01.09.09v.94c0,.06-.01.08-.09.08-.9-.01-1.72.43-2.04.95v4.32c-.01.07-.04.08-.09.08h-.92c-.06,0-.09-.03-.09-.09v-4.49c0-.55-.03-1.3-.07-1.66,0-.05.01-.08.07-.08h.83Z"/>
        <path class="cls-2" d="m73.37,68.32c0-.39.27-.66.66-.66.42,0,.65.29.65.66s-.26.66-.66.66-.65-.27-.65-.66Zm.1,2c0-.07.03-.09.09-.09h.92c.05,0,.08.01.08.08v6.15c0,.07-.01.09-.09.09h-.9c-.07,0-.1-.03-.1-.1v-6.12Z"/>
        <path class="cls-2" d="m80.63,76.38c0,.05,0,.08-.05.09-.43.17-.94.21-1.42.21-2.12,0-3.21-1.51-3.21-3.26,0-1.9,1.35-3.32,3.39-3.32.66,0,1.03.08,1.24.17.05.03.05.05.05.12v.82c0,.06-.04.06-.09.05-.33-.13-.66-.2-1.2-.2-1.34,0-2.29.9-2.29,2.31,0,1.56,1.08,2.33,2.29,2.33.48,0,.88-.05,1.21-.18.07-.01.08.01.08.05v.81Z"/>
        <path class="cls-2" d="m83.02,76.47c0,.07-.01.08-.08.08h-.91c-.06,0-.09-.03-.09-.09v-9.15c0-.05.01-.08.08-.08h.94c.05,0,.07.01.07.07v3.56c.55-.49,1.17-.75,1.94-.75.92,0,2.12.46,2.12,2.51v3.85c0,.07-.03.09-.09.09h-.91c-.06,0-.09-.03-.09-.1v-3.72c0-1-.43-1.66-1.34-1.66-.64,0-1.21.26-1.62.72v4.69Z"/>
        <path class="cls-2" d="m88.19,78.45c-.07,0-.09-.03-.07-.08.58-1.2.73-2.18.66-3.33,0-.04.03-.07.05-.07h.87c.07,0,.08.03.09.09.08,1.2-.17,2.4-.74,3.31-.01.03-.04.07-.1.07h-.77Z"/>
        <path class="cls-2" d="m93.89,76.18c-.06-.03-.08-.08-.08-.16v-.94c0-.05.04-.08.09-.04.68.46,1.51.64,2.22.64,1.25,0,1.82-.56,1.82-1.34,0-.61-.35-1.07-1.54-1.6l-.57-.23c-1.61-.69-1.98-1.51-1.98-2.38,0-1.35,1.04-2.31,2.79-2.31.82,0,1.52.13,1.92.35.05.03.06.07.06.13v.87c0,.05-.04.09-.1.05-.46-.29-1.17-.43-1.91-.43-1.35,0-1.72.7-1.72,1.25,0,.58.34,1.03,1.49,1.52l.56.23c1.6.68,2.07,1.48,2.07,2.46,0,1.4-1.05,2.42-2.95,2.42-.9,0-1.69-.19-2.2-.49Z"/>
        <path class="cls-2" d="m101.21,73.52c-.01,1.24.7,2.21,2.17,2.21.57,0,1.12-.1,1.62-.35.04-.03.07,0,.07.05v.74c0,.08-.03.1-.07.13-.44.22-1.01.38-1.83.38-2.25,0-3.06-1.65-3.06-3.24,0-1.82,1.07-3.34,2.87-3.34s2.53,1.51,2.53,2.61c0,.33-.03.56-.05.68,0,.04-.04.08-.09.08-.2.04-.77.05-1.34.05h-2.83Zm2.43-.81c.64,0,.79-.01.83-.03.01-.04.01-.1.01-.14,0-.47-.31-1.55-1.53-1.55-1.08,0-1.61.84-1.73,1.72h2.42Z"/>
        <path class="cls-2" d="m111.83,70.23c.06,0,.09.05.04.1-.36.4-2.33,2.3-2.81,2.77-.01.01,0,.04,0,.05.85.88,2.26,2.35,3.21,3.3.04.04.01.09-.05.09h-1.23c-.07,0-.09-.03-.13-.06-.68-.69-2.31-2.41-2.94-3.08v3.05c0,.07-.01.09-.08.09h-.91c-.08,0-.09-.03-.09-.09v-9.15c0-.05.01-.08.09-.08h.91c.05,0,.08.03.08.08v5.82c.61-.61,2.41-2.47,2.74-2.83.05-.05.08-.07.13-.07h1.04Z"/>
        <path class="cls-2" d="m117.08,73.84l-.94,2.63c-.01.05-.04.08-.1.08h-.88c-.06,0-.09-.04-.08-.1l2.83-7.89c.04-.1.08-.2.09-.53,0-.04.03-.06.06-.06h1.27c.05,0,.07.01.08.06l3.05,8.44c.03.05.01.09-.05.09h-.99c-.05,0-.08-.03-.1-.06l-.95-2.64h-3.3Zm3-1c-.29-.84-1.11-3.12-1.35-4h-.01c-.22.83-.84,2.57-1.34,4h2.7Z"/>
        <path class="cls-2" d="m126.57,69.89s.06.01.06.08v2.79h2.69c.05,0,.06.01.06.08v.65c0,.06-.03.08-.08.08h-2.68v2.82c0,.05-.01.07-.08.07h-.7c-.05,0-.06-.03-.06-.07v-2.82h-2.7s-.08-.03-.08-.08v-.66c0-.05.04-.07.08-.07h2.7v-2.81s.01-.07.06-.07h.72Z"/>
      </g>
      <g>
        <path class="cls-2" d="m249.98,5.67c-.06-.01-.09-.03-.09-.09v-.79c0-.05.04-.07.08-.07h2.82c.08,0,.09.03.09.08v4.12c.01.05-.01.08-.06.1-.85.34-1.7.43-2.42.43-2.95,0-4.51-1.91-4.51-4.38,0-2.73,1.91-4.47,4.68-4.47.88,0,1.6.1,2.07.33.05.03.06.06.06.13v.86c0,.06-.04.08-.08.05-.58-.3-1.3-.38-2.03-.38-2.21-.03-3.59,1.29-3.59,3.45,0,1.91,1.18,3.46,3.44,3.46.58,0,1-.07,1.34-.21v-2.59l-1.81-.03Z"/>
        <path class="cls-2" d="m255.35,6.29c-.01,1.24.7,2.21,2.17,2.21.57,0,1.12-.1,1.62-.35.04-.03.07,0,.07.05v.74c0,.08-.03.1-.07.13-.44.22-1.01.38-1.83.38-2.25,0-3.06-1.65-3.06-3.24,0-1.82,1.07-3.34,2.87-3.34s2.54,1.51,2.54,2.61c0,.32-.03.56-.05.68,0,.04-.04.08-.09.08-.19.04-.77.05-1.34.05h-2.83Zm2.43-.81c.64,0,.79-.01.83-.03.01-.04.01-.1.01-.14,0-.47-.31-1.55-1.53-1.55-1.08,0-1.61.85-1.73,1.72h2.42Z"/>
        <path class="cls-2" d="m262.91,3.77c-.86,0-1.14.42-1.14.81s.23.66,1.21,1.05c1.31.51,1.85,1.04,1.85,1.96,0,1.2-.97,1.86-2.33,1.86-.72,0-1.37-.16-1.74-.38-.04-.03-.07-.05-.07-.12v-.87c0-.06.04-.09.08-.06.52.36,1.18.52,1.76.52.83,0,1.23-.36,1.23-.84s-.29-.77-1.18-1.12c-1.3-.49-1.85-1.03-1.85-1.95s.79-1.75,2.21-1.75c.71,0,1.25.13,1.52.29.07.03.07.08.07.13v.79c0,.06-.04.1-.1.06-.36-.22-.96-.38-1.51-.38Z"/>
        <path class="cls-2" d="m268.95,9.14c0,.05-.01.1-.08.13-.3.13-.62.18-.98.18-.95,0-1.52-.46-1.52-1.7v-3.81h-.88c-.08-.01-.09-.04-.09-.1v-.74c0-.06.03-.09.09-.09h.88c.01-.48.06-1.38.12-1.66.01-.05.04-.08.09-.09l.88-.14c.05-.01.08,0,.08.05-.04.45-.08,1.21-.08,1.85h1.38c.05,0,.08.03.08.09v.77c0,.05-.03.08-.08.08h-1.38v3.65c0,.6.22.94.79.94.2,0,.39-.03.61-.1.04-.01.08-.01.08.05v.66Z"/>
        <path class="cls-2" d="m274.55,8.22c0,.22,0,.42.03.62,0,.03,0,.04-.03.05-.94.44-1.68.56-2.43.56-1.38,0-2.42-.68-2.42-2.04s1.29-1.99,2.9-1.99c.48,0,.75.01.9.03v-.31c0-.4-.2-1.3-1.47-1.3-.62,0-1.2.14-1.65.39-.04.01-.09,0-.09-.06v-.79c0-.05.03-.08.07-.1.51-.25,1.16-.39,1.85-.39,1.66,0,2.35,1.09,2.35,2.44v2.9Zm-1.05-1.91c-.18-.03-.47-.05-.86-.05-1.26,0-1.87.43-1.87,1.16,0,.58.4,1.16,1.55,1.16.42,0,.81-.07,1.18-.22v-2.04Z"/>
        <path class="cls-2" d="m276.37.08c0-.07.03-.08.09-.08h.91c.06,0,.08.03.08.08v7.84c0,.51.21.62.52.62.09,0,.14-.01.26-.04.04,0,.05.03.05.08v.68c0,.07-.01.08-.07.1-.12.05-.32.09-.6.09-.64,0-1.25-.22-1.25-1.44V.08Z"/>
        <path class="cls-2" d="m282.32,9.14c0,.05-.01.1-.08.13-.3.13-.62.18-.98.18-.95,0-1.52-.46-1.52-1.7v-3.81h-.88c-.08-.01-.09-.04-.09-.1v-.74c0-.06.03-.09.09-.09h.88c.01-.48.06-1.38.12-1.66.01-.05.04-.08.09-.09l.88-.14c.05-.01.08,0,.08.05-.04.45-.08,1.21-.08,1.85h1.38c.05,0,.08.03.08.09v.77c0,.05-.03.08-.08.08h-1.38v3.65c0,.6.22.94.79.94.2,0,.39-.03.61-.1.04-.01.08-.01.08.05v.66Z"/>
        <path class="cls-2" d="m284.05,6.29c-.01,1.24.7,2.21,2.17,2.21.57,0,1.12-.1,1.62-.35.04-.03.07,0,.07.05v.74c0,.08-.03.1-.07.13-.44.22-1.01.38-1.83.38-2.25,0-3.05-1.65-3.05-3.24,0-1.82,1.07-3.34,2.87-3.34s2.54,1.51,2.54,2.61c0,.32-.03.56-.05.68,0,.04-.04.08-.09.08-.19.04-.77.05-1.34.05h-2.83Zm2.43-.81c.64,0,.79-.01.83-.03.01-.04.01-.1.01-.14,0-.47-.31-1.55-1.53-1.55-1.08,0-1.61.85-1.73,1.72h2.42Z"/>
        <path class="cls-2" d="m290.51,3c.08,0,.09.03.12.09.05.16.09.61.1.9.46-.62,1.26-1.12,2.09-1.12.07,0,.09.01.09.09v.94c0,.07-.01.08-.09.08-.9-.01-1.72.43-2.04.95v4.32c-.01.06-.04.08-.09.08h-.92c-.06,0-.09-.03-.09-.09v-4.49c0-.55-.03-1.3-.07-1.66,0-.05.01-.08.07-.08h.83Z"/>
        <path class="cls-2" d="m293.8,1.09c0-.39.27-.66.66-.66.42,0,.65.29.65.66s-.26.66-.66.66-.65-.27-.65-.66Zm.1,2c0-.06.03-.09.09-.09h.92c.05,0,.08.01.08.08v6.15c0,.06-.01.09-.09.09h-.9c-.06,0-.1-.03-.1-.1V3.09Z"/>
        <path class="cls-2" d="m298.68,3.77c-.86,0-1.14.42-1.14.81s.23.66,1.21,1.05c1.31.51,1.85,1.04,1.85,1.96,0,1.2-.97,1.86-2.33,1.86-.72,0-1.37-.16-1.74-.38-.04-.03-.07-.05-.07-.12v-.87c0-.06.04-.09.08-.06.52.36,1.18.52,1.76.52.83,0,1.23-.36,1.23-.84s-.29-.77-1.18-1.12c-1.3-.49-1.85-1.03-1.85-1.95s.79-1.75,2.21-1.75c.71,0,1.25.13,1.52.29.07.03.07.08.07.13v.79c0,.06-.04.1-.1.06-.36-.22-.96-.38-1.51-.38Z"/>
        <path class="cls-2" d="m306.19,9.15c0,.05,0,.08-.05.09-.43.17-.94.21-1.42.21-2.12,0-3.21-1.51-3.21-3.26,0-1.9,1.35-3.31,3.39-3.31.66,0,1.03.08,1.24.17.05.03.05.05.05.12v.82c0,.07-.04.07-.09.05-.33-.13-.66-.2-1.2-.2-1.34,0-2.29.9-2.29,2.31,0,1.56,1.08,2.33,2.29,2.33.48,0,.88-.05,1.21-.18.07-.01.08.01.08.05v.81Z"/>
        <path class="cls-2" d="m308.58,9.24c0,.06-.01.08-.08.08h-.91c-.06,0-.09-.03-.09-.09V.08c0-.05.01-.08.08-.08h.94c.05,0,.06.01.06.06v3.56c.55-.49,1.17-.75,1.94-.75.92,0,2.12.46,2.12,2.51v3.85c0,.06-.03.09-.09.09h-.91c-.06,0-.09-.03-.09-.1v-3.72c0-1-.43-1.66-1.34-1.66-.64,0-1.21.26-1.62.71v4.69Z"/>
        <path class="cls-2" d="m315.11,6.29c-.01,1.24.7,2.21,2.17,2.21.57,0,1.12-.1,1.62-.35.04-.03.06,0,.06.05v.74c0,.08-.03.1-.06.13-.44.22-1.01.38-1.83.38-2.25,0-3.06-1.65-3.06-3.24,0-1.82,1.07-3.34,2.87-3.34s2.54,1.51,2.54,2.61c0,.32-.03.56-.05.68,0,.04-.04.08-.09.08-.2.04-.77.05-1.34.05h-2.83Zm2.43-.81c.64,0,.79-.01.83-.03.01-.04.01-.1.01-.14,0-.47-.31-1.55-1.54-1.55-1.08,0-1.61.85-1.73,1.72h2.42Z"/>
        <path class="cls-2" d="m322.67,3.77c-.86,0-1.14.42-1.14.81s.23.66,1.21,1.05c1.31.51,1.85,1.04,1.85,1.96,0,1.2-.98,1.86-2.33,1.86-.71,0-1.37-.16-1.74-.38-.04-.03-.06-.05-.06-.12v-.87c0-.06.04-.09.08-.06.52.36,1.18.52,1.75.52.83,0,1.24-.36,1.24-.84s-.29-.77-1.18-1.12c-1.3-.49-1.85-1.03-1.85-1.95s.79-1.75,2.21-1.75c.71,0,1.25.13,1.52.29.07.03.07.08.07.13v.79c0,.06-.04.1-.1.06-.36-.22-.96-.38-1.51-.38Z"/>
        <path class="cls-2" d="m247.32,15.83c0-.05.01-.09.07-.09.42-.01,1.27-.04,2.14-.04,2.3,0,3.32,1.3,3.32,2.76,0,1.98-1.56,2.9-3.45,2.9-.55,0-.71-.01-1-.01v2.89c0,.06-.01.09-.08.09h-.92c-.05,0-.08-.03-.08-.08v-8.41Zm1.08,4.54c.22.01.44.01.99.01,1.27,0,2.38-.48,2.38-1.9,0-1.18-.91-1.82-2.22-1.82-.53,0-.94.01-1.14.03v3.68Z"/>
        <path class="cls-2" d="m254.91,18c.08,0,.09.03.12.09.05.16.09.61.1.9.46-.62,1.26-1.12,2.09-1.12.07,0,.09.01.09.09v.94c0,.07-.01.08-.09.08-.9-.01-1.71.43-2.04.95v4.32c-.01.06-.04.08-.09.08h-.92c-.06,0-.09-.03-.09-.09v-4.49c0-.55-.03-1.3-.07-1.66,0-.05.01-.08.07-.08h.83Z"/>
        <path class="cls-2" d="m263.82,21.15c0,1.98-1.22,3.3-2.96,3.3-2.09,0-2.99-1.69-2.99-3.29,0-1.83,1.17-3.29,2.99-3.29s2.96,1.4,2.96,3.28Zm-4.86-.01c0,1.33.69,2.38,1.92,2.38.92,0,1.83-.73,1.83-2.34,0-1.21-.56-2.37-1.91-2.37-1.09,0-1.85.94-1.85,2.33Z"/>
        <path class="cls-2" d="m270.63,20.94c0,2.37-1.87,3.51-3.72,3.51-.3,0-.48-.03-.66-.05v2.6c0,.05,0,.08-.07.09-.3.03-.9.09-.95.1-.05,0-.06-.01-.06-.08v-8.1c0-.12-.01-.4-.03-.57,0-.01,0-.04.03-.05.46-.17,1.31-.52,2.42-.52,1.92,0,3.04,1.33,3.04,3.07Zm-4.38-1.91v4.41c.22.06.49.08.74.08,1.26,0,2.54-.78,2.54-2.51,0-1.33-.75-2.18-2.07-2.18-.46,0-.84.08-1.21.21Z"/>
        <path class="cls-2" d="m276.45,23.22c0,.22,0,.42.03.62,0,.03,0,.04-.03.05-.94.44-1.68.56-2.43.56-1.38,0-2.42-.68-2.42-2.04s1.29-1.99,2.9-1.99c.48,0,.75.01.9.03v-.31c0-.4-.2-1.3-1.47-1.3-.62,0-1.2.14-1.65.39-.04.01-.09,0-.09-.06v-.79c0-.05.03-.08.07-.1.51-.25,1.16-.39,1.85-.39,1.66,0,2.35,1.09,2.35,2.44v2.9Zm-3.95-7.14c0-.38.26-.61.61-.61.32,0,.56.25.56.61s-.26.6-.58.6-.58-.23-.58-.6Zm2.9,5.23c-.18-.03-.47-.05-.86-.05-1.26,0-1.87.43-1.87,1.16,0,.58.4,1.16,1.55,1.16.42,0,.81-.07,1.18-.22v-2.04Zm-.52-5.23c0-.38.27-.61.6-.61s.57.25.57.61-.25.6-.58.6-.58-.23-.58-.6Z"/>
        <path class="cls-2" d="m277.77,21.21c0-1.91,1.42-3.34,3.54-3.34.36,0,.57.04.82.08v-2.87c0-.07.03-.08.08-.08h.94c.07,0,.08.03.08.06v8.19c0,.18,0,.4.03.62,0,.05-.01.07-.07.09-.74.35-1.47.48-2.2.48-1.81,0-3.21-1.09-3.21-3.24Zm4.35-2.28c-.21-.09-.52-.13-.84-.13-1.48,0-2.41,1-2.41,2.35,0,1.69,1.07,2.34,2.21,2.34.34,0,.74-.04,1.04-.17v-4.39Z"/>
        <path class="cls-2" d="m285.67,21.29c-.01,1.24.7,2.21,2.17,2.21.57,0,1.12-.1,1.62-.35.04-.03.06,0,.06.05v.74c0,.08-.03.1-.06.13-.44.22-1.01.38-1.83.38-2.25,0-3.06-1.65-3.06-3.24,0-1.82,1.07-3.34,2.87-3.34s2.54,1.51,2.54,2.61c0,.32-.03.56-.05.68,0,.04-.04.08-.09.08-.2.04-.77.05-1.34.05h-2.83Zm2.43-.81c.64,0,.79-.01.83-.03.01-.04.01-.1.01-.14,0-.47-.31-1.55-1.54-1.55-1.08,0-1.61.85-1.73,1.72h2.42Z"/>
        <path class="cls-2" d="m296.33,22.94c0,.69.04,1.01.08,1.3,0,.05-.01.08-.08.08h-.83c-.06,0-.08-.01-.1-.07-.04-.14-.06-.38-.08-.56-.55.56-1.23.75-1.88.75-1.11,0-2.15-.56-2.15-2.44v-3.93c0-.07.03-.08.09-.08h.92c.05,0,.06.03.06.08v3.8c0,1,.47,1.61,1.38,1.61.62,0,1.12-.23,1.51-.66v-4.75c0-.05.03-.08.09-.08h.91c.08,0,.08.03.08.08v4.86Z"/>
        <path class="cls-2" d="m301.01,24.14c0,.05-.01.1-.08.13-.3.13-.62.18-.98.18-.95,0-1.52-.46-1.52-1.7v-3.81h-.88c-.08-.01-.09-.04-.09-.1v-.74c0-.06.03-.09.09-.09h.88c.01-.48.07-1.38.12-1.66.01-.05.04-.08.09-.09l.88-.14c.05-.01.08,0,.08.05-.04.45-.08,1.21-.08,1.85h1.38c.05,0,.08.03.08.09v.77c0,.05-.03.08-.08.08h-1.38v3.65c0,.6.22.94.79.94.2,0,.39-.03.61-.1.04-.01.08-.01.08.05v.66Z"/>
        <path class="cls-2" d="m302.09,16.09c0-.39.27-.66.66-.66.42,0,.65.29.65.66s-.26.66-.66.66-.65-.27-.65-.66Zm.1,2c0-.06.03-.09.09-.09h.92c.05,0,.08.01.08.08v6.15c0,.06-.01.09-.09.09h-.9c-.06,0-.1-.03-.1-.1v-6.12Z"/>
        <path class="cls-2" d="m310.11,18c.07,0,.09.05.04.1-.36.4-2.33,2.3-2.81,2.77-.01.01,0,.04,0,.05.84.88,2.26,2.35,3.21,3.3.04.04.01.09-.05.09h-1.23c-.07,0-.09-.03-.13-.07-.68-.69-2.31-2.41-2.94-3.08v3.06c0,.06-.01.09-.08.09h-.91c-.08,0-.09-.03-.09-.09v-9.15c0-.05.01-.08.09-.08h.91c.05,0,.08.03.08.08v5.82c.61-.61,2.4-2.47,2.74-2.83.05-.05.08-.06.13-.06h1.04Z"/>
        <path class="cls-2" d="m316,22.94c0,.69.04,1.01.08,1.3,0,.05-.01.08-.08.08h-.83c-.07,0-.08-.01-.1-.07-.04-.14-.07-.38-.08-.56-.55.56-1.24.75-1.89.75-1.1,0-2.14-.56-2.14-2.44v-3.93c0-.07.03-.08.09-.08h.92c.05,0,.07.03.07.08v3.8c0,1,.47,1.61,1.38,1.61.62,0,1.12-.23,1.51-.66v-4.75c0-.05.03-.08.09-.08h.91c.08,0,.08.03.08.08v4.86Z"/>
        <path class="cls-2" d="m317.91,24.32c-.07,0-.08-.03-.08-.09v-4.86c0-.57-.03-1.04-.05-1.29,0-.05.01-.08.08-.08h.82c.05,0,.08.03.1.06.04.13.06.42.08.62.6-.56,1.23-.82,1.95-.82.78,0,1.37.3,1.73.95.55-.53,1.22-.95,2.17-.95s2.11.51,2.11,2.48v3.89c0,.05-.03.08-.09.08h-.9c-.07,0-.09-.03-.09-.09v-3.8c0-.88-.4-1.6-1.33-1.6-.65,0-1.18.29-1.6.75.04.16.07.52.07.83v3.81c0,.06-.03.09-.09.09h-.91c-.06,0-.09-.03-.09-.09v-3.84c0-.99-.46-1.56-1.3-1.56-.61,0-1.08.23-1.57.73v4.68c0,.05-.01.08-.08.08h-.92Z"/>
        <path class="cls-2" d="m327.93,26.22c-.07,0-.09-.03-.07-.08.59-1.2.73-2.18.66-3.33,0-.04.03-.07.05-.07h.87c.07,0,.08.03.09.09.08,1.2-.17,2.41-.74,3.32-.01.03-.04.06-.1.06h-.77Z"/>
        <path class="cls-2" d="m275.22,39.32c-.05,0-.09-.01-.09-.08v-.6c0-.05.01-.08.04-.13l4.98-6.8h-4.78c-.05,0-.08-.01-.06-.09l.14-.82c.01-.06.04-.08.1-.08h5.92c.06,0,.08.03.08.07v.62c0,.05-.01.1-.07.16l-4.93,6.76h5.1c.06,0,.08.03.06.09l-.17.82c-.01.05-.03.08-.09.08h-6.23Z"/>
        <path class="cls-2" d="m288.41,39.32c-.07,0-.09-.01-.09-.08v-3.93h-4.3v3.91c0,.05-.03.09-.09.09h-.91c-.06,0-.09-.03-.09-.09v-8.41c0-.06.03-.09.09-.09h.91c.07,0,.09.03.09.08v3.52h4.3v-3.52c0-.05.03-.08.08-.08h.95s.06.03.06.08v8.44c0,.06-.03.08-.08.08h-.92Z"/>
        <path class="cls-2" d="m290.86,36.21c0-1.91,1.42-3.34,3.54-3.34.36,0,.57.04.82.08v-2.87c0-.07.03-.08.08-.08h.94c.06,0,.08.03.08.06v8.19c0,.18,0,.4.03.62,0,.05-.01.07-.06.09-.74.35-1.47.48-2.2.48-1.81,0-3.21-1.09-3.21-3.24Zm4.36-2.28c-.21-.09-.52-.13-.85-.13-1.48,0-2.4,1-2.4,2.35,0,1.69,1.07,2.34,2.21,2.34.34,0,.74-.04,1.04-.17v-4.39Z"/>
        <path class="cls-2" d="m299.23,39.23c0,.06-.03.09-.08.09h-.91c-.06,0-.09-.03-.09-.1v-8.41c0-.05.01-.08.08-.08h.92c.05,0,.08.03.08.09v8.41Zm5.06-8.5c.09,0,.1.07.07.12l-3.81,3.99s-.03.05,0,.09l4.11,4.28c.04.05.01.12-.05.12h-1.14c-.07,0-.1-.01-.17-.08l-3.99-4.15c-.08-.08-.08-.13,0-.19l3.83-4.11s.06-.07.13-.07h1.03Z"/>
      </g>
      <g>
        <path class="cls-2" d="m339.93,60c0-1.91,1.42-3.34,3.54-3.34.36,0,.57.04.82.08v-2.87c0-.07.03-.08.08-.08h.94c.06,0,.08.03.08.07v8.19c0,.18,0,.4.03.62,0,.05-.01.06-.06.09-.74.35-1.47.48-2.2.48-1.81,0-3.21-1.09-3.21-3.24Zm4.35-2.28c-.21-.09-.52-.13-.84-.13-1.48,0-2.41,1-2.41,2.35,0,1.69,1.07,2.34,2.21,2.34.34,0,.74-.04,1.04-.17v-4.39Z"/>
        <path class="cls-2" d="m352.12,61.73c0,.69.04,1.01.08,1.3,0,.05-.01.08-.08.08h-.83c-.06,0-.08-.01-.1-.06-.04-.14-.07-.38-.08-.56-.55.56-1.24.75-1.88.75-1.11,0-2.15-.56-2.15-2.44v-3.93c0-.06.03-.08.09-.08h.92c.05,0,.06.03.06.08v3.8c0,1,.47,1.61,1.38,1.61.62,0,1.12-.23,1.51-.66v-4.75c0-.05.03-.08.09-.08h.91c.08,0,.08.03.08.08v4.86Z"/>
        <path class="cls-2" d="m354.79,56.79c.08,0,.09.03.12.09.05.16.09.61.1.9.46-.62,1.26-1.12,2.09-1.12.07,0,.09.01.09.09v.94c0,.06-.01.08-.09.08-.9-.01-1.72.43-2.04.95v4.32c-.01.07-.04.08-.09.08h-.92c-.06,0-.09-.03-.09-.09v-4.49c0-.55-.03-1.3-.07-1.66,0-.05.01-.08.07-.08h.83Z"/>
        <path class="cls-2" d="m362.42,62.94c0,.05,0,.08-.05.09-.43.17-.94.21-1.42.21-2.12,0-3.21-1.51-3.21-3.26,0-1.9,1.35-3.32,3.39-3.32.66,0,1.03.08,1.24.17.05.03.05.05.05.12v.82c0,.06-.04.06-.09.05-.33-.13-.66-.2-1.2-.2-1.34,0-2.29.9-2.29,2.31,0,1.56,1.08,2.33,2.29,2.33.48,0,.88-.05,1.21-.18.07-.01.08.01.08.05v.81Z"/>
        <path class="cls-2" d="m364.81,63.03c0,.07-.01.08-.08.08h-.91c-.06,0-.09-.03-.09-.09v-9.15c0-.05.01-.08.08-.08h.94c.05,0,.06.01.06.07v3.56c.55-.49,1.17-.75,1.94-.75.92,0,2.12.46,2.12,2.51v3.85c0,.07-.03.09-.09.09h-.91c-.07,0-.09-.03-.09-.1v-3.72c0-1-.43-1.66-1.34-1.66-.64,0-1.21.26-1.62.72v4.69Z"/>
        <path class="cls-2" d="m372.47,57.56c-.86,0-1.14.42-1.14.81s.23.66,1.21,1.05c1.31.51,1.85,1.04,1.85,1.96,0,1.2-.97,1.86-2.33,1.86-.72,0-1.37-.16-1.74-.38-.04-.03-.07-.05-.07-.12v-.87c0-.07.04-.09.08-.07.52.36,1.18.52,1.76.52.83,0,1.23-.36,1.23-.84s-.29-.77-1.18-1.12c-1.3-.49-1.85-1.03-1.85-1.95s.79-1.75,2.21-1.75c.71,0,1.25.13,1.52.29.07.03.07.08.07.13v.79c0,.07-.04.1-.1.07-.36-.22-.96-.38-1.51-.38Z"/>
        <path class="cls-2" d="m378.5,62.93c0,.05-.01.1-.08.13-.3.13-.62.18-.97.18-.95,0-1.52-.46-1.52-1.7v-3.81h-.88c-.08-.01-.09-.04-.09-.1v-.74c0-.07.03-.09.09-.09h.88c.01-.48.06-1.38.12-1.66.01-.05.04-.08.09-.09l.88-.14c.05-.01.08,0,.08.05-.04.46-.08,1.21-.08,1.85h1.38c.05,0,.08.03.08.09v.77c0,.05-.03.08-.08.08h-1.38v3.65c0,.6.22.94.79.94.2,0,.39-.03.61-.1.04-.01.08-.01.08.05v.66Z"/>
        <path class="cls-2" d="m384.1,62.01c0,.22,0,.42.03.62,0,.03,0,.04-.03.05-.94.44-1.68.56-2.43.56-1.38,0-2.42-.68-2.42-2.04s1.29-1.99,2.9-1.99c.48,0,.75.01.9.03v-.31c0-.4-.19-1.3-1.47-1.3-.62,0-1.2.14-1.65.39-.04.01-.09,0-.09-.07v-.79c0-.05.03-.08.07-.1.51-.25,1.16-.39,1.85-.39,1.66,0,2.35,1.09,2.35,2.44v2.9Zm-1.05-1.91c-.18-.03-.47-.05-.86-.05-1.26,0-1.87.43-1.87,1.16,0,.58.4,1.16,1.55,1.16.42,0,.81-.06,1.18-.22v-2.04Z"/>
        <path class="cls-2" d="m386.75,56.79c.08,0,.09.03.12.09.05.16.09.61.1.9.46-.62,1.26-1.12,2.09-1.12.06,0,.09.01.09.09v.94c0,.06-.01.08-.09.08-.9-.01-1.72.43-2.04.95v4.32c-.01.07-.04.08-.09.08h-.92c-.07,0-.09-.03-.09-.09v-4.49c0-.55-.03-1.3-.06-1.66,0-.05.01-.08.06-.08h.83Z"/>
        <path class="cls-2" d="m393.38,62.93c0,.05-.01.1-.08.13-.3.13-.62.18-.98.18-.95,0-1.52-.46-1.52-1.7v-3.81h-.88c-.08-.01-.09-.04-.09-.1v-.74c0-.07.03-.09.09-.09h.88c.01-.48.06-1.38.12-1.66.01-.05.04-.08.09-.09l.88-.14c.05-.01.08,0,.08.05-.04.46-.08,1.21-.08,1.85h1.38c.05,0,.08.03.08.09v.77c0,.05-.03.08-.08.08h-1.38v3.65c0,.6.22.94.79.94.2,0,.39-.03.61-.1.04-.01.08-.01.08.05v.66Z"/>
        <path class="cls-2" d="m394.57,62.53c0-.4.29-.7.7-.7s.69.3.69.7c0,.43-.26.71-.69.71s-.7-.27-.7-.71Z"/>
        <path class="cls-2" d="m322.8,75.41l-.94,2.63c-.01.05-.04.08-.1.08h-.88c-.06,0-.09-.04-.08-.1l2.83-7.89c.04-.1.08-.2.09-.53,0-.04.03-.06.06-.06h1.27c.05,0,.07.01.08.06l3.06,8.44c.03.05.01.09-.05.09h-.99c-.05,0-.08-.03-.1-.06l-.95-2.64h-3.3Zm3-1c-.29-.84-1.11-3.12-1.35-4h-.01c-.22.83-.85,2.57-1.34,4h2.7Z"/>
        <path class="cls-2" d="m330.13,71.79c.08,0,.09.03.12.09.05.16.09.61.1.9.46-.62,1.26-1.12,2.09-1.12.06,0,.09.01.09.09v.94c0,.06-.01.08-.09.08-.9-.01-1.72.43-2.04.95v4.32c-.01.07-.04.08-.09.08h-.92c-.07,0-.09-.03-.09-.09v-4.49c0-.55-.03-1.3-.06-1.66,0-.05.01-.08.06-.08h.83Z"/>
        <path class="cls-2" d="m334.59,68.79c.07,0,.09,0,.09.08v3.05c.42-.17.88-.26,1.4-.26,1.79,0,2.96,1.29,2.96,3.04,0,2.34-1.77,3.54-3.6,3.54-.65,0-1.22-.08-1.78-.26-.05-.01-.08-.06-.08-.12v-9c0-.07.03-.08.09-.08h.91Zm1.33,3.82c-.56,0-.91.09-1.23.22v4.37c.25.08.51.1.86.1,1.25,0,2.41-.83,2.41-2.51,0-1.33-.78-2.18-2.03-2.18Z"/>
        <path class="cls-2" d="m341.15,75.08c-.01,1.24.7,2.21,2.17,2.21.57,0,1.12-.1,1.62-.35.04-.03.06,0,.06.05v.74c0,.08-.03.1-.06.13-.44.22-1.01.38-1.83.38-2.25,0-3.06-1.65-3.06-3.24,0-1.82,1.07-3.34,2.87-3.34s2.54,1.51,2.54,2.61c0,.33-.03.56-.05.68,0,.04-.04.08-.09.08-.2.04-.77.05-1.34.05h-2.83Zm2.43-.81c.64,0,.79-.01.83-.03.01-.04.01-.1.01-.14,0-.47-.31-1.55-1.54-1.55-1.08,0-1.61.84-1.73,1.72h2.42Z"/>
        <path class="cls-2" d="m346.74,69.88c0-.39.27-.66.66-.66.42,0,.65.29.65.66s-.26.66-.66.66-.65-.27-.65-.66Zm.1,2c0-.07.03-.09.09-.09h.92c.05,0,.08.01.08.08v6.15c0,.07-.01.09-.09.09h-.9c-.06,0-.1-.03-.1-.1v-6.12Z"/>
        <path class="cls-2" d="m352.59,77.93c0,.05-.01.1-.08.13-.3.13-.62.18-.98.18-.95,0-1.52-.46-1.52-1.7v-3.81h-.88c-.08-.01-.09-.04-.09-.1v-.74c0-.07.03-.09.09-.09h.88c.01-.48.06-1.38.12-1.66.01-.05.04-.08.09-.09l.88-.14c.05-.01.08,0,.08.05-.04.46-.08,1.21-.08,1.85h1.38c.05,0,.08.03.08.09v.77c0,.05-.03.08-.08.08h-1.38v3.65c0,.6.22.94.79.94.2,0,.39-.03.61-.1.04-.01.08-.01.08.05v.66Z"/>
        <path class="cls-2" d="m355.72,72.56c-.86,0-1.14.42-1.14.81s.23.66,1.21,1.05c1.31.51,1.85,1.04,1.85,1.96,0,1.2-.97,1.86-2.33,1.86-.72,0-1.37-.16-1.74-.38-.04-.03-.07-.05-.07-.12v-.87c0-.07.04-.09.08-.07.52.36,1.18.52,1.76.52.83,0,1.23-.36,1.23-.84s-.29-.77-1.18-1.12c-1.3-.49-1.85-1.03-1.85-1.95s.79-1.75,2.21-1.75c.71,0,1.25.13,1.52.29.07.03.07.08.07.13v.79c0,.07-.04.1-.1.07-.36-.22-.96-.38-1.51-.38Z"/>
        <path class="cls-2" d="m358.83,69.88c0-.39.27-.66.66-.66.42,0,.65.29.65.66s-.26.66-.66.66-.65-.27-.65-.66Zm.1,2c0-.07.03-.09.09-.09h.92c.05,0,.08.01.08.08v6.15c0,.07-.01.09-.09.09h-.9c-.07,0-.1-.03-.1-.1v-6.12Z"/>
        <path class="cls-2" d="m361.86,73.26c0-.44-.03-1.17-.05-1.39,0-.05.01-.08.08-.08h.81c.06,0,.09.03.12.08.04.12.05.36.08.65.57-.57,1.23-.86,1.99-.86.92,0,2.12.46,2.12,2.51v3.85c0,.07-.03.09-.09.09h-.91c-.07,0-.09-.03-.09-.1v-3.73c0-.99-.43-1.65-1.34-1.65-.66,0-1.21.3-1.62.79v4.6c0,.07-.01.09-.08.09h-.92c-.05,0-.08-.03-.08-.09v-4.76Z"/>
        <path class="cls-2" d="m371.53,77.93c0,.05-.01.1-.08.13-.3.13-.62.18-.97.18-.95,0-1.52-.46-1.52-1.7v-3.81h-.88c-.08-.01-.09-.04-.09-.1v-.74c0-.07.03-.09.09-.09h.88c.01-.48.07-1.38.12-1.66.01-.05.04-.08.09-.09l.88-.14c.05-.01.08,0,.08.05-.04.46-.08,1.21-.08,1.85h1.38c.05,0,.08.03.08.09v.77c0,.05-.03.08-.08.08h-1.38v3.65c0,.6.22.94.79.94.2,0,.39-.03.61-.1.04-.01.08-.01.08.05v.66Z"/>
        <path class="cls-2" d="m373.26,75.08c-.01,1.24.7,2.21,2.17,2.21.57,0,1.12-.1,1.62-.35.04-.03.06,0,.06.05v.74c0,.08-.03.1-.06.13-.44.22-1.01.38-1.83.38-2.25,0-3.05-1.65-3.05-3.24,0-1.82,1.07-3.34,2.87-3.34s2.54,1.51,2.54,2.61c0,.33-.03.56-.05.68,0,.04-.04.08-.09.08-.2.04-.77.05-1.34.05h-2.83Zm2.43-.81c.64,0,.79-.01.83-.03.01-.04.01-.1.01-.14,0-.47-.31-1.55-1.53-1.55-1.08,0-1.61.84-1.73,1.72h2.42Z"/>
        <path class="cls-2" d="m381.75,77.04c1.61.08,2.52.66,2.52,1.81,0,1.3-1.24,2.33-3.15,2.33s-2.87-1.01-2.87-1.98c0-.44.38-1.03,1.27-1.78-.21-.29-.31-.62-.31-.98,0-.29.08-.57.22-.82-.53-.35-.88-.94-.88-1.76,0-1.21.9-2.21,2.43-2.21.4,0,.74.05.97.1.12.03.2.03.27.03h1.83c.07,0,.08.03.08.08v.74c0,.05-.01.08-.08.08-.34,0-.88-.03-1.2-.05.23.25.46.66.46,1.26,0,1.43-1.07,2.15-2.35,2.15-.25,0-.48-.03-.71-.08-.06.16-.09.32-.06.48.03.2.1.38.23.53l1.33.07Zm-1.6.87c-.53.38-.87.92-.87,1.21,0,.6.71,1.21,1.91,1.21,1.43,0,2.07-.68,2.07-1.33,0-.77-.81-.98-1.73-1.03l-1.38-.06Zm-.53-4.06c0,.79.47,1.37,1.34,1.37.82,0,1.33-.49,1.33-1.34,0-.75-.4-1.39-1.31-1.39-.82,0-1.35.53-1.35,1.37Z"/>
        <path class="cls-2" d="m386.07,71.79c.08,0,.09.03.12.09.05.16.09.61.1.9.46-.62,1.26-1.12,2.09-1.12.06,0,.09.01.09.09v.94c0,.06-.01.08-.09.08-.9-.01-1.72.43-2.04.95v4.32c-.01.07-.04.08-.09.08h-.92c-.07,0-.09-.03-.09-.09v-4.49c0-.55-.03-1.3-.06-1.66,0-.05.01-.08.06-.08h.83Z"/>
        <path class="cls-2" d="m393.71,77.01c0,.22,0,.42.03.62,0,.03,0,.04-.03.05-.94.44-1.68.56-2.43.56-1.38,0-2.42-.68-2.42-2.04s1.29-1.99,2.9-1.99c.48,0,.75.01.9.03v-.31c0-.4-.2-1.3-1.47-1.3-.62,0-1.2.14-1.65.39-.04.01-.09,0-.09-.07v-.79c0-.05.03-.08.06-.1.51-.25,1.16-.39,1.85-.39,1.66,0,2.35,1.09,2.35,2.44v2.9Zm-1.05-1.91c-.18-.03-.47-.05-.86-.05-1.26,0-1.87.43-1.87,1.16,0,.58.4,1.16,1.55,1.16.42,0,.81-.06,1.18-.22v-2.04Z"/>
        <path class="cls-2" d="m398.16,77.93c0,.05-.01.1-.08.13-.3.13-.62.18-.98.18-.95,0-1.52-.46-1.52-1.7v-3.81h-.88c-.08-.01-.09-.04-.09-.1v-.74c0-.07.03-.09.09-.09h.88c.01-.48.07-1.38.12-1.66.01-.05.04-.08.09-.09l.88-.14c.05-.01.08,0,.08.05-.04.46-.08,1.21-.08,1.85h1.38c.05,0,.08.03.08.09v.77c0,.05-.03.08-.08.08h-1.38v3.65c0,.6.22.94.79.94.2,0,.39-.03.61-.1.04-.01.08-.01.08.05v.66Z"/>
        <path class="cls-2" d="m399.24,69.88c0-.39.27-.66.66-.66.42,0,.65.29.65.66s-.26.66-.66.66-.65-.27-.65-.66Zm.1,2c0-.07.03-.09.09-.09h.92c.05,0,.08.01.08.08v6.15c0,.07-.01.09-.09.09h-.9c-.06,0-.1-.03-.1-.1v-6.12Z"/>
        <path class="cls-2" d="m407.76,74.94c0,1.98-1.22,3.3-2.96,3.3-2.09,0-2.99-1.69-2.99-3.29,0-1.83,1.17-3.29,2.99-3.29s2.96,1.4,2.96,3.28Zm-4.86-.01c0,1.33.69,2.38,1.92,2.38.92,0,1.83-.73,1.83-2.34,0-1.21-.56-2.37-1.91-2.37-1.09,0-1.85.94-1.85,2.33Z"/>
        <path class="cls-2" d="m409.11,73.26c0-.44-.03-1.17-.05-1.39,0-.05.01-.08.08-.08h.81c.07,0,.09.03.12.08.04.12.05.36.08.65.57-.57,1.24-.86,1.99-.86.92,0,2.12.46,2.12,2.51v3.85c0,.07-.03.09-.09.09h-.91c-.07,0-.09-.03-.09-.1v-3.73c0-.99-.43-1.65-1.34-1.65-.66,0-1.21.3-1.62.79v4.6c0,.07-.01.09-.08.09h-.92c-.05,0-.08-.03-.08-.09v-4.76Z"/>
      </g>
      <g>
        <path class="cls-2" d="m297.86,156.05c0,.07-.03.09-.08.09h-.94c-.05,0-.06-.04-.06-.09v-8.42c0-.05.01-.08.08-.08h4.77c.05,0,.08.03.09.08l.09.82c.01.07-.01.09-.08.09h-3.88v2.87h3.46c.06,0,.09.03.09.08v.83c0,.05-.04.08-.09.08h-3.46v3.65Z"/>
        <path class="cls-2" d="m303.5,149.83c.08,0,.09.03.12.09.05.16.09.61.1.9.46-.62,1.26-1.12,2.09-1.12.06,0,.09.01.09.09v.94c0,.06-.01.08-.09.08-.9-.01-1.72.43-2.04.95v4.32c-.01.07-.04.08-.09.08h-.92c-.07,0-.09-.03-.09-.09v-4.49c0-.55-.03-1.3-.06-1.66,0-.05.01-.08.06-.08h.83Z"/>
        <path class="cls-2" d="m307.55,153.11c-.01,1.24.7,2.21,2.17,2.21.57,0,1.12-.1,1.62-.35.04-.03.07,0,.07.05v.74c0,.08-.03.1-.07.13-.44.22-1.01.38-1.83.38-2.25,0-3.05-1.65-3.05-3.24,0-1.82,1.07-3.34,2.87-3.34s2.54,1.51,2.54,2.61c0,.33-.03.56-.05.68,0,.04-.04.08-.09.08-.19.04-.77.05-1.34.05h-2.83Zm2.43-.81c.64,0,.79-.01.83-.03.01-.04.01-.1.01-.14,0-.47-.31-1.55-1.53-1.55-1.08,0-1.61.84-1.73,1.72h2.42Z"/>
        <path class="cls-2" d="m313.93,153.11c-.01,1.24.7,2.21,2.17,2.21.57,0,1.12-.1,1.62-.35.04-.03.07,0,.07.05v.74c0,.08-.03.1-.07.13-.44.22-1.01.38-1.83.38-2.25,0-3.05-1.65-3.05-3.24,0-1.82,1.07-3.34,2.87-3.34s2.54,1.51,2.54,2.61c0,.33-.03.56-.05.68,0,.04-.04.08-.09.08-.19.04-.77.05-1.34.05h-2.83Zm2.43-.81c.64,0,.79-.01.83-.03.01-.04.01-.1.01-.14,0-.47-.31-1.55-1.53-1.55-1.08,0-1.61.84-1.73,1.72h2.42Z"/>
        <path class="cls-2" d="m319.56,146.9c0-.07.03-.08.09-.08h.91c.07,0,.08.03.08.08v7.84c0,.51.21.62.52.62.09,0,.14-.01.26-.04.04,0,.05.03.05.08v.68c0,.06-.01.08-.07.1-.12.05-.32.09-.6.09-.64,0-1.25-.22-1.25-1.44v-7.93Z"/>
        <path class="cls-2" d="m327.08,155.04c0,.22,0,.42.03.62,0,.03,0,.04-.03.05-.94.44-1.68.56-2.43.56-1.38,0-2.42-.68-2.42-2.04s1.29-1.99,2.9-1.99c.48,0,.75.01.9.03v-.31c0-.4-.2-1.3-1.47-1.3-.62,0-1.2.14-1.65.39-.04.01-.09,0-.09-.07v-.79c0-.05.03-.08.06-.1.51-.25,1.16-.39,1.85-.39,1.66,0,2.35,1.09,2.35,2.44v2.9Zm-1.05-1.91c-.18-.03-.47-.05-.86-.05-1.26,0-1.87.43-1.87,1.16,0,.58.4,1.16,1.55,1.16.42,0,.81-.06,1.18-.22v-2.04Z"/>
        <path class="cls-2" d="m328.9,151.29c0-.44-.03-1.17-.05-1.39,0-.05.01-.08.08-.08h.81c.07,0,.09.03.12.08.04.12.05.36.08.65.57-.57,1.24-.86,1.99-.86.92,0,2.12.46,2.12,2.51v3.85c0,.07-.03.09-.09.09h-.91c-.06,0-.09-.03-.09-.1v-3.73c0-.99-.43-1.65-1.34-1.65-.66,0-1.21.3-1.62.79v4.6c0,.07-.01.09-.08.09h-.92c-.05,0-.08-.03-.08-.09v-4.76Z"/>
        <path class="cls-2" d="m340.08,155.97c0,.05,0,.08-.05.09-.43.17-.94.21-1.42.21-2.12,0-3.21-1.51-3.21-3.26,0-1.9,1.35-3.32,3.39-3.32.66,0,1.03.08,1.23.17.05.03.05.05.05.12v.82c0,.06-.04.06-.09.05-.32-.13-.66-.2-1.2-.2-1.34,0-2.29.9-2.29,2.31,0,1.56,1.08,2.33,2.29,2.33.48,0,.88-.05,1.21-.18.06-.01.08.01.08.05v.81Z"/>
        <path class="cls-2" d="m341.96,153.11c-.01,1.24.7,2.21,2.17,2.21.57,0,1.12-.1,1.62-.35.04-.03.06,0,.06.05v.74c0,.08-.03.1-.06.13-.44.22-1.01.38-1.83.38-2.25,0-3.05-1.65-3.05-3.24,0-1.82,1.07-3.34,2.87-3.34s2.54,1.51,2.54,2.61c0,.33-.03.56-.05.68,0,.04-.04.08-.09.08-.2.04-.77.05-1.34.05h-2.83Zm2.43-.81c.64,0,.79-.01.83-.03.01-.04.01-.1.01-.14,0-.47-.31-1.55-1.53-1.55-1.08,0-1.61.84-1.73,1.72h2.42Z"/>
        <path class="cls-2" d="m354.93,155.04c0,.22,0,.42.03.62,0,.03,0,.04-.03.05-.94.44-1.68.56-2.43.56-1.38,0-2.42-.68-2.42-2.04s1.29-1.99,2.9-1.99c.48,0,.75.01.9.03v-.31c0-.4-.19-1.3-1.47-1.3-.62,0-1.2.14-1.65.39-.04.01-.09,0-.09-.07v-.79c0-.05.03-.08.07-.1.51-.25,1.16-.39,1.85-.39,1.66,0,2.35,1.09,2.35,2.44v2.9Zm-1.05-1.91c-.18-.03-.47-.05-.86-.05-1.26,0-1.87.43-1.87,1.16,0,.58.4,1.16,1.55,1.16.42,0,.81-.06,1.18-.22v-2.04Z"/>
        <path class="cls-2" d="m356.75,146.9c0-.07.03-.08.09-.08h.91c.06,0,.08.03.08.08v7.84c0,.51.21.62.52.62.09,0,.14-.01.26-.04.04,0,.05.03.05.08v.68c0,.06-.01.08-.06.1-.12.05-.33.09-.6.09-.64,0-1.25-.22-1.25-1.44v-7.93Z"/>
        <path class="cls-2" d="m361.73,150.59c-.86,0-1.14.42-1.14.81s.23.66,1.21,1.05c1.31.51,1.85,1.04,1.85,1.96,0,1.2-.97,1.86-2.33,1.86-.72,0-1.37-.16-1.74-.38-.04-.03-.07-.05-.07-.12v-.87c0-.07.04-.09.08-.07.52.36,1.18.52,1.76.52.83,0,1.23-.36,1.23-.84s-.29-.77-1.18-1.12c-1.3-.49-1.85-1.03-1.85-1.95s.79-1.75,2.21-1.75c.71,0,1.25.13,1.52.29.06.03.06.08.06.13v.79c0,.07-.04.1-.1.07-.36-.22-.96-.38-1.51-.38Z"/>
        <path class="cls-2" d="m299.69,170.08c.27-.92.94-2.99,2.55-7.45.01-.05.04-.08.11-.08h.95c.05,0,.08.03.07.09l-3.09,8.42c-.03.07-.05.08-.12.08h-1.03c-.07,0-.09-.01-.12-.06l-3.16-8.44c-.03-.05-.01-.09.07-.09h1c.07,0,.08.01.09.06,1.49,3.98,2.43,6.62,2.67,7.46h.03Z"/>
        <path class="cls-2" d="m304.06,162.91c0-.39.27-.66.66-.66.42,0,.65.29.65.66s-.26.66-.66.66-.65-.27-.65-.66Zm.1,2c0-.07.03-.09.09-.09h.92c.05,0,.08.01.08.08v6.15c0,.07-.01.09-.09.09h-.9c-.07,0-.1-.03-.1-.1v-6.12Z"/>
        <path class="cls-2" d="m306.64,168.04c0-1.91,1.42-3.34,3.54-3.34.36,0,.57.04.82.08v-2.87c0-.07.03-.08.08-.08h.94c.06,0,.08.03.08.07v8.19c0,.18,0,.4.03.62,0,.05-.01.06-.06.09-.74.35-1.47.48-2.2.48-1.81,0-3.21-1.09-3.21-3.24Zm4.35-2.28c-.21-.09-.52-.13-.84-.13-1.48,0-2.41,1-2.41,2.35,0,1.69,1.07,2.34,2.21,2.34.34,0,.74-.04,1.04-.17v-4.39Z"/>
        <path class="cls-2" d="m314.54,168.11c-.01,1.24.7,2.21,2.17,2.21.57,0,1.12-.1,1.62-.35.04-.03.07,0,.07.05v.74c0,.08-.03.1-.07.13-.44.22-1.01.38-1.83.38-2.25,0-3.06-1.65-3.06-3.24,0-1.82,1.07-3.34,2.87-3.34s2.54,1.51,2.54,2.61c0,.33-.03.56-.05.68,0,.04-.04.08-.09.08-.19.04-.77.05-1.34.05h-2.83Zm2.43-.81c.64,0,.79-.01.83-.03.01-.04.01-.1.01-.14,0-.47-.31-1.55-1.53-1.55-1.08,0-1.61.84-1.73,1.72h2.42Z"/>
        <path class="cls-2" d="m325.78,167.97c0,1.98-1.22,3.3-2.96,3.3-2.09,0-2.99-1.69-2.99-3.29,0-1.83,1.17-3.29,2.99-3.29s2.96,1.4,2.96,3.28Zm-4.86-.01c0,1.33.69,2.38,1.92,2.38.92,0,1.83-.73,1.83-2.34,0-1.21-.56-2.37-1.91-2.37-1.09,0-1.85.94-1.85,2.33Z"/>
        <path class="cls-2" d="m335.4,171.07c-.01.07-.04.08-.09.08h-4.94c-.09,0-.1-.03-.1-.1v-8.4c0-.07.03-.09.09-.09h4.74c.07,0,.08.01.09.08l.1.82c.01.05,0,.09-.06.09h-3.89v2.72h3.51c.05,0,.08.03.08.08v.83c0,.06-.04.08-.08.08h-3.51v2.91h4.13c.07,0,.08.03.07.08l-.14.83Z"/>
        <path class="cls-2" d="m336.13,168.04c0-1.91,1.42-3.34,3.54-3.34.36,0,.57.04.82.08v-2.87c0-.07.03-.08.08-.08h.94c.06,0,.08.03.08.07v8.19c0,.18,0,.4.03.62,0,.05-.01.06-.06.09-.74.35-1.47.48-2.2.48-1.81,0-3.21-1.09-3.21-3.24Zm4.36-2.28c-.21-.09-.52-.13-.85-.13-1.48,0-2.4,1-2.4,2.35,0,1.69,1.07,2.34,2.21,2.34.34,0,.74-.04,1.04-.17v-4.39Z"/>
        <path class="cls-2" d="m343.29,162.91c0-.39.27-.66.66-.66.42,0,.65.29.65.66s-.26.66-.66.66-.65-.27-.65-.66Zm.1,2c0-.07.03-.09.09-.09h.92c.05,0,.08.01.08.08v6.15c0,.07-.01.09-.09.09h-.9c-.06,0-.1-.03-.1-.1v-6.12Z"/>
        <path class="cls-2" d="m349.14,170.96c0,.05-.01.1-.08.13-.3.13-.62.18-.98.18-.95,0-1.52-.46-1.52-1.7v-3.81h-.88c-.08-.01-.09-.04-.09-.1v-.74c0-.07.03-.09.09-.09h.88c.01-.48.06-1.38.12-1.66.01-.05.04-.08.09-.09l.88-.14c.05-.01.08,0,.08.05-.04.46-.08,1.21-.08,1.85h1.38c.05,0,.08.03.08.09v.77c0,.05-.03.08-.08.08h-1.38v3.65c0,.6.22.94.79.94.2,0,.39-.03.61-.1.04-.01.08-.01.08.05v.66Z"/>
        <path class="cls-2" d="m355.74,167.97c0,1.98-1.22,3.3-2.96,3.3-2.09,0-2.99-1.69-2.99-3.29,0-1.83,1.17-3.29,2.99-3.29s2.96,1.4,2.96,3.28Zm-4.86-.01c0,1.33.69,2.38,1.92,2.38.92,0,1.83-.73,1.83-2.34,0-1.21-.56-2.37-1.91-2.37-1.09,0-1.85.94-1.85,2.33Z"/>
        <path class="cls-2" d="m357.92,164.83c.08,0,.09.03.12.09.05.16.09.61.1.9.46-.62,1.26-1.12,2.09-1.12.06,0,.09.01.09.09v.94c0,.06-.01.08-.09.08-.9-.01-1.72.43-2.04.95v4.32c-.01.07-.04.08-.09.08h-.92c-.07,0-.09-.03-.09-.09v-4.49c0-.55-.03-1.3-.06-1.66,0-.05.01-.08.06-.08h.83Z"/>
      </g>
    </g>
  </g>
</svg>