<?xml version="1.0" encoding="UTF-8"?>
<svg id="Layer_2" data-name="Layer 2" xmlns="http://www.w3.org/2000/svg" viewBox="0 0 36.82 35.95">
  <defs>
    <style>
      .cls-1 {
        fill: #6d6e71;
        opacity: .57;
      }

      .cls-1, .cls-2, .cls-3, .cls-4 {
        stroke-width: 0px;
      }

      .cls-2 {
        fill: #4d4d4d;
      }

      .cls-3 {
        fill: #818181;
      }

      .cls-4 {
        fill: #010101;
      }
    </style>
  </defs>
  <g id="Layer_2-2" data-name="Layer 2">
    <g>
      <rect class="cls-1" width="36.82" height="35.95" rx="5.97" ry="5.97"/>
      <g>
        <path class="cls-4" d="m18.4,33.61l12.64-7.29-4.82-2.8-4.95,2.87c-.2.13-.39,0-.39-.27v-6.77c0-.18.1-.36.27-.46l5.86-3.39c.2-.13.39,0,.39.27v5.73l4.82,2.8v-14.66l-13.82,8.02v15.95Z"/>
        <path class="cls-3" d="m19.65,2.35v5.59l4.95,2.87c.2.13.2.39,0,.46l-5.87,3.39c-.16.1-.36.1-.52,0l-5.86-3.39c-.13-.06-.18-.21-.13-.33.02-.06.07-.1.13-.13l4.95-2.87V2.35l-12.7,7.29,13.81,8.02,13.82-8.02-12.57-7.29Z"/>
        <path class="cls-2" d="m15.6,26.38l-4.95-2.87-4.82,2.8,12.64,7.29v-15.95L4.6,9.64v14.59l4.82-2.8v-5.73c.02-.17.17-.29.35-.27.01,0,.03,0,.05.01l5.86,3.39c.17.09.27.27.27.46v6.76c.06.27-.14.46-.33.33Z"/>
      </g>
    </g>
  </g>
</svg>