<?xml version="1.0" encoding="UTF-8"?>
<svg id="Layer_2" data-name="Layer 2" xmlns="http://www.w3.org/2000/svg" xmlns:xlink="http://www.w3.org/1999/xlink" viewBox="0 0 36.82 35.95">
  <defs>
    <style>
      .cls-1 {
        mask: url(#mask);
      }

      .cls-2 {
        fill: url(#linear-gradient);
      }

      .cls-2, .cls-3 {
        fill-rule: evenodd;
      }

      .cls-2, .cls-3, .cls-4, .cls-5, .cls-6, .cls-7 {
        stroke-width: 0px;
      }

      .cls-8 {
        opacity: .25;
      }

      .cls-3, .cls-6 {
        fill: #fff;
      }

      .cls-4 {
        fill: #4497d2;
      }

      .cls-5 {
        fill: #2479bf;
      }

      .cls-7 {
        fill: #0265a9;
      }
    </style>
    <mask id="mask" x="4.13" y="3.78" width="28.57" height="28.4" maskUnits="userSpaceOnUse">
      <g id="mask0">
        <path class="cls-3" d="m24.39,32.06c.45.18.96.16,1.42-.05l5.88-2.83c.62-.3,1.01-.92,1.01-1.61V8.39c0-.69-.39-1.31-1.01-1.61l-5.88-2.83c-.6-.29-1.29-.22-1.82.16-.07.05-.15.11-.21.18l-11.25,10.27-4.9-3.72c-.46-.35-1.09-.32-1.52.07l-1.57,1.43c-.52.47-.52,1.29,0,1.76l4.25,3.88-4.25,3.88c-.52.47-.52,1.29,0,1.76l1.57,1.43c.42.39,1.06.41,1.52.07l4.9-3.72,11.25,10.27c.18.18.39.31.61.4Zm1.17-20.56l-8.54,6.48,8.54,6.48v-12.96Z"/>
      </g>
    </mask>
    <linearGradient id="linear-gradient" x1="18.4" y1="-2321.75" x2="18.4" y2="-2350.15" gradientTransform="translate(0 -2317.98) scale(1 -1)" gradientUnits="userSpaceOnUse">
      <stop offset="0" stop-color="#fff"/>
      <stop offset="1" stop-color="#fff" stop-opacity="0"/>
    </linearGradient>
  </defs>
  <g id="Layer_2-2" data-name="Layer 2">
    <g>
      <rect class="cls-6" width="36.82" height="35.95" rx="5.97" ry="5.97"/>
      <g class="cls-1">
        <g>
          <path class="cls-7" d="m31.68,6.78l-5.88-2.83c-.68-.33-1.49-.19-2.03.34L4.51,21.85c-.52.47-.52,1.29,0,1.76l1.57,1.43c.42.39,1.06.41,1.52.07L30.8,7.52c.78-.59,1.9-.04,1.9.94v-.07c0-.69-.39-1.31-1.01-1.61Z"/>
          <path class="cls-5" d="m31.68,29.17l-5.88,2.83c-.68.33-1.49.19-2.03-.34L4.51,14.1c-.52-.47-.52-1.29,0-1.76l1.57-1.43c.42-.39,1.06-.41,1.52-.07l23.19,17.59c.78.59,1.9.04,1.9-.94v.07c0,.69-.39,1.31-1.01,1.61Z"/>
          <path class="cls-4" d="m25.8,32c-.68.33-1.49.19-2.03-.35.66.66,1.78.19,1.78-.74V5.04c0-.93-1.13-1.4-1.78-.74.53-.53,1.35-.67,2.03-.35l5.88,2.83c.62.3,1.01.92,1.01,1.61v19.18c0,.69-.39,1.31-1.01,1.61l-5.88,2.83Z"/>
          <g class="cls-8">
            <path class="cls-2" d="m24.37,32.06c.45.18.96.16,1.42-.05l5.88-2.83c.62-.3,1.01-.92,1.01-1.61V8.39c0-.69-.39-1.31-1.01-1.61l-5.88-2.83c-.6-.29-1.29-.22-1.82.16-.07.05-.15.11-.21.18l-11.25,10.27-4.9-3.72c-.46-.35-1.09-.32-1.52.07l-1.57,1.43c-.52.47-.52,1.29,0,1.76l4.25,3.88-4.25,3.88c-.52.47-.52,1.29,0,1.76l1.57,1.43c.42.39,1.06.41,1.52.07l4.9-3.72,11.25,10.27c.18.18.39.31.61.4Zm1.17-20.56l-8.54,6.48,8.54,6.48v-12.96Z"/>
          </g>
        </g>
      </g>
    </g>
  </g>
</svg>