<?xml version="1.0" encoding="UTF-8"?>
<svg id="Layer_2" data-name="Layer 2" xmlns="http://www.w3.org/2000/svg" xmlns:xlink="http://www.w3.org/1999/xlink" viewBox="0 0 36.82 35.95">
  <defs>
    <style>
      .cls-1 {
        fill: url(#linear-gradient);
        fill-rule: evenodd;
      }

      .cls-1, .cls-2, .cls-3, .cls-4, .cls-5, .cls-6 {
        stroke-width: 0px;
      }

      .cls-7 {
        opacity: .34;
      }

      .cls-8 {
        opacity: .25;
      }

      .cls-2 {
        fill: #532d87;
      }

      .cls-3 {
        fill: #7b56a4;
      }

      .cls-4 {
        fill: #9b7cb8;
      }

      .cls-5 {
        fill: #673e98;
      }

      .cls-6 {
        fill: #6a449b;
      }
    </style>
    <linearGradient id="linear-gradient" x1="18.41" y1="749.62" x2="18.41" y2="776.02" gradientTransform="translate(0 -744.14)" gradientUnits="userSpaceOnUse">
      <stop offset="0" stop-color="#fff"/>
      <stop offset="1" stop-color="#fff" stop-opacity="0"/>
    </linearGradient>
  </defs>
  <g id="Layer_2-2" data-name="Layer 2">
    <g>
      <g class="cls-7">
        <rect class="cls-5" width="36.82" height="35.95" rx="5.97" ry="5.97"/>
      </g>
      <g>
        <path class="cls-2" d="m8.97,26.26c-.32.27-.76.34-1.14.18l-2.01-.84c-.41-.17-.68-.57-.68-1.01v-11.79c0-.44.27-.84.68-1.01l2.01-.83c.38-.16.83-.09,1.14.18l.45.37c-.27-.2-.66-.13-.85.14-.08.1-.12.23-.11.36v13.38c0,.34.27.61.61.61.13,0,.25-.04.36-.11l-.45.39Z"/>
        <path class="cls-6" d="m5.82,25.59c-.41-.17-.68-.57-.68-1.01v-.09c0,.35.29.64.65.63.17,0,.34-.08.46-.2L23.38,5.96c.5-.49,1.25-.62,1.89-.32l5.47,2.63c.57.28.94.86.94,1.5v.06c0-.58-.47-1.05-1.05-1.05-.24,0-.48.08-.66.24L9.42,25.87l-.45.39c-.32.27-.76.34-1.14.18l-2.01-.84Z"/>
        <path class="cls-3" d="m5.82,11.77c-.41.17-.68.57-.68,1.01v.09c0-.35.29-.64.65-.63.17,0,.34.08.46.2l17.14,18.95c.5.49,1.25.62,1.89.32l5.47-2.63c.57-.28.94-.86.94-1.5v-.06c0,.58-.47,1.05-1.05,1.05-.24,0-.48-.08-.66-.24L9.42,11.49l-.45-.39c-.32-.27-.76-.33-1.14-.17l-2.01.83Z"/>
        <path class="cls-4" d="m25.27,31.72c-.63.3-1.39.17-1.89-.32.38.38,1,.38,1.38,0,.18-.18.28-.43.28-.68V6.66c0-.54-.43-.97-.97-.98-.26,0-.51.1-.69.28.5-.49,1.25-.62,1.89-.32l5.47,2.63c.57.28.94.86.94,1.5v17.83c0,.64-.37,1.22-.94,1.5l-5.47,2.63Z"/>
        <g class="cls-8">
          <path class="cls-1" d="m24.18,31.84c.37.08.75.04,1.09-.12l5.47-2.63c.57-.28.94-.86.94-1.5V9.77c0-.64-.37-1.22-.94-1.5l-5.47-2.63c-.39-.19-.83-.21-1.24-.08-.24.08-.47.22-.65.4l-8.81,9.75-5.15-4.22-.45-.39c-.28-.24-.65-.32-1-.23-.05.01-.1.03-.15.05l-2.01.84c-.38.16-.65.52-.68.93v11.96c.03.41.3.77.68.93l2.01.83s.1.04.15.05c.35.09.72,0,1-.23l.45-.37,5.15-4.22,8.81,9.75c.22.22.5.37.8.44Zm.86-18.78l-6.85,5.62,6.85,5.62v-11.23Zm-16.59,1.82l3.43,3.8-3.43,3.8v-7.59Z"/>
        </g>
      </g>
    </g>
  </g>
</svg>